M48
; DRILL file {KiCad 8.0.6} date 2024-10-21T22:45:35+0100
; FORMAT={-:-/ absolute / metric / decimal}
; #@! TF.CreationDate,2024-10-21T22:45:35+01:00
; #@! TF.GenerationSoftware,Kicad,Pcbnew,8.0.6
; #@! TF.FileFunction,Plated,1,2,PTH
FMAT,2
METRIC
; #@! TA.AperFunction,Plated,PTH,ViaDrill
T1C0.400
; #@! TA.AperFunction,Plated,PTH,ComponentDrill
T2C2.200
%
G90
G05
T1
X99.278Y-66.1
X99.3Y-88.6
X99.344Y-75.5
X99.344Y-81.2
X101.233Y-66.1
X101.256Y-88.6
X101.3Y-75.5
X101.3Y-81.2
X103.178Y-66.1
X103.211Y-88.6
X103.256Y-77.5
X103.256Y-79.4
X103.256Y-81.2
X105.133Y-66.1
X105.167Y-88.6
X107.089Y-66.1
X107.122Y-88.6
X107.9Y-83.4
X108.2Y-78.5
X108.3Y-76.7
X109.044Y-66.1
X109.078Y-88.6
X109.8Y-82.5
X110.0Y-79.6
X110.4Y-78.1
X111.0Y-66.1
X111.033Y-88.6
X111.7Y-83.5
X112.4Y-81.1
X112.6Y-72.6
X112.956Y-66.1
X112.989Y-88.6
X114.0Y-72.6
X114.4Y-83.5
X114.911Y-66.1
X114.944Y-88.6
X114.978Y-86.4
X115.2Y-72.6
X115.662Y-83.5
X116.1Y-71.4
X116.867Y-66.1
X116.9Y-88.6
X116.925Y-83.5
X116.933Y-86.4
X117.5Y-71.4
X118.188Y-83.5
X118.2Y-82.0
X118.822Y-66.1
X118.844Y-88.6
X118.878Y-86.4
X119.4Y-82.0
X119.45Y-83.5
X120.7Y-82.0
X120.712Y-83.5
X120.778Y-66.1
X120.8Y-88.6
X120.833Y-86.4
X121.975Y-83.5
X122.0Y-82.0
X122.678Y-66.1
X122.756Y-88.6
X122.789Y-86.4
X122.9Y-71.5
X123.237Y-83.5
X123.3Y-82.0
X124.5Y-82.0
X124.5Y-83.5
X124.633Y-66.1
X124.689Y-71.5
X124.711Y-88.6
X124.744Y-86.4
X126.589Y-66.1
X126.644Y-71.5
X126.667Y-88.6
X126.7Y-86.4
X128.544Y-66.1
X128.6Y-71.5
X128.622Y-88.6
X128.656Y-84.0
X128.656Y-86.4
X130.5Y-66.1
X130.5Y-71.5
X130.578Y-88.6
X130.611Y-84.0
X130.611Y-86.4
X132.456Y-71.5
X132.533Y-88.6
X132.567Y-84.0
X132.567Y-86.4
X134.411Y-71.5
X134.489Y-88.6
X134.522Y-84.0
X134.522Y-86.4
X136.367Y-71.5
X136.444Y-88.6
X136.478Y-84.0
X136.478Y-86.4
X138.322Y-71.5
X138.344Y-88.6
X138.378Y-84.0
X138.378Y-86.4
X140.3Y-88.6
X140.333Y-79.2
X140.333Y-81.7
X140.333Y-84.0
X140.333Y-86.4
X142.256Y-88.6
X142.289Y-79.2
X142.289Y-81.7
X142.289Y-84.0
X142.289Y-86.4
X144.211Y-88.6
X144.244Y-84.0
X144.244Y-86.4
X146.167Y-88.6
X146.2Y-84.0
X146.2Y-86.4
T2
X100.5Y-78.5
X145.5Y-80.5
M30
