%TF.GenerationSoftware,KiCad,Pcbnew,8.0.6*%
%TF.CreationDate,2024-10-21T22:45:32+01:00*%
%TF.ProjectId,buck,6275636b-2e6b-4696-9361-645f70636258,rev?*%
%TF.SameCoordinates,Original*%
%TF.FileFunction,Copper,L2,Bot*%
%TF.FilePolarity,Positive*%
%FSLAX46Y46*%
G04 Gerber Fmt 4.6, Leading zero omitted, Abs format (unit mm)*
G04 Created by KiCad (PCBNEW 8.0.6) date 2024-10-21 22:45:32*
%MOMM*%
%LPD*%
G01*
G04 APERTURE LIST*
%TA.AperFunction,ComponentPad*%
%ADD10C,3.800000*%
%TD*%
%TA.AperFunction,ViaPad*%
%ADD11C,0.800000*%
%TD*%
G04 APERTURE END LIST*
D10*
%TO.P,H6,1*%
%TO.N,N/C*%
X145500000Y-80500000D03*
%TD*%
%TO.P,H5,1*%
%TO.N,N/C*%
X100500000Y-78500000D03*
%TD*%
D11*
%TO.N,GND*%
X118200000Y-82000000D03*
X101233335Y-66100000D03*
X124500000Y-82000000D03*
X140333335Y-86400000D03*
X109800000Y-82500000D03*
X138377775Y-84000000D03*
X116100000Y-71400000D03*
X140333335Y-84000000D03*
X136477775Y-84000000D03*
X115662500Y-83500000D03*
X122677775Y-66100000D03*
X122788890Y-86400000D03*
X116866665Y-66100000D03*
X140333335Y-79200000D03*
X122000000Y-82000000D03*
X123300000Y-82000000D03*
X111700000Y-83500000D03*
X124500000Y-83500000D03*
X114000000Y-72600000D03*
X126666665Y-88600000D03*
X140333335Y-81700000D03*
X130577775Y-88600000D03*
X115200000Y-72600000D03*
X116933335Y-86400000D03*
X146200000Y-84000000D03*
X114911110Y-66100000D03*
X120712500Y-83500000D03*
X120800000Y-88600000D03*
X116925000Y-83500000D03*
X124633335Y-66100000D03*
X107088890Y-66100000D03*
X103177775Y-66100000D03*
X122900000Y-71500000D03*
X132566665Y-84000000D03*
X118187500Y-83500000D03*
X107122220Y-88600000D03*
X142288890Y-86400000D03*
X110400000Y-78100000D03*
X108300000Y-76700000D03*
X101300000Y-75500000D03*
X130611110Y-86400000D03*
X134522220Y-86400000D03*
X146166665Y-88600000D03*
X120833335Y-86400000D03*
X140300000Y-88600000D03*
X103255555Y-77500000D03*
X103255555Y-79400000D03*
X138377775Y-86400000D03*
X130500000Y-66100000D03*
X132566665Y-86400000D03*
X99277775Y-66100000D03*
X128655555Y-84000000D03*
X124688890Y-71500000D03*
X114944440Y-88600000D03*
X122755555Y-88600000D03*
X121975000Y-83500000D03*
X136477775Y-86400000D03*
X109044445Y-66100000D03*
X144244445Y-86400000D03*
X114400000Y-83500000D03*
X105133335Y-66100000D03*
X126700000Y-86400000D03*
X101255555Y-88600000D03*
X130611110Y-84000000D03*
X120700000Y-82000000D03*
X108200000Y-78500000D03*
X112600000Y-72600000D03*
X109077775Y-88600000D03*
X112988885Y-88600000D03*
X103255555Y-81200000D03*
X126588890Y-66100000D03*
X117500000Y-71400000D03*
X142255555Y-88600000D03*
X144244445Y-84000000D03*
X119400000Y-82000000D03*
X101300000Y-81200000D03*
X136366670Y-71500000D03*
X114977775Y-86400000D03*
X144211110Y-88600000D03*
X99300000Y-88600000D03*
X142288890Y-84000000D03*
X142288890Y-79200000D03*
X107900000Y-83400000D03*
X134411115Y-71500000D03*
X134488885Y-88600000D03*
X105166665Y-88600000D03*
X110000000Y-79600000D03*
X111000000Y-66100000D03*
X118844440Y-88600000D03*
X103211110Y-88600000D03*
X111033330Y-88600000D03*
X138322225Y-71500000D03*
X136444440Y-88600000D03*
X118822220Y-66100000D03*
X112400000Y-81100000D03*
X123237500Y-83500000D03*
X132533330Y-88600000D03*
X119450000Y-83500000D03*
X128622220Y-88600000D03*
X124744445Y-86400000D03*
X130500000Y-71500000D03*
X120777775Y-66100000D03*
X134522220Y-84000000D03*
X99344445Y-81200000D03*
X128655555Y-86400000D03*
X128544445Y-66100000D03*
X112955555Y-66100000D03*
X128600000Y-71500000D03*
X126644445Y-71500000D03*
X132455560Y-71500000D03*
X146200000Y-86400000D03*
X124711110Y-88600000D03*
X116900000Y-88600000D03*
X118877775Y-86400000D03*
X138344440Y-88600000D03*
X99344445Y-75500000D03*
X142288890Y-81700000D03*
%TD*%
%TA.AperFunction,Conductor*%
%TO.N,GND*%
G36*
X148243039Y-65319685D02*
G01*
X148288794Y-65372489D01*
X148300000Y-65424000D01*
X148300000Y-89376000D01*
X148280315Y-89443039D01*
X148227511Y-89488794D01*
X148176000Y-89500000D01*
X97924000Y-89500000D01*
X97856961Y-89480315D01*
X97811206Y-89427511D01*
X97800000Y-89376000D01*
X97800000Y-78500000D01*
X98394592Y-78500000D01*
X98414201Y-78786680D01*
X98472666Y-79068034D01*
X98472667Y-79068037D01*
X98568894Y-79338793D01*
X98568893Y-79338793D01*
X98701098Y-79593935D01*
X98866812Y-79828700D01*
X98951923Y-79919831D01*
X99062947Y-80038708D01*
X99277567Y-80213314D01*
X99285853Y-80220055D01*
X99531382Y-80369365D01*
X99718237Y-80450526D01*
X99794942Y-80483844D01*
X100071642Y-80561371D01*
X100321920Y-80595771D01*
X100356321Y-80600500D01*
X100356322Y-80600500D01*
X100643679Y-80600500D01*
X100674370Y-80596281D01*
X100928358Y-80561371D01*
X101147396Y-80500000D01*
X143394592Y-80500000D01*
X143414201Y-80786680D01*
X143472666Y-81068034D01*
X143472667Y-81068037D01*
X143568894Y-81338793D01*
X143568893Y-81338793D01*
X143701098Y-81593935D01*
X143866812Y-81828700D01*
X143951923Y-81919831D01*
X144062947Y-82038708D01*
X144285853Y-82220055D01*
X144531382Y-82369365D01*
X144718237Y-82450526D01*
X144794942Y-82483844D01*
X145071642Y-82561371D01*
X145321920Y-82595771D01*
X145356321Y-82600500D01*
X145356322Y-82600500D01*
X145643679Y-82600500D01*
X145674370Y-82596281D01*
X145928358Y-82561371D01*
X146205058Y-82483844D01*
X146318015Y-82434779D01*
X146468617Y-82369365D01*
X146468620Y-82369363D01*
X146468625Y-82369361D01*
X146714147Y-82220055D01*
X146937053Y-82038708D01*
X147133189Y-81828698D01*
X147298901Y-81593936D01*
X147431104Y-81338797D01*
X147527334Y-81068032D01*
X147585798Y-80786686D01*
X147605408Y-80500000D01*
X147585798Y-80213314D01*
X147527334Y-79931968D01*
X147431105Y-79661206D01*
X147431106Y-79661206D01*
X147298901Y-79406064D01*
X147133187Y-79171299D01*
X147036741Y-79068032D01*
X146937053Y-78961292D01*
X146722433Y-78786686D01*
X146714146Y-78779944D01*
X146468617Y-78630634D01*
X146205063Y-78516158D01*
X146205061Y-78516157D01*
X146205058Y-78516156D01*
X146075578Y-78479877D01*
X145928364Y-78438630D01*
X145928359Y-78438629D01*
X145928358Y-78438629D01*
X145786018Y-78419064D01*
X145643679Y-78399500D01*
X145643678Y-78399500D01*
X145356322Y-78399500D01*
X145356321Y-78399500D01*
X145071642Y-78438629D01*
X145071635Y-78438630D01*
X144863861Y-78496845D01*
X144794942Y-78516156D01*
X144794939Y-78516156D01*
X144794936Y-78516158D01*
X144794935Y-78516158D01*
X144531382Y-78630634D01*
X144285853Y-78779944D01*
X144062950Y-78961289D01*
X143866812Y-79171299D01*
X143701098Y-79406064D01*
X143568894Y-79661206D01*
X143472667Y-79931962D01*
X143472666Y-79931965D01*
X143414201Y-80213319D01*
X143394592Y-80500000D01*
X101147396Y-80500000D01*
X101205058Y-80483844D01*
X101318015Y-80434779D01*
X101468617Y-80369365D01*
X101468620Y-80369363D01*
X101468625Y-80369361D01*
X101714147Y-80220055D01*
X101937053Y-80038708D01*
X102133189Y-79828698D01*
X102298901Y-79593936D01*
X102431104Y-79338797D01*
X102527334Y-79068032D01*
X102585798Y-78786686D01*
X102605408Y-78500000D01*
X102585798Y-78213314D01*
X102527334Y-77931968D01*
X102431105Y-77661206D01*
X102431106Y-77661206D01*
X102298901Y-77406064D01*
X102133187Y-77171299D01*
X102054554Y-77087105D01*
X101937053Y-76961292D01*
X101714147Y-76779945D01*
X101714146Y-76779944D01*
X101468617Y-76630634D01*
X101205063Y-76516158D01*
X101205061Y-76516157D01*
X101205058Y-76516156D01*
X101075578Y-76479877D01*
X100928364Y-76438630D01*
X100928359Y-76438629D01*
X100928358Y-76438629D01*
X100786018Y-76419064D01*
X100643679Y-76399500D01*
X100643678Y-76399500D01*
X100356322Y-76399500D01*
X100356321Y-76399500D01*
X100071642Y-76438629D01*
X100071635Y-76438630D01*
X99863861Y-76496845D01*
X99794942Y-76516156D01*
X99794939Y-76516156D01*
X99794936Y-76516158D01*
X99794935Y-76516158D01*
X99531382Y-76630634D01*
X99285853Y-76779944D01*
X99062950Y-76961289D01*
X98866812Y-77171299D01*
X98701098Y-77406064D01*
X98568894Y-77661206D01*
X98472667Y-77931962D01*
X98472666Y-77931965D01*
X98414201Y-78213319D01*
X98394592Y-78500000D01*
X97800000Y-78500000D01*
X97800000Y-65424000D01*
X97819685Y-65356961D01*
X97872489Y-65311206D01*
X97924000Y-65300000D01*
X148176000Y-65300000D01*
X148243039Y-65319685D01*
G37*
%TD.AperFunction*%
%TD*%
M02*
