%TF.GenerationSoftware,KiCad,Pcbnew,8.0.6*%
%TF.CreationDate,2024-10-21T22:45:32+01:00*%
%TF.ProjectId,buck,6275636b-2e6b-4696-9361-645f70636258,rev?*%
%TF.SameCoordinates,Original*%
%TF.FileFunction,Legend,Top*%
%TF.FilePolarity,Positive*%
%FSLAX46Y46*%
G04 Gerber Fmt 4.6, Leading zero omitted, Abs format (unit mm)*
G04 Created by KiCad (PCBNEW 8.0.6) date 2024-10-21 22:45:32*
%MOMM*%
%LPD*%
G01*
G04 APERTURE LIST*
%ADD10C,0.175000*%
%ADD11C,0.150000*%
%ADD12C,0.010000*%
%ADD13C,0.120000*%
%ADD14C,0.250000*%
G04 APERTURE END LIST*
D10*
G36*
X145571311Y-84931006D02*
G01*
X145672355Y-85217039D01*
X145781605Y-84917671D01*
X145795496Y-84884417D01*
X145809473Y-84861935D01*
X145840620Y-84845656D01*
X145852557Y-84844838D01*
X145886292Y-84853565D01*
X145899061Y-84863302D01*
X145916695Y-84893025D01*
X145918210Y-84906387D01*
X145914790Y-84927929D01*
X145907438Y-84950326D01*
X145898206Y-84973578D01*
X145772201Y-85287650D01*
X145759408Y-85319587D01*
X145758353Y-85322186D01*
X145742881Y-85352747D01*
X145738862Y-85358773D01*
X145712698Y-85382499D01*
X145711678Y-85383051D01*
X145678018Y-85391803D01*
X145672355Y-85391942D01*
X145638464Y-85386051D01*
X145624825Y-85378264D01*
X145600908Y-85352589D01*
X145598667Y-85348686D01*
X145584201Y-85317391D01*
X145571482Y-85287650D01*
X145446503Y-84976826D01*
X145437613Y-84953575D01*
X145429748Y-84929297D01*
X145426500Y-84907242D01*
X145435390Y-84877664D01*
X145460010Y-84854070D01*
X145494033Y-84844838D01*
X145528367Y-84852070D01*
X145542759Y-84865354D01*
X145558357Y-84896141D01*
X145570362Y-84928199D01*
X145571311Y-84931006D01*
G37*
G36*
X146208688Y-85308679D02*
G01*
X146208688Y-84883648D01*
X146181071Y-84905326D01*
X146149660Y-84928360D01*
X146116529Y-84950038D01*
X146084167Y-84967110D01*
X146049685Y-84976143D01*
X146016511Y-84964179D01*
X146009849Y-84958020D01*
X145993821Y-84927662D01*
X145992752Y-84916132D01*
X146002081Y-84882889D01*
X146009337Y-84875612D01*
X146039163Y-84857179D01*
X146065586Y-84843812D01*
X146096073Y-84828016D01*
X146125666Y-84809957D01*
X146155226Y-84787581D01*
X146157397Y-84785682D01*
X146182112Y-84761671D01*
X146204713Y-84735545D01*
X146218604Y-84716952D01*
X146238687Y-84688874D01*
X146254508Y-84668739D01*
X146288702Y-84658822D01*
X146322076Y-84669004D01*
X146333667Y-84680364D01*
X146348066Y-84713169D01*
X146350422Y-84738494D01*
X146350422Y-85289702D01*
X146347915Y-85324447D01*
X146336775Y-85359592D01*
X146310319Y-85385552D01*
X146279127Y-85391942D01*
X146245764Y-85384407D01*
X146228007Y-85370570D01*
X146211876Y-85338441D01*
X146208688Y-85308679D01*
G37*
G36*
X146673042Y-85391942D02*
G01*
X146638090Y-85384769D01*
X146617648Y-85371596D01*
X146598233Y-85341710D01*
X146594396Y-85314663D01*
X146602231Y-85280786D01*
X146616622Y-85261150D01*
X146646775Y-85242449D01*
X146671503Y-85238752D01*
X146705157Y-85245731D01*
X146727069Y-85260808D01*
X146746340Y-85290434D01*
X146750150Y-85314663D01*
X146743635Y-85348516D01*
X146727069Y-85371254D01*
X146696887Y-85388527D01*
X146673042Y-85391942D01*
G37*
G36*
X147150631Y-84661154D02*
G01*
X147184691Y-84668151D01*
X147205956Y-84675406D01*
X147237908Y-84691392D01*
X147266530Y-84712401D01*
X147278618Y-84723791D01*
X147302513Y-84752055D01*
X147321615Y-84782453D01*
X147331448Y-84802095D01*
X147344056Y-84834613D01*
X147354056Y-84871771D01*
X147360396Y-84906280D01*
X147364925Y-84944012D01*
X147367642Y-84984967D01*
X147368512Y-85020050D01*
X147368548Y-85029143D01*
X147367939Y-85067430D01*
X147366112Y-85102960D01*
X147362600Y-85139635D01*
X147358803Y-85165748D01*
X147351166Y-85200543D01*
X147340223Y-85233335D01*
X147324368Y-85267091D01*
X147322728Y-85270040D01*
X147302392Y-85300738D01*
X147278892Y-85327243D01*
X147252227Y-85349557D01*
X147236046Y-85360141D01*
X147205204Y-85375513D01*
X147172496Y-85385855D01*
X147137921Y-85391165D01*
X147117906Y-85391942D01*
X147081436Y-85389292D01*
X147046911Y-85381341D01*
X147014330Y-85368091D01*
X146983695Y-85349541D01*
X146955933Y-85326225D01*
X146931805Y-85298848D01*
X146911310Y-85267411D01*
X146896357Y-85236573D01*
X146894448Y-85231914D01*
X146883522Y-85197637D01*
X146875740Y-85163592D01*
X146872222Y-85142667D01*
X146868231Y-85108161D01*
X146865897Y-85071878D01*
X146865212Y-85037350D01*
X146865399Y-85023501D01*
X147008314Y-85023501D01*
X147008813Y-85061192D01*
X147010310Y-85095725D01*
X147013244Y-85131324D01*
X147018102Y-85166443D01*
X147018743Y-85170023D01*
X147027469Y-85205555D01*
X147041792Y-85238849D01*
X147052766Y-85254653D01*
X147080677Y-85275554D01*
X147114375Y-85282494D01*
X147116880Y-85282521D01*
X147151922Y-85276134D01*
X147180688Y-85255244D01*
X147182191Y-85253456D01*
X147200334Y-85222704D01*
X147211666Y-85188115D01*
X147215872Y-85167971D01*
X147220665Y-85133491D01*
X147223609Y-85098073D01*
X147225168Y-85063401D01*
X147225778Y-85025293D01*
X147225788Y-85019569D01*
X147225289Y-84982901D01*
X147223496Y-84944801D01*
X147219922Y-84906793D01*
X147215359Y-84877322D01*
X147206613Y-84842884D01*
X147192214Y-84810676D01*
X147181165Y-84795427D01*
X147153040Y-84775039D01*
X147118444Y-84768270D01*
X147115854Y-84768243D01*
X147082051Y-84774270D01*
X147052928Y-84794824D01*
X147033781Y-84826166D01*
X147032250Y-84829963D01*
X147021778Y-84865140D01*
X147015070Y-84903143D01*
X147011143Y-84941082D01*
X147009156Y-84976482D01*
X147008338Y-85015321D01*
X147008314Y-85023501D01*
X146865399Y-85023501D01*
X146865693Y-85001820D01*
X146867384Y-84963969D01*
X146870291Y-84928364D01*
X146872906Y-84905874D01*
X146878673Y-84870808D01*
X146886983Y-84835900D01*
X146897355Y-84804831D01*
X146913533Y-84771374D01*
X146933002Y-84742127D01*
X146958839Y-84714257D01*
X146981814Y-84696265D01*
X147014733Y-84678165D01*
X147050979Y-84665989D01*
X147085990Y-84660139D01*
X147113974Y-84658822D01*
X147150631Y-84661154D01*
G37*
G36*
X99036287Y-82430071D02*
G01*
X99036287Y-82584237D01*
X99032956Y-82623762D01*
X99029839Y-82635821D01*
X99008304Y-82669023D01*
X99006196Y-82670992D01*
X98974149Y-82694462D01*
X98963210Y-82700692D01*
X98926707Y-82719095D01*
X98890865Y-82734837D01*
X98851330Y-82749364D01*
X98821158Y-82758333D01*
X98781731Y-82767117D01*
X98740388Y-82773027D01*
X98697129Y-82776061D01*
X98672267Y-82776505D01*
X98631935Y-82775112D01*
X98587763Y-82770108D01*
X98545644Y-82761465D01*
X98505576Y-82749182D01*
X98500711Y-82747391D01*
X98463342Y-82731100D01*
X98428806Y-82711536D01*
X98393340Y-82685615D01*
X98368234Y-82662590D01*
X98342381Y-82633281D01*
X98319727Y-82601041D01*
X98300273Y-82565870D01*
X98284019Y-82527768D01*
X98271282Y-82487065D01*
X98262184Y-82444090D01*
X98257208Y-82404624D01*
X98255019Y-82363419D01*
X98254905Y-82351327D01*
X98256261Y-82310215D01*
X98260328Y-82270656D01*
X98268297Y-82227345D01*
X98279807Y-82186062D01*
X98283237Y-82176058D01*
X98299174Y-82137785D01*
X98318457Y-82102492D01*
X98341086Y-82070179D01*
X98367062Y-82040845D01*
X98396285Y-82014565D01*
X98428464Y-81991606D01*
X98463599Y-81971969D01*
X98501688Y-81955653D01*
X98542575Y-81942745D01*
X98586099Y-81933525D01*
X98626346Y-81928483D01*
X98668613Y-81926264D01*
X98681060Y-81926149D01*
X98721031Y-81927553D01*
X98763224Y-81932491D01*
X98802480Y-81940983D01*
X98827020Y-81948619D01*
X98864503Y-81963724D01*
X98900358Y-81983072D01*
X98930579Y-82005284D01*
X98959867Y-82033776D01*
X98984123Y-82066046D01*
X98990956Y-82077970D01*
X99006343Y-82114460D01*
X99011472Y-82146944D01*
X99001855Y-82185474D01*
X98986852Y-82204781D01*
X98952261Y-82225099D01*
X98927843Y-82228424D01*
X98891109Y-82218849D01*
X98861605Y-82191885D01*
X98838768Y-82156956D01*
X98815089Y-82124856D01*
X98811193Y-82120175D01*
X98780540Y-82093187D01*
X98756873Y-82079924D01*
X98717794Y-82067761D01*
X98678849Y-82063849D01*
X98668946Y-82063706D01*
X98629269Y-82066399D01*
X98590006Y-82075394D01*
X98570467Y-82082855D01*
X98535076Y-82102939D01*
X98504473Y-82129679D01*
X98496608Y-82138542D01*
X98474005Y-82171036D01*
X98456045Y-82209140D01*
X98449323Y-82228619D01*
X98439978Y-82266701D01*
X98434512Y-82307599D01*
X98432909Y-82347224D01*
X98434460Y-82389706D01*
X98439111Y-82428984D01*
X98448785Y-82471885D01*
X98462925Y-82510170D01*
X98485064Y-82549002D01*
X98496413Y-82563720D01*
X98526589Y-82593032D01*
X98561552Y-82615145D01*
X98601303Y-82630058D01*
X98645840Y-82637772D01*
X98673440Y-82638947D01*
X98714152Y-82636886D01*
X98753051Y-82630704D01*
X98777976Y-82624293D01*
X98817534Y-82610644D01*
X98853534Y-82594955D01*
X98874305Y-82584432D01*
X98874305Y-82463874D01*
X98754138Y-82463874D01*
X98714573Y-82460525D01*
X98681256Y-82448633D01*
X98658159Y-82417065D01*
X98655659Y-82395877D01*
X98666762Y-82357971D01*
X98677152Y-82346051D01*
X98713448Y-82328244D01*
X98734403Y-82326316D01*
X98919637Y-82326316D01*
X98959372Y-82328911D01*
X98979623Y-82332960D01*
X99013163Y-82353172D01*
X99020460Y-82362464D01*
X99034061Y-82399681D01*
X99036287Y-82430071D01*
G37*
G36*
X99399134Y-82027363D02*
G01*
X99701409Y-82486735D01*
X99701409Y-82026191D01*
X99706175Y-81985267D01*
X99723098Y-81951550D01*
X99756239Y-81929721D01*
X99781912Y-81926149D01*
X99821440Y-81935104D01*
X99841898Y-81951550D01*
X99859751Y-81987731D01*
X99863977Y-82026386D01*
X99863977Y-82663567D01*
X99859471Y-82707573D01*
X99843283Y-82744631D01*
X99811001Y-82769446D01*
X99769797Y-82776505D01*
X99730344Y-82770666D01*
X99727983Y-82769861D01*
X99694218Y-82749838D01*
X99693203Y-82748954D01*
X99666248Y-82719410D01*
X99663698Y-82715933D01*
X99640446Y-82682807D01*
X99637124Y-82678026D01*
X99342470Y-82228424D01*
X99342470Y-82677244D01*
X99337361Y-82717510D01*
X99319218Y-82751103D01*
X99285207Y-82772933D01*
X99259818Y-82776505D01*
X99220503Y-82767343D01*
X99199637Y-82750517D01*
X99181467Y-82714233D01*
X99177166Y-82676267D01*
X99177166Y-82051201D01*
X99180072Y-82010542D01*
X99186350Y-81986526D01*
X99209931Y-81953193D01*
X99223279Y-81942953D01*
X99260767Y-81927790D01*
X99278967Y-81926149D01*
X99318161Y-81933300D01*
X99319218Y-81933769D01*
X99348332Y-81954286D01*
X99372561Y-81985690D01*
X99373342Y-81986916D01*
X99395053Y-82020863D01*
X99399134Y-82027363D01*
G37*
G36*
X100385875Y-81952112D02*
G01*
X100427874Y-81955461D01*
X100470189Y-81962009D01*
X100489630Y-81966400D01*
X100529957Y-81979930D01*
X100567652Y-81999832D01*
X100599637Y-82023455D01*
X100629633Y-82052581D01*
X100655629Y-82085249D01*
X100677626Y-82121458D01*
X100695624Y-82161208D01*
X100709622Y-82204500D01*
X100719621Y-82251334D01*
X100725620Y-82301709D01*
X100727495Y-82341814D01*
X100727620Y-82355625D01*
X100726600Y-82395758D01*
X100723074Y-82438065D01*
X100717029Y-82477968D01*
X100714724Y-82489471D01*
X100704219Y-82529752D01*
X100690435Y-82567308D01*
X100675059Y-82599087D01*
X100652811Y-82634294D01*
X100626222Y-82666644D01*
X100606085Y-82686623D01*
X100573613Y-82711061D01*
X100538479Y-82730518D01*
X100533593Y-82732736D01*
X100495529Y-82746624D01*
X100454974Y-82756046D01*
X100449378Y-82756965D01*
X100408095Y-82761774D01*
X100365942Y-82763828D01*
X100348750Y-82764000D01*
X100136161Y-82764000D01*
X100095324Y-82760385D01*
X100065429Y-82749540D01*
X100037827Y-82719912D01*
X100033775Y-82709094D01*
X100027399Y-82669179D01*
X100026545Y-82643637D01*
X100026545Y-82626442D01*
X100202205Y-82626442D01*
X100319637Y-82626442D01*
X100359293Y-82625762D01*
X100382358Y-82624293D01*
X100421302Y-82616214D01*
X100428667Y-82613741D01*
X100464303Y-82594504D01*
X100469895Y-82589903D01*
X100496987Y-82560908D01*
X100518475Y-82524919D01*
X100534357Y-82481938D01*
X100543310Y-82440778D01*
X100548370Y-82394762D01*
X100549616Y-82354453D01*
X100548386Y-82312246D01*
X100543843Y-82268369D01*
X100534553Y-82225300D01*
X100518875Y-82185868D01*
X100514640Y-82178403D01*
X100491300Y-82146254D01*
X100461923Y-82120412D01*
X100428667Y-82104544D01*
X100387084Y-82094899D01*
X100347563Y-82090262D01*
X100308208Y-82088732D01*
X100303614Y-82088717D01*
X100202205Y-82088717D01*
X100202205Y-82626442D01*
X100026545Y-82626442D01*
X100026545Y-82056868D01*
X100030737Y-82017032D01*
X100047407Y-81981549D01*
X100051946Y-81976561D01*
X100087525Y-81956741D01*
X100129413Y-81951184D01*
X100132840Y-81951159D01*
X100345429Y-81951159D01*
X100385875Y-81952112D01*
G37*
G36*
X98381716Y-68551159D02*
G01*
X98747494Y-68551159D01*
X98787174Y-68554126D01*
X98824660Y-68566959D01*
X98827997Y-68569136D01*
X98850741Y-68602743D01*
X98853789Y-68628340D01*
X98841587Y-68667313D01*
X98825457Y-68692429D01*
X98801276Y-68725057D01*
X98776894Y-68757292D01*
X98761758Y-68777035D01*
X98737213Y-68811189D01*
X98714498Y-68846727D01*
X98693729Y-68882365D01*
X98689071Y-68890755D01*
X98670802Y-68926451D01*
X98653314Y-68965933D01*
X98638654Y-69003585D01*
X98624591Y-69044135D01*
X98620683Y-69056254D01*
X98609351Y-69095723D01*
X98601926Y-69127768D01*
X98595179Y-69167543D01*
X98590006Y-69201822D01*
X98583852Y-69242220D01*
X98578283Y-69271969D01*
X98567832Y-69310510D01*
X98549197Y-69346854D01*
X98543698Y-69353253D01*
X98509580Y-69373235D01*
X98483321Y-69376505D01*
X98445029Y-69367550D01*
X98424703Y-69351103D01*
X98407008Y-69315136D01*
X98402819Y-69277244D01*
X98406082Y-69237677D01*
X98413391Y-69198110D01*
X98417669Y-69179547D01*
X98428885Y-69138751D01*
X98442079Y-69098054D01*
X98456273Y-69058712D01*
X98466322Y-69032611D01*
X98481906Y-68995039D01*
X98499079Y-68957037D01*
X98517841Y-68918605D01*
X98538193Y-68879742D01*
X98550537Y-68857342D01*
X98573201Y-68818552D01*
X98596912Y-68780828D01*
X98621671Y-68744169D01*
X98647477Y-68708577D01*
X98662693Y-68688717D01*
X98381716Y-68688717D01*
X98341579Y-68684810D01*
X98308443Y-68670936D01*
X98286052Y-68637067D01*
X98283628Y-68615444D01*
X98292996Y-68577213D01*
X98310202Y-68562883D01*
X98348233Y-68553094D01*
X98381716Y-68551159D01*
G37*
G36*
X99048401Y-69376505D02*
G01*
X99008456Y-69368308D01*
X98985094Y-69353253D01*
X98962906Y-69319097D01*
X98958520Y-69288187D01*
X98967475Y-69249470D01*
X98983921Y-69227028D01*
X99018382Y-69205656D01*
X99046643Y-69201431D01*
X99085104Y-69209407D01*
X99110146Y-69226637D01*
X99132171Y-69260496D01*
X99136524Y-69288187D01*
X99129080Y-69326876D01*
X99110146Y-69352862D01*
X99075653Y-69372603D01*
X99048401Y-69376505D01*
G37*
G36*
X99708797Y-68544931D02*
G01*
X99742079Y-68570432D01*
X99757056Y-68610153D01*
X99759246Y-68639087D01*
X99759246Y-69051369D01*
X99776636Y-69051369D01*
X99816301Y-69054593D01*
X99848150Y-69064265D01*
X99873539Y-69096412D01*
X99876287Y-69120734D01*
X99866357Y-69159250D01*
X99853230Y-69172709D01*
X99816319Y-69186646D01*
X99786406Y-69188926D01*
X99759246Y-69188926D01*
X99759246Y-69285842D01*
X99754117Y-69325409D01*
X99738729Y-69353839D01*
X99704231Y-69374291D01*
X99684214Y-69376505D01*
X99645830Y-69366491D01*
X99630090Y-69353253D01*
X99612797Y-69318176D01*
X99609378Y-69285842D01*
X99609378Y-69188926D01*
X99339734Y-69188926D01*
X99299794Y-69184766D01*
X99262590Y-69168225D01*
X99257083Y-69163720D01*
X99234331Y-69129738D01*
X99228946Y-69095528D01*
X99233049Y-69072667D01*
X99244052Y-69051369D01*
X99391709Y-69051369D01*
X99609378Y-69051369D01*
X99609378Y-68763553D01*
X99391709Y-69051369D01*
X99244052Y-69051369D01*
X99245163Y-69049219D01*
X99261577Y-69026163D01*
X99282093Y-68999394D01*
X99573035Y-68613490D01*
X99598183Y-68581771D01*
X99621493Y-68556826D01*
X99657509Y-68539524D01*
X99669560Y-68538654D01*
X99708797Y-68544931D01*
G37*
G36*
X100076175Y-68849722D02*
G01*
X100191653Y-69176616D01*
X100316510Y-68834481D01*
X100332386Y-68796477D01*
X100348360Y-68770782D01*
X100383956Y-68752178D01*
X100397599Y-68751243D01*
X100436153Y-68761217D01*
X100450746Y-68772346D01*
X100470899Y-68806314D01*
X100472630Y-68821585D01*
X100468722Y-68846205D01*
X100460321Y-68871801D01*
X100449769Y-68898375D01*
X100305764Y-69257314D01*
X100291143Y-69293813D01*
X100289937Y-69296784D01*
X100272255Y-69331711D01*
X100267662Y-69338598D01*
X100237760Y-69365714D01*
X100236594Y-69366344D01*
X100198126Y-69376346D01*
X100191653Y-69376505D01*
X100152921Y-69369773D01*
X100137334Y-69360873D01*
X100110000Y-69331530D01*
X100107438Y-69327070D01*
X100090906Y-69291304D01*
X100076371Y-69257314D01*
X99933538Y-68902087D01*
X99923377Y-68875514D01*
X99914389Y-68847768D01*
X99910676Y-68822562D01*
X99920837Y-68788759D01*
X99948974Y-68761794D01*
X99987857Y-68751243D01*
X100027096Y-68759509D01*
X100043545Y-68774690D01*
X100061370Y-68809875D01*
X100075091Y-68846513D01*
X100076175Y-68849722D01*
G37*
G36*
X140237033Y-77652231D02*
G01*
X140277275Y-77655810D01*
X140296887Y-77658780D01*
X140335439Y-77668789D01*
X140372301Y-77686185D01*
X140374459Y-77687503D01*
X140407085Y-77710996D01*
X140426629Y-77730880D01*
X140449756Y-77764039D01*
X140461214Y-77789108D01*
X140471166Y-77828169D01*
X140473133Y-77856323D01*
X140469273Y-77899570D01*
X140457691Y-77937720D01*
X140434420Y-77975786D01*
X140406109Y-78002893D01*
X140370078Y-78024902D01*
X140363322Y-78028075D01*
X140405877Y-78045389D01*
X140441220Y-78067780D01*
X140469350Y-78095245D01*
X140493585Y-78134904D01*
X140505846Y-78173537D01*
X140510895Y-78217245D01*
X140511040Y-78226595D01*
X140507567Y-78268838D01*
X140497148Y-78308371D01*
X140479784Y-78345194D01*
X140475478Y-78352234D01*
X140450809Y-78384318D01*
X140421256Y-78410715D01*
X140386818Y-78431426D01*
X140379344Y-78434886D01*
X140341726Y-78447846D01*
X140302200Y-78456223D01*
X140293175Y-78457551D01*
X140251223Y-78461726D01*
X140211696Y-78463596D01*
X140180628Y-78464000D01*
X139934236Y-78464000D01*
X139893864Y-78459775D01*
X139858431Y-78442977D01*
X139853538Y-78438403D01*
X139834480Y-78403045D01*
X139829137Y-78361670D01*
X139829114Y-78358291D01*
X139829114Y-78326442D01*
X140004968Y-78326442D01*
X140173984Y-78326442D01*
X140219805Y-78323651D01*
X140264538Y-78312935D01*
X140302592Y-78290275D01*
X140325425Y-78256675D01*
X140333035Y-78212136D01*
X140327320Y-78172972D01*
X140306205Y-78138671D01*
X140292393Y-78127726D01*
X140255922Y-78111652D01*
X140216377Y-78103924D01*
X140173674Y-78101373D01*
X140168513Y-78101348D01*
X140004968Y-78101348D01*
X140004968Y-78326442D01*
X139829114Y-78326442D01*
X139829114Y-77976295D01*
X140004968Y-77976295D01*
X140148192Y-77976295D01*
X140189170Y-77974839D01*
X140229110Y-77968923D01*
X140239637Y-77965939D01*
X140273251Y-77945423D01*
X140287704Y-77926079D01*
X140300335Y-77889069D01*
X140300795Y-77879575D01*
X140292941Y-77838831D01*
X140264731Y-77809302D01*
X140259763Y-77806889D01*
X140218843Y-77795123D01*
X140176833Y-77790154D01*
X140136631Y-77788735D01*
X140131193Y-77788717D01*
X140004968Y-77788717D01*
X140004968Y-77976295D01*
X139829114Y-77976295D01*
X139829114Y-77756868D01*
X139833274Y-77716685D01*
X139849815Y-77681129D01*
X139854319Y-77676170D01*
X139889428Y-77656655D01*
X139930845Y-77651184D01*
X139934236Y-77651159D01*
X140195478Y-77651159D01*
X140237033Y-77652231D01*
G37*
G36*
X140958297Y-78351452D02*
G01*
X140803936Y-78351452D01*
X140803936Y-78138863D01*
X140593496Y-78138863D01*
X140593496Y-77988801D01*
X140803936Y-77988801D01*
X140803936Y-77776212D01*
X140958297Y-77776212D01*
X140958297Y-77988801D01*
X141169909Y-77988801D01*
X141169909Y-78138863D01*
X140958297Y-78138863D01*
X140958297Y-78351452D01*
G37*
G36*
X140216838Y-71152231D02*
G01*
X140257080Y-71155810D01*
X140276692Y-71158780D01*
X140315244Y-71168789D01*
X140352106Y-71186185D01*
X140354264Y-71187503D01*
X140386890Y-71210996D01*
X140406434Y-71230880D01*
X140429561Y-71264039D01*
X140441019Y-71289108D01*
X140450971Y-71328169D01*
X140452938Y-71356323D01*
X140449078Y-71399570D01*
X140437496Y-71437720D01*
X140414225Y-71475786D01*
X140385914Y-71502893D01*
X140349883Y-71524902D01*
X140343127Y-71528075D01*
X140385682Y-71545389D01*
X140421025Y-71567780D01*
X140449155Y-71595245D01*
X140473390Y-71634904D01*
X140485651Y-71673537D01*
X140490700Y-71717245D01*
X140490845Y-71726595D01*
X140487372Y-71768838D01*
X140476953Y-71808371D01*
X140459589Y-71845194D01*
X140455283Y-71852234D01*
X140430614Y-71884318D01*
X140401061Y-71910715D01*
X140366623Y-71931426D01*
X140359149Y-71934886D01*
X140321531Y-71947846D01*
X140282005Y-71956223D01*
X140272980Y-71957551D01*
X140231028Y-71961726D01*
X140191501Y-71963596D01*
X140160433Y-71964000D01*
X139914041Y-71964000D01*
X139873669Y-71959775D01*
X139838236Y-71942977D01*
X139833343Y-71938403D01*
X139814285Y-71903045D01*
X139808942Y-71861670D01*
X139808919Y-71858291D01*
X139808919Y-71826442D01*
X139984773Y-71826442D01*
X140153789Y-71826442D01*
X140199610Y-71823651D01*
X140244343Y-71812935D01*
X140282397Y-71790275D01*
X140305230Y-71756675D01*
X140312840Y-71712136D01*
X140307125Y-71672972D01*
X140286010Y-71638671D01*
X140272198Y-71627726D01*
X140235727Y-71611652D01*
X140196182Y-71603924D01*
X140153479Y-71601373D01*
X140148318Y-71601348D01*
X139984773Y-71601348D01*
X139984773Y-71826442D01*
X139808919Y-71826442D01*
X139808919Y-71476295D01*
X139984773Y-71476295D01*
X140127997Y-71476295D01*
X140168975Y-71474839D01*
X140208915Y-71468923D01*
X140219442Y-71465939D01*
X140253056Y-71445423D01*
X140267509Y-71426079D01*
X140280140Y-71389069D01*
X140280600Y-71379575D01*
X140272746Y-71338831D01*
X140244536Y-71309302D01*
X140239568Y-71306889D01*
X140198648Y-71295123D01*
X140156638Y-71290154D01*
X140116436Y-71288735D01*
X140110998Y-71288717D01*
X139984773Y-71288717D01*
X139984773Y-71476295D01*
X139808919Y-71476295D01*
X139808919Y-71256868D01*
X139813079Y-71216685D01*
X139829620Y-71181129D01*
X139834124Y-71176170D01*
X139869233Y-71156655D01*
X139910650Y-71151184D01*
X139914041Y-71151159D01*
X140175283Y-71151159D01*
X140216838Y-71152231D01*
G37*
G36*
X140808165Y-71738905D02*
G01*
X140634655Y-71738905D01*
X140595479Y-71733556D01*
X140569979Y-71719952D01*
X140549286Y-71686571D01*
X140547509Y-71670322D01*
X140558814Y-71632100D01*
X140569393Y-71620496D01*
X140605236Y-71604040D01*
X140634655Y-71601348D01*
X140808165Y-71601348D01*
X140848035Y-71606752D01*
X140873231Y-71620496D01*
X140893564Y-71653899D01*
X140895311Y-71670322D01*
X140884005Y-71708284D01*
X140873427Y-71719952D01*
X140837767Y-71736240D01*
X140808165Y-71738905D01*
G37*
G36*
X138812324Y-87225921D02*
G01*
X138851193Y-87237317D01*
X138884640Y-87257261D01*
X138912666Y-87285751D01*
X138931879Y-87316023D01*
X138944539Y-87344513D01*
X138854951Y-87367936D01*
X138838008Y-87334877D01*
X138813505Y-87310835D01*
X138779647Y-87299815D01*
X138772714Y-87299548D01*
X138738367Y-87305766D01*
X138709338Y-87326227D01*
X138704497Y-87332032D01*
X138687550Y-87364659D01*
X138680578Y-87399553D01*
X138679706Y-87419398D01*
X138681735Y-87454979D01*
X138689023Y-87488991D01*
X138690307Y-87492744D01*
X138707230Y-87523839D01*
X138720910Y-87536854D01*
X138753816Y-87550080D01*
X138768953Y-87551216D01*
X138804175Y-87542968D01*
X138832051Y-87518224D01*
X138849063Y-87486552D01*
X138855806Y-87466757D01*
X138944026Y-87499241D01*
X138932285Y-87531939D01*
X138913439Y-87566681D01*
X138889960Y-87594610D01*
X138861848Y-87615728D01*
X138829102Y-87630033D01*
X138791723Y-87637526D01*
X138767072Y-87638752D01*
X138731569Y-87635435D01*
X138697893Y-87625481D01*
X138676458Y-87615159D01*
X138647374Y-87594049D01*
X138622955Y-87566112D01*
X138609267Y-87543693D01*
X138596013Y-87512004D01*
X138587668Y-87476774D01*
X138584355Y-87442042D01*
X138584134Y-87429827D01*
X138586405Y-87392738D01*
X138593217Y-87358621D01*
X138605956Y-87324524D01*
X138607386Y-87321603D01*
X138625756Y-87291959D01*
X138651233Y-87265195D01*
X138674064Y-87248941D01*
X138705678Y-87234145D01*
X138740806Y-87225491D01*
X138775792Y-87222953D01*
X138812324Y-87225921D01*
G37*
G36*
X138807742Y-87049686D02*
G01*
X138844436Y-87055104D01*
X138880062Y-87064133D01*
X138914619Y-87076774D01*
X138947638Y-87092706D01*
X138978647Y-87111609D01*
X139007648Y-87133483D01*
X139034640Y-87158327D01*
X139059164Y-87185596D01*
X139080759Y-87214918D01*
X139099427Y-87246291D01*
X139115167Y-87279715D01*
X139127658Y-87314625D01*
X139136581Y-87350625D01*
X139141934Y-87387715D01*
X139143719Y-87425895D01*
X139141940Y-87463526D01*
X139136602Y-87500123D01*
X139127707Y-87535686D01*
X139115252Y-87570215D01*
X139099240Y-87603710D01*
X139093112Y-87614646D01*
X139072954Y-87645999D01*
X139050308Y-87674792D01*
X139025173Y-87701025D01*
X138997550Y-87724697D01*
X138967439Y-87745808D01*
X138956849Y-87752277D01*
X138924129Y-87769475D01*
X138890339Y-87783115D01*
X138855479Y-87793197D01*
X138819549Y-87799721D01*
X138782550Y-87802686D01*
X138769979Y-87802884D01*
X138732105Y-87801117D01*
X138695422Y-87795815D01*
X138659929Y-87786979D01*
X138625626Y-87774609D01*
X138592514Y-87758705D01*
X138581741Y-87752618D01*
X138550870Y-87732419D01*
X138522500Y-87709646D01*
X138496630Y-87684301D01*
X138473260Y-87656384D01*
X138452391Y-87625894D01*
X138445990Y-87615159D01*
X138429024Y-87581990D01*
X138415568Y-87547751D01*
X138405623Y-87512442D01*
X138399187Y-87476064D01*
X138396262Y-87438615D01*
X138396067Y-87425895D01*
X138479672Y-87425895D01*
X138482097Y-87464673D01*
X138489374Y-87501848D01*
X138501502Y-87537421D01*
X138518482Y-87571390D01*
X138539693Y-87602774D01*
X138564344Y-87630760D01*
X138592437Y-87655347D01*
X138623970Y-87676537D01*
X138658100Y-87693516D01*
X138693811Y-87705644D01*
X138731104Y-87712921D01*
X138769979Y-87715347D01*
X138808575Y-87712932D01*
X138845718Y-87705687D01*
X138881408Y-87693612D01*
X138915645Y-87676708D01*
X138947467Y-87655668D01*
X138975741Y-87631187D01*
X139000467Y-87603266D01*
X139021646Y-87571903D01*
X139038701Y-87537902D01*
X139050882Y-87502233D01*
X139058191Y-87464897D01*
X139060628Y-87425895D01*
X139058181Y-87387448D01*
X139050840Y-87350412D01*
X139038604Y-87314786D01*
X139021475Y-87280570D01*
X139000168Y-87248813D01*
X138975399Y-87220560D01*
X138947168Y-87195812D01*
X138915474Y-87174569D01*
X138881376Y-87157440D01*
X138845761Y-87145205D01*
X138808628Y-87137864D01*
X138769979Y-87135417D01*
X138735752Y-87137290D01*
X138698179Y-87144020D01*
X138662251Y-87155643D01*
X138627969Y-87172160D01*
X138623799Y-87174569D01*
X138592341Y-87195801D01*
X138564302Y-87220517D01*
X138539682Y-87248716D01*
X138518482Y-87280399D01*
X138501502Y-87314561D01*
X138489374Y-87350198D01*
X138482097Y-87387309D01*
X138479672Y-87425895D01*
X138396067Y-87425895D01*
X138397822Y-87387915D01*
X138403088Y-87351042D01*
X138411863Y-87315275D01*
X138424149Y-87280613D01*
X138439945Y-87247058D01*
X138445990Y-87236118D01*
X138466044Y-87204765D01*
X138488634Y-87175971D01*
X138513761Y-87149739D01*
X138541424Y-87126067D01*
X138571623Y-87104955D01*
X138582254Y-87098487D01*
X138615108Y-87081289D01*
X138649044Y-87067649D01*
X138684062Y-87057567D01*
X138720162Y-87051043D01*
X138757344Y-87048078D01*
X138769979Y-87047880D01*
X138807742Y-87049686D01*
G37*
G36*
X139604996Y-87660637D02*
G01*
X139845893Y-87660637D01*
X139880856Y-87664697D01*
X139906758Y-87676879D01*
X139926596Y-87706409D01*
X139928300Y-87721331D01*
X139918587Y-87754542D01*
X139911032Y-87763732D01*
X139879450Y-87779313D01*
X139859912Y-87781000D01*
X139506004Y-87781000D01*
X139471810Y-87775742D01*
X139445823Y-87759970D01*
X139427163Y-87730678D01*
X139424110Y-87710218D01*
X139432249Y-87675327D01*
X139437445Y-87663201D01*
X139454389Y-87633229D01*
X139467023Y-87617723D01*
X139494476Y-87589243D01*
X139520734Y-87562596D01*
X139545797Y-87537781D01*
X139572979Y-87511666D01*
X139582770Y-87502489D01*
X139609501Y-87478062D01*
X139635891Y-87455259D01*
X139656800Y-87439230D01*
X139684160Y-87418329D01*
X139711341Y-87393945D01*
X139721427Y-87383494D01*
X139743995Y-87355370D01*
X139760408Y-87326732D01*
X139771542Y-87292760D01*
X139773743Y-87270141D01*
X139768267Y-87235640D01*
X139759724Y-87217311D01*
X139737203Y-87191285D01*
X139721939Y-87181237D01*
X139688536Y-87169778D01*
X139669452Y-87168243D01*
X139634450Y-87173469D01*
X139601733Y-87191289D01*
X139577249Y-87218464D01*
X139575076Y-87221757D01*
X139561262Y-87255156D01*
X139559176Y-87261080D01*
X139545183Y-87293489D01*
X139532505Y-87312713D01*
X139502947Y-87330032D01*
X139487198Y-87331519D01*
X139454011Y-87322422D01*
X139443429Y-87313909D01*
X139427370Y-87282236D01*
X139425990Y-87266380D01*
X139429795Y-87231117D01*
X139440271Y-87196739D01*
X139441207Y-87194401D01*
X139457518Y-87162981D01*
X139479523Y-87134244D01*
X139486856Y-87126526D01*
X139514235Y-87103747D01*
X139544216Y-87086176D01*
X139563792Y-87077458D01*
X139597602Y-87066848D01*
X139631529Y-87061024D01*
X139668494Y-87058840D01*
X139672358Y-87058822D01*
X139708358Y-87060308D01*
X139745614Y-87065529D01*
X139779434Y-87074511D01*
X139800073Y-87082587D01*
X139830732Y-87100283D01*
X139857635Y-87123239D01*
X139860938Y-87126697D01*
X139883030Y-87154777D01*
X139899937Y-87186764D01*
X139901800Y-87191324D01*
X139912231Y-87226226D01*
X139916276Y-87262330D01*
X139916332Y-87267235D01*
X139913377Y-87304708D01*
X139904511Y-87339977D01*
X139889735Y-87373042D01*
X139886071Y-87379391D01*
X139867164Y-87408653D01*
X139846135Y-87435866D01*
X139824863Y-87457866D01*
X139798622Y-87480978D01*
X139769939Y-87505417D01*
X139743142Y-87527866D01*
X139721598Y-87545745D01*
X139692200Y-87570557D01*
X139663913Y-87595749D01*
X139638859Y-87620053D01*
X139622606Y-87638069D01*
X139604996Y-87660637D01*
G37*
G36*
X140283303Y-87061154D02*
G01*
X140317364Y-87068151D01*
X140338628Y-87075406D01*
X140370580Y-87091392D01*
X140399203Y-87112401D01*
X140411290Y-87123791D01*
X140435186Y-87152055D01*
X140454288Y-87182453D01*
X140464120Y-87202095D01*
X140476729Y-87234613D01*
X140486728Y-87271771D01*
X140493069Y-87306280D01*
X140497598Y-87344012D01*
X140500315Y-87384967D01*
X140501184Y-87420050D01*
X140501221Y-87429143D01*
X140500612Y-87467430D01*
X140498784Y-87502960D01*
X140495273Y-87539635D01*
X140491475Y-87565748D01*
X140483839Y-87600543D01*
X140472896Y-87633335D01*
X140457040Y-87667091D01*
X140455401Y-87670040D01*
X140435065Y-87700738D01*
X140411565Y-87727243D01*
X140384900Y-87749557D01*
X140368719Y-87760141D01*
X140337877Y-87775513D01*
X140305168Y-87785855D01*
X140270593Y-87791165D01*
X140250579Y-87791942D01*
X140214109Y-87789292D01*
X140179583Y-87781341D01*
X140147003Y-87768091D01*
X140116367Y-87749541D01*
X140088606Y-87726225D01*
X140064478Y-87698848D01*
X140043983Y-87667411D01*
X140029030Y-87636573D01*
X140027121Y-87631914D01*
X140016195Y-87597637D01*
X140008413Y-87563592D01*
X140004895Y-87542667D01*
X140000904Y-87508161D01*
X139998570Y-87471878D01*
X139997885Y-87437350D01*
X139998072Y-87423501D01*
X140140987Y-87423501D01*
X140141486Y-87461192D01*
X140142983Y-87495725D01*
X140145916Y-87531324D01*
X140150774Y-87566443D01*
X140151416Y-87570023D01*
X140160142Y-87605555D01*
X140174465Y-87638849D01*
X140185439Y-87654653D01*
X140213350Y-87675554D01*
X140247047Y-87682494D01*
X140249553Y-87682521D01*
X140284595Y-87676134D01*
X140313361Y-87655244D01*
X140314863Y-87653456D01*
X140333007Y-87622704D01*
X140344339Y-87588115D01*
X140348545Y-87567971D01*
X140353338Y-87533491D01*
X140356282Y-87498073D01*
X140357841Y-87463401D01*
X140358451Y-87425293D01*
X140358461Y-87419569D01*
X140357962Y-87382901D01*
X140356169Y-87344801D01*
X140352594Y-87306793D01*
X140348032Y-87277322D01*
X140339286Y-87242884D01*
X140324887Y-87210676D01*
X140313838Y-87195427D01*
X140285713Y-87175039D01*
X140251117Y-87168270D01*
X140248527Y-87168243D01*
X140214724Y-87174270D01*
X140185601Y-87194824D01*
X140166454Y-87226166D01*
X140164923Y-87229963D01*
X140154451Y-87265140D01*
X140147742Y-87303143D01*
X140143815Y-87341082D01*
X140141828Y-87376482D01*
X140141010Y-87415321D01*
X140140987Y-87423501D01*
X139998072Y-87423501D01*
X139998366Y-87401820D01*
X140000056Y-87363969D01*
X140002964Y-87328364D01*
X140005579Y-87305874D01*
X140011346Y-87270808D01*
X140019656Y-87235900D01*
X140030027Y-87204831D01*
X140046205Y-87171374D01*
X140065675Y-87142127D01*
X140091511Y-87114257D01*
X140114487Y-87096265D01*
X140147405Y-87078165D01*
X140183651Y-87065989D01*
X140218663Y-87060139D01*
X140246646Y-87058822D01*
X140283303Y-87061154D01*
G37*
G36*
X140768960Y-87660637D02*
G01*
X141009856Y-87660637D01*
X141044820Y-87664697D01*
X141070722Y-87676879D01*
X141090560Y-87706409D01*
X141092264Y-87721331D01*
X141082551Y-87754542D01*
X141074996Y-87763732D01*
X141043414Y-87779313D01*
X141023876Y-87781000D01*
X140669968Y-87781000D01*
X140635774Y-87775742D01*
X140609787Y-87759970D01*
X140591127Y-87730678D01*
X140588073Y-87710218D01*
X140596213Y-87675327D01*
X140601409Y-87663201D01*
X140618352Y-87633229D01*
X140630987Y-87617723D01*
X140658439Y-87589243D01*
X140684698Y-87562596D01*
X140709761Y-87537781D01*
X140736943Y-87511666D01*
X140746734Y-87502489D01*
X140773465Y-87478062D01*
X140799855Y-87455259D01*
X140820764Y-87439230D01*
X140848124Y-87418329D01*
X140875304Y-87393945D01*
X140885390Y-87383494D01*
X140907958Y-87355370D01*
X140924371Y-87326732D01*
X140935506Y-87292760D01*
X140937707Y-87270141D01*
X140932231Y-87235640D01*
X140923688Y-87217311D01*
X140901167Y-87191285D01*
X140885903Y-87181237D01*
X140852499Y-87169778D01*
X140833415Y-87168243D01*
X140798413Y-87173469D01*
X140765696Y-87191289D01*
X140741213Y-87218464D01*
X140739040Y-87221757D01*
X140725226Y-87255156D01*
X140723140Y-87261080D01*
X140709147Y-87293489D01*
X140696468Y-87312713D01*
X140666911Y-87330032D01*
X140651161Y-87331519D01*
X140617975Y-87322422D01*
X140607393Y-87313909D01*
X140591334Y-87282236D01*
X140589954Y-87266380D01*
X140593758Y-87231117D01*
X140604234Y-87196739D01*
X140605170Y-87194401D01*
X140621481Y-87162981D01*
X140643486Y-87134244D01*
X140650819Y-87126526D01*
X140678198Y-87103747D01*
X140708180Y-87086176D01*
X140727756Y-87077458D01*
X140761566Y-87066848D01*
X140795493Y-87061024D01*
X140832458Y-87058840D01*
X140836322Y-87058822D01*
X140872322Y-87060308D01*
X140909577Y-87065529D01*
X140943398Y-87074511D01*
X140964036Y-87082587D01*
X140994696Y-87100283D01*
X141021599Y-87123239D01*
X141024902Y-87126697D01*
X141046993Y-87154777D01*
X141063901Y-87186764D01*
X141065764Y-87191324D01*
X141076195Y-87226226D01*
X141080239Y-87262330D01*
X141080296Y-87267235D01*
X141077341Y-87304708D01*
X141068475Y-87339977D01*
X141053699Y-87373042D01*
X141050034Y-87379391D01*
X141031128Y-87408653D01*
X141010099Y-87435866D01*
X140988827Y-87457866D01*
X140962586Y-87480978D01*
X140933903Y-87505417D01*
X140907106Y-87527866D01*
X140885561Y-87545745D01*
X140856164Y-87570557D01*
X140827876Y-87595749D01*
X140802822Y-87620053D01*
X140786570Y-87638069D01*
X140768960Y-87660637D01*
G37*
G36*
X141547525Y-87064315D02*
G01*
X141576647Y-87086628D01*
X141589751Y-87121384D01*
X141591667Y-87146701D01*
X141591667Y-87507448D01*
X141606884Y-87507448D01*
X141641591Y-87510269D01*
X141669459Y-87518732D01*
X141691674Y-87546861D01*
X141694078Y-87568142D01*
X141685390Y-87601844D01*
X141673904Y-87613620D01*
X141641607Y-87625815D01*
X141615432Y-87627810D01*
X141591667Y-87627810D01*
X141591667Y-87712612D01*
X141587179Y-87747233D01*
X141573715Y-87772109D01*
X141543529Y-87790005D01*
X141526015Y-87791942D01*
X141492429Y-87783180D01*
X141478656Y-87771596D01*
X141463524Y-87740904D01*
X141460533Y-87712612D01*
X141460533Y-87627810D01*
X141224595Y-87627810D01*
X141189647Y-87624170D01*
X141157093Y-87609697D01*
X141152274Y-87605755D01*
X141132367Y-87576021D01*
X141127655Y-87546087D01*
X141131245Y-87526083D01*
X141140873Y-87507448D01*
X141270073Y-87507448D01*
X141460533Y-87507448D01*
X141460533Y-87255609D01*
X141270073Y-87507448D01*
X141140873Y-87507448D01*
X141141845Y-87505567D01*
X141156207Y-87485392D01*
X141174159Y-87461969D01*
X141428733Y-87124304D01*
X141450737Y-87096550D01*
X141471133Y-87074722D01*
X141502648Y-87059583D01*
X141513192Y-87058822D01*
X141547525Y-87064315D01*
G37*
G36*
X142334874Y-87070598D02*
G01*
X142371623Y-87073528D01*
X142408649Y-87079258D01*
X142425659Y-87083100D01*
X142460945Y-87094939D01*
X142493929Y-87112353D01*
X142521915Y-87133023D01*
X142548162Y-87158508D01*
X142570909Y-87187092D01*
X142590156Y-87218775D01*
X142605904Y-87253557D01*
X142618152Y-87291438D01*
X142626901Y-87332417D01*
X142632151Y-87376495D01*
X142633791Y-87411587D01*
X142633900Y-87423672D01*
X142633008Y-87458788D01*
X142629922Y-87495807D01*
X142624633Y-87530722D01*
X142622616Y-87540787D01*
X142613424Y-87576033D01*
X142601363Y-87608895D01*
X142587909Y-87636701D01*
X142568443Y-87667507D01*
X142545178Y-87695814D01*
X142527557Y-87713295D01*
X142499144Y-87734678D01*
X142468402Y-87751704D01*
X142464127Y-87753644D01*
X142430821Y-87765796D01*
X142395335Y-87774040D01*
X142390439Y-87774845D01*
X142354316Y-87779052D01*
X142317432Y-87780849D01*
X142302390Y-87781000D01*
X142116374Y-87781000D01*
X142080642Y-87777837D01*
X142054483Y-87768348D01*
X142030332Y-87742423D01*
X142026786Y-87732957D01*
X142021208Y-87698031D01*
X142020460Y-87675682D01*
X142020460Y-87660637D01*
X142174162Y-87660637D01*
X142276915Y-87660637D01*
X142311615Y-87660042D01*
X142331796Y-87658756D01*
X142365872Y-87651687D01*
X142372316Y-87649524D01*
X142403498Y-87632691D01*
X142408391Y-87628665D01*
X142432097Y-87603294D01*
X142450898Y-87571804D01*
X142464795Y-87534196D01*
X142472629Y-87498181D01*
X142477057Y-87457917D01*
X142478147Y-87422646D01*
X142477071Y-87385715D01*
X142473096Y-87347323D01*
X142464967Y-87309637D01*
X142451249Y-87275135D01*
X142447543Y-87268602D01*
X142427120Y-87240473D01*
X142401415Y-87217860D01*
X142372316Y-87203976D01*
X142335932Y-87195537D01*
X142301350Y-87191480D01*
X142266915Y-87190141D01*
X142262896Y-87190127D01*
X142174162Y-87190127D01*
X142174162Y-87660637D01*
X142020460Y-87660637D01*
X142020460Y-87162259D01*
X142024128Y-87127403D01*
X142038714Y-87096356D01*
X142042686Y-87091990D01*
X142073817Y-87074648D01*
X142110469Y-87069786D01*
X142113468Y-87069764D01*
X142299483Y-87069764D01*
X142334874Y-87070598D01*
G37*
G36*
X143006876Y-87246774D02*
G01*
X143041554Y-87252585D01*
X143077193Y-87263450D01*
X143080303Y-87264670D01*
X143112713Y-87280208D01*
X143141770Y-87299786D01*
X143165275Y-87321090D01*
X143187683Y-87347860D01*
X143206011Y-87377863D01*
X143219131Y-87407943D01*
X143229643Y-87443615D01*
X143235414Y-87478183D01*
X143237577Y-87514788D01*
X143237595Y-87518561D01*
X143235776Y-87555075D01*
X143230316Y-87589820D01*
X143221216Y-87622795D01*
X143218960Y-87629178D01*
X143204148Y-87662314D01*
X143185335Y-87692137D01*
X143164762Y-87716373D01*
X143138815Y-87739507D01*
X143109635Y-87758600D01*
X143080303Y-87772451D01*
X143045134Y-87783548D01*
X143010673Y-87789638D01*
X142973841Y-87791923D01*
X142970027Y-87791942D01*
X142933352Y-87790022D01*
X142898981Y-87784261D01*
X142863835Y-87773490D01*
X142860778Y-87772280D01*
X142828911Y-87756645D01*
X142800075Y-87737010D01*
X142776489Y-87715689D01*
X142753964Y-87688765D01*
X142735519Y-87658769D01*
X142722292Y-87628836D01*
X142711877Y-87593261D01*
X142706160Y-87558747D01*
X142704016Y-87522162D01*
X142703999Y-87518561D01*
X142846587Y-87518561D01*
X142848703Y-87554641D01*
X142855770Y-87589495D01*
X142861632Y-87606439D01*
X142878640Y-87637351D01*
X142902827Y-87661795D01*
X142904546Y-87663030D01*
X142936821Y-87678238D01*
X142970027Y-87682521D01*
X143006442Y-87677430D01*
X143037401Y-87662157D01*
X143060812Y-87639436D01*
X143078754Y-87609046D01*
X143089220Y-87575956D01*
X143094005Y-87541978D01*
X143094836Y-87518561D01*
X143092709Y-87481546D01*
X143085233Y-87445217D01*
X143070614Y-87411451D01*
X143060812Y-87397172D01*
X143034812Y-87372740D01*
X143003357Y-87358449D01*
X142970027Y-87354258D01*
X142935449Y-87359046D01*
X142905230Y-87373407D01*
X142880482Y-87397044D01*
X142862948Y-87427665D01*
X142861974Y-87429998D01*
X142852012Y-87462760D01*
X142847323Y-87496908D01*
X142846587Y-87518561D01*
X142703999Y-87518561D01*
X142703998Y-87518390D01*
X142705818Y-87481351D01*
X142711278Y-87446315D01*
X142720377Y-87413283D01*
X142722634Y-87406917D01*
X142737365Y-87373745D01*
X142755935Y-87344047D01*
X142776147Y-87320064D01*
X142801961Y-87297125D01*
X142831208Y-87278146D01*
X142860778Y-87264328D01*
X142896057Y-87253231D01*
X142930197Y-87247141D01*
X142966308Y-87244857D01*
X142970027Y-87244838D01*
X143006876Y-87246774D01*
G37*
G36*
X143456950Y-87320748D02*
G01*
X143456779Y-87320748D01*
X143480464Y-87295746D01*
X143509566Y-87274638D01*
X143524825Y-87266209D01*
X143558252Y-87253186D01*
X143591978Y-87246528D01*
X143621765Y-87244838D01*
X143657125Y-87247525D01*
X143692704Y-87256585D01*
X143717337Y-87267577D01*
X143746004Y-87287171D01*
X143770277Y-87314422D01*
X143780425Y-87331690D01*
X143793568Y-87364575D01*
X143797864Y-87385717D01*
X143800932Y-87420711D01*
X143801793Y-87455979D01*
X143801796Y-87458721D01*
X143801796Y-87705773D01*
X143797476Y-87740722D01*
X143782135Y-87769886D01*
X143753163Y-87788840D01*
X143731357Y-87791942D01*
X143697813Y-87783985D01*
X143679724Y-87769374D01*
X143663826Y-87738004D01*
X143660062Y-87705602D01*
X143660062Y-87484196D01*
X143658409Y-87447016D01*
X143652062Y-87410600D01*
X143643136Y-87387085D01*
X143617790Y-87362465D01*
X143581797Y-87354387D01*
X143575603Y-87354258D01*
X143541821Y-87359952D01*
X143514738Y-87374433D01*
X143489726Y-87400114D01*
X143474389Y-87429827D01*
X143468078Y-87464959D01*
X143465734Y-87502115D01*
X143465157Y-87539077D01*
X143465157Y-87705602D01*
X143460724Y-87740967D01*
X143444982Y-87770057D01*
X143415436Y-87788864D01*
X143393349Y-87791942D01*
X143359155Y-87783193D01*
X143342742Y-87769545D01*
X143326706Y-87738421D01*
X143322909Y-87706286D01*
X143322909Y-87325193D01*
X143327355Y-87290358D01*
X143340690Y-87265183D01*
X143371361Y-87246824D01*
X143389417Y-87244838D01*
X143423440Y-87253557D01*
X143447316Y-87278313D01*
X143447889Y-87279374D01*
X143456729Y-87313337D01*
X143456950Y-87320748D01*
G37*
G36*
X144060474Y-87325193D02*
G01*
X144060474Y-87706286D01*
X144056004Y-87741160D01*
X144040129Y-87770057D01*
X144010569Y-87788864D01*
X143988667Y-87791942D01*
X143954165Y-87783193D01*
X143937889Y-87769545D01*
X143922129Y-87738421D01*
X143918398Y-87706286D01*
X143918398Y-87329126D01*
X143922681Y-87294817D01*
X143937889Y-87266380D01*
X143966940Y-87247867D01*
X143988667Y-87244838D01*
X144023435Y-87253253D01*
X144040129Y-87266380D01*
X144057116Y-87297424D01*
X144060474Y-87325193D01*
G37*
G36*
X143990205Y-87190127D02*
G01*
X143955220Y-87182691D01*
X143939598Y-87172859D01*
X143920903Y-87144157D01*
X143918398Y-87124304D01*
X143927675Y-87091096D01*
X143939940Y-87077287D01*
X143971384Y-87061004D01*
X143990205Y-87058822D01*
X144024990Y-87066742D01*
X144038932Y-87075577D01*
X144057929Y-87104044D01*
X144060474Y-87124304D01*
X144052259Y-87157710D01*
X144039445Y-87172688D01*
X144008828Y-87188067D01*
X143990205Y-87190127D01*
G37*
G36*
X144459753Y-87246964D02*
G01*
X144494823Y-87253343D01*
X144530956Y-87265604D01*
X144556629Y-87278861D01*
X144586120Y-87299485D01*
X144611122Y-87323273D01*
X144633635Y-87353417D01*
X144641088Y-87366568D01*
X144655965Y-87400338D01*
X144665331Y-87434542D01*
X144669188Y-87469180D01*
X144669298Y-87476160D01*
X144665019Y-87511238D01*
X144645998Y-87541479D01*
X144638866Y-87546087D01*
X144605414Y-87557622D01*
X144568461Y-87561907D01*
X144555603Y-87562158D01*
X144304277Y-87562158D01*
X144308851Y-87597250D01*
X144321545Y-87630033D01*
X144342569Y-87659200D01*
X144366168Y-87677563D01*
X144399359Y-87690419D01*
X144427718Y-87693463D01*
X144461960Y-87690077D01*
X144469092Y-87688334D01*
X144501219Y-87674907D01*
X144505680Y-87672263D01*
X144533859Y-87652292D01*
X144538677Y-87648327D01*
X144565320Y-87625036D01*
X144578342Y-87613278D01*
X144610826Y-87603533D01*
X144644512Y-87613643D01*
X144647243Y-87615842D01*
X144661548Y-87647939D01*
X144661605Y-87650720D01*
X144652630Y-87683817D01*
X144646901Y-87694318D01*
X144624438Y-87722567D01*
X144603304Y-87740993D01*
X144573023Y-87760016D01*
X144541613Y-87773829D01*
X144530983Y-87777580D01*
X144496715Y-87786332D01*
X144462091Y-87790806D01*
X144431479Y-87791942D01*
X144392588Y-87790138D01*
X144356486Y-87784729D01*
X144323172Y-87775713D01*
X144286875Y-87760133D01*
X144254594Y-87739360D01*
X144230760Y-87718083D01*
X144206415Y-87688488D01*
X144187107Y-87655227D01*
X144172835Y-87618300D01*
X144164790Y-87584726D01*
X144160243Y-87548606D01*
X144159124Y-87517877D01*
X144160843Y-87481706D01*
X144161901Y-87474621D01*
X144304790Y-87474621D01*
X144530983Y-87474621D01*
X144524994Y-87437946D01*
X144511502Y-87405172D01*
X144496618Y-87385546D01*
X144469066Y-87365288D01*
X144435306Y-87355358D01*
X144417630Y-87354258D01*
X144382444Y-87359478D01*
X144350673Y-87376776D01*
X144340865Y-87385888D01*
X144320395Y-87415791D01*
X144308562Y-87450857D01*
X144304790Y-87474621D01*
X144161901Y-87474621D01*
X144166003Y-87447138D01*
X144175650Y-87410964D01*
X144176734Y-87407772D01*
X144190877Y-87374462D01*
X144208859Y-87344586D01*
X144228538Y-87320406D01*
X144253767Y-87297273D01*
X144282673Y-87278179D01*
X144312142Y-87264328D01*
X144347482Y-87253231D01*
X144381782Y-87247141D01*
X144418154Y-87244857D01*
X144421905Y-87244838D01*
X144459753Y-87246964D01*
G37*
G36*
X145174344Y-87141401D02*
G01*
X145174344Y-87378707D01*
X145445331Y-87091648D01*
X145469903Y-87067638D01*
X145480893Y-87058822D01*
X145513752Y-87048147D01*
X145521413Y-87047880D01*
X145556197Y-87054812D01*
X145574926Y-87067542D01*
X145593169Y-87097176D01*
X145595614Y-87115755D01*
X145587108Y-87149265D01*
X145565711Y-87178026D01*
X145561591Y-87182092D01*
X145391475Y-87344171D01*
X145588775Y-87628665D01*
X145608624Y-87658840D01*
X145621088Y-87682179D01*
X145631165Y-87715250D01*
X145632030Y-87727999D01*
X145621608Y-87761734D01*
X145611856Y-87772964D01*
X145581375Y-87789273D01*
X145557829Y-87791942D01*
X145522981Y-87786732D01*
X145506367Y-87778606D01*
X145481214Y-87755373D01*
X145473199Y-87744070D01*
X145455183Y-87714417D01*
X145449947Y-87705602D01*
X145284619Y-87455644D01*
X145174344Y-87559935D01*
X145174344Y-87700815D01*
X145170187Y-87736489D01*
X145153966Y-87767930D01*
X145152630Y-87769374D01*
X145122446Y-87788217D01*
X145096723Y-87791942D01*
X145063325Y-87783957D01*
X145058768Y-87781512D01*
X145033504Y-87757633D01*
X145030900Y-87753302D01*
X145022180Y-87720134D01*
X145020763Y-87685396D01*
X145020642Y-87667475D01*
X145020642Y-87140375D01*
X145024536Y-87104803D01*
X145039735Y-87072959D01*
X145040987Y-87071474D01*
X145070534Y-87051774D01*
X145096723Y-87047880D01*
X145131549Y-87055291D01*
X145152801Y-87071303D01*
X145169610Y-87102752D01*
X145174322Y-87138506D01*
X145174344Y-87141401D01*
G37*
G36*
X145993012Y-87246964D02*
G01*
X146028082Y-87253343D01*
X146064215Y-87265604D01*
X146089888Y-87278861D01*
X146119379Y-87299485D01*
X146144381Y-87323273D01*
X146166894Y-87353417D01*
X146174347Y-87366568D01*
X146189223Y-87400338D01*
X146198590Y-87434542D01*
X146202447Y-87469180D01*
X146202557Y-87476160D01*
X146198277Y-87511238D01*
X146179257Y-87541479D01*
X146172124Y-87546087D01*
X146138673Y-87557622D01*
X146101720Y-87561907D01*
X146088862Y-87562158D01*
X145837536Y-87562158D01*
X145842110Y-87597250D01*
X145854804Y-87630033D01*
X145875828Y-87659200D01*
X145899427Y-87677563D01*
X145932618Y-87690419D01*
X145960976Y-87693463D01*
X145995219Y-87690077D01*
X146002351Y-87688334D01*
X146034478Y-87674907D01*
X146038939Y-87672263D01*
X146067118Y-87652292D01*
X146071936Y-87648327D01*
X146098579Y-87625036D01*
X146111601Y-87613278D01*
X146144085Y-87603533D01*
X146177771Y-87613643D01*
X146180502Y-87615842D01*
X146194807Y-87647939D01*
X146194863Y-87650720D01*
X146185889Y-87683817D01*
X146180160Y-87694318D01*
X146157697Y-87722567D01*
X146136563Y-87740993D01*
X146106281Y-87760016D01*
X146074872Y-87773829D01*
X146064242Y-87777580D01*
X146029974Y-87786332D01*
X145995350Y-87790806D01*
X145964738Y-87791942D01*
X145925847Y-87790138D01*
X145889745Y-87784729D01*
X145856431Y-87775713D01*
X145820134Y-87760133D01*
X145787853Y-87739360D01*
X145764019Y-87718083D01*
X145739674Y-87688488D01*
X145720366Y-87655227D01*
X145706094Y-87618300D01*
X145698049Y-87584726D01*
X145693502Y-87548606D01*
X145692383Y-87517877D01*
X145694102Y-87481706D01*
X145695159Y-87474621D01*
X145838049Y-87474621D01*
X146064242Y-87474621D01*
X146058253Y-87437946D01*
X146044761Y-87405172D01*
X146029877Y-87385546D01*
X146002325Y-87365288D01*
X145968565Y-87355358D01*
X145950889Y-87354258D01*
X145915703Y-87359478D01*
X145883932Y-87376776D01*
X145874124Y-87385888D01*
X145853654Y-87415791D01*
X145841821Y-87450857D01*
X145838049Y-87474621D01*
X145695159Y-87474621D01*
X145699261Y-87447138D01*
X145708909Y-87410964D01*
X145709993Y-87407772D01*
X145724136Y-87374462D01*
X145742118Y-87344586D01*
X145761796Y-87320406D01*
X145787026Y-87297273D01*
X145815932Y-87278179D01*
X145845401Y-87264328D01*
X145880740Y-87253231D01*
X145915041Y-87247141D01*
X145951413Y-87244857D01*
X145955163Y-87244838D01*
X145993012Y-87246964D01*
G37*
G36*
X146280519Y-87706115D02*
G01*
X146280519Y-87133707D01*
X146284689Y-87098918D01*
X146299497Y-87069935D01*
X146328428Y-87050982D01*
X146350788Y-87047880D01*
X146384617Y-87055595D01*
X146402763Y-87069764D01*
X146418799Y-87100683D01*
X146422595Y-87133707D01*
X146422595Y-87706115D01*
X146418200Y-87741234D01*
X146402592Y-87770228D01*
X146372979Y-87788888D01*
X146350788Y-87791942D01*
X146316287Y-87783193D01*
X146300010Y-87769545D01*
X146284250Y-87738367D01*
X146280519Y-87706115D01*
G37*
G36*
X146545865Y-87706115D02*
G01*
X146545865Y-87133707D01*
X146550035Y-87098918D01*
X146564842Y-87069935D01*
X146593774Y-87050982D01*
X146616133Y-87047880D01*
X146649963Y-87055595D01*
X146668108Y-87069764D01*
X146684145Y-87100683D01*
X146687941Y-87133707D01*
X146687941Y-87706115D01*
X146683546Y-87741234D01*
X146667937Y-87770228D01*
X146638325Y-87788888D01*
X146616133Y-87791942D01*
X146581632Y-87783193D01*
X146565355Y-87769545D01*
X146549595Y-87738367D01*
X146545865Y-87706115D01*
G37*
G36*
X146932599Y-87803397D02*
G01*
X146944054Y-87775699D01*
X146783171Y-87367423D01*
X146771165Y-87334098D01*
X146767784Y-87313909D01*
X146776609Y-87280530D01*
X146777187Y-87279545D01*
X146801985Y-87254835D01*
X146803004Y-87254241D01*
X146836088Y-87244847D01*
X146837198Y-87244838D01*
X146871187Y-87253305D01*
X146883702Y-87264499D01*
X146901627Y-87294739D01*
X146910715Y-87318526D01*
X147016716Y-87627468D01*
X147116905Y-87341094D01*
X147128872Y-87308011D01*
X147139815Y-87282622D01*
X147160712Y-87254670D01*
X147163066Y-87253044D01*
X147196565Y-87244846D01*
X147197944Y-87244838D01*
X147229403Y-87253557D01*
X147252484Y-87277151D01*
X147260690Y-87308951D01*
X147254193Y-87335965D01*
X147243826Y-87369571D01*
X147243422Y-87370672D01*
X147072281Y-87821690D01*
X147058440Y-87856726D01*
X147043331Y-87889557D01*
X147028342Y-87916408D01*
X147006561Y-87943850D01*
X146979218Y-87965140D01*
X146970383Y-87970092D01*
X146937038Y-87982269D01*
X146902519Y-87987724D01*
X146873785Y-87988899D01*
X146836624Y-87987323D01*
X146801144Y-87981398D01*
X146783855Y-87975563D01*
X146758017Y-87951590D01*
X146752909Y-87925811D01*
X146763068Y-87892863D01*
X146768297Y-87887343D01*
X146800688Y-87874320D01*
X146812749Y-87873665D01*
X146834804Y-87876743D01*
X146854979Y-87879478D01*
X146887976Y-87873323D01*
X146909347Y-87851268D01*
X146925368Y-87820109D01*
X146932599Y-87803397D01*
G37*
D11*
X104000000Y-82369771D02*
X103800000Y-82084057D01*
X103657143Y-82369771D02*
X103657143Y-81769771D01*
X103657143Y-81769771D02*
X103885714Y-81769771D01*
X103885714Y-81769771D02*
X103942857Y-81798342D01*
X103942857Y-81798342D02*
X103971428Y-81826914D01*
X103971428Y-81826914D02*
X104000000Y-81884057D01*
X104000000Y-81884057D02*
X104000000Y-81969771D01*
X104000000Y-81969771D02*
X103971428Y-82026914D01*
X103971428Y-82026914D02*
X103942857Y-82055485D01*
X103942857Y-82055485D02*
X103885714Y-82084057D01*
X103885714Y-82084057D02*
X103657143Y-82084057D01*
X104342857Y-82026914D02*
X104285714Y-81998342D01*
X104285714Y-81998342D02*
X104257143Y-81969771D01*
X104257143Y-81969771D02*
X104228571Y-81912628D01*
X104228571Y-81912628D02*
X104228571Y-81884057D01*
X104228571Y-81884057D02*
X104257143Y-81826914D01*
X104257143Y-81826914D02*
X104285714Y-81798342D01*
X104285714Y-81798342D02*
X104342857Y-81769771D01*
X104342857Y-81769771D02*
X104457143Y-81769771D01*
X104457143Y-81769771D02*
X104514286Y-81798342D01*
X104514286Y-81798342D02*
X104542857Y-81826914D01*
X104542857Y-81826914D02*
X104571428Y-81884057D01*
X104571428Y-81884057D02*
X104571428Y-81912628D01*
X104571428Y-81912628D02*
X104542857Y-81969771D01*
X104542857Y-81969771D02*
X104514286Y-81998342D01*
X104514286Y-81998342D02*
X104457143Y-82026914D01*
X104457143Y-82026914D02*
X104342857Y-82026914D01*
X104342857Y-82026914D02*
X104285714Y-82055485D01*
X104285714Y-82055485D02*
X104257143Y-82084057D01*
X104257143Y-82084057D02*
X104228571Y-82141200D01*
X104228571Y-82141200D02*
X104228571Y-82255485D01*
X104228571Y-82255485D02*
X104257143Y-82312628D01*
X104257143Y-82312628D02*
X104285714Y-82341200D01*
X104285714Y-82341200D02*
X104342857Y-82369771D01*
X104342857Y-82369771D02*
X104457143Y-82369771D01*
X104457143Y-82369771D02*
X104514286Y-82341200D01*
X104514286Y-82341200D02*
X104542857Y-82312628D01*
X104542857Y-82312628D02*
X104571428Y-82255485D01*
X104571428Y-82255485D02*
X104571428Y-82141200D01*
X104571428Y-82141200D02*
X104542857Y-82084057D01*
X104542857Y-82084057D02*
X104514286Y-82055485D01*
X104514286Y-82055485D02*
X104457143Y-82026914D01*
X107269771Y-87699999D02*
X106984057Y-87899999D01*
X107269771Y-88042856D02*
X106669771Y-88042856D01*
X106669771Y-88042856D02*
X106669771Y-87814285D01*
X106669771Y-87814285D02*
X106698342Y-87757142D01*
X106698342Y-87757142D02*
X106726914Y-87728571D01*
X106726914Y-87728571D02*
X106784057Y-87699999D01*
X106784057Y-87699999D02*
X106869771Y-87699999D01*
X106869771Y-87699999D02*
X106926914Y-87728571D01*
X106926914Y-87728571D02*
X106955485Y-87757142D01*
X106955485Y-87757142D02*
X106984057Y-87814285D01*
X106984057Y-87814285D02*
X106984057Y-88042856D01*
X106669771Y-87157142D02*
X106669771Y-87442856D01*
X106669771Y-87442856D02*
X106955485Y-87471428D01*
X106955485Y-87471428D02*
X106926914Y-87442856D01*
X106926914Y-87442856D02*
X106898342Y-87385714D01*
X106898342Y-87385714D02*
X106898342Y-87242856D01*
X106898342Y-87242856D02*
X106926914Y-87185714D01*
X106926914Y-87185714D02*
X106955485Y-87157142D01*
X106955485Y-87157142D02*
X107012628Y-87128571D01*
X107012628Y-87128571D02*
X107155485Y-87128571D01*
X107155485Y-87128571D02*
X107212628Y-87157142D01*
X107212628Y-87157142D02*
X107241200Y-87185714D01*
X107241200Y-87185714D02*
X107269771Y-87242856D01*
X107269771Y-87242856D02*
X107269771Y-87385714D01*
X107269771Y-87385714D02*
X107241200Y-87442856D01*
X107241200Y-87442856D02*
X107212628Y-87471428D01*
X114100000Y-84312628D02*
X114071428Y-84341200D01*
X114071428Y-84341200D02*
X113985714Y-84369771D01*
X113985714Y-84369771D02*
X113928571Y-84369771D01*
X113928571Y-84369771D02*
X113842857Y-84341200D01*
X113842857Y-84341200D02*
X113785714Y-84284057D01*
X113785714Y-84284057D02*
X113757143Y-84226914D01*
X113757143Y-84226914D02*
X113728571Y-84112628D01*
X113728571Y-84112628D02*
X113728571Y-84026914D01*
X113728571Y-84026914D02*
X113757143Y-83912628D01*
X113757143Y-83912628D02*
X113785714Y-83855485D01*
X113785714Y-83855485D02*
X113842857Y-83798342D01*
X113842857Y-83798342D02*
X113928571Y-83769771D01*
X113928571Y-83769771D02*
X113985714Y-83769771D01*
X113985714Y-83769771D02*
X114071428Y-83798342D01*
X114071428Y-83798342D02*
X114100000Y-83826914D01*
X114300000Y-83769771D02*
X114671428Y-83769771D01*
X114671428Y-83769771D02*
X114471428Y-83998342D01*
X114471428Y-83998342D02*
X114557143Y-83998342D01*
X114557143Y-83998342D02*
X114614286Y-84026914D01*
X114614286Y-84026914D02*
X114642857Y-84055485D01*
X114642857Y-84055485D02*
X114671428Y-84112628D01*
X114671428Y-84112628D02*
X114671428Y-84255485D01*
X114671428Y-84255485D02*
X114642857Y-84312628D01*
X114642857Y-84312628D02*
X114614286Y-84341200D01*
X114614286Y-84341200D02*
X114557143Y-84369771D01*
X114557143Y-84369771D02*
X114385714Y-84369771D01*
X114385714Y-84369771D02*
X114328571Y-84341200D01*
X114328571Y-84341200D02*
X114300000Y-84312628D01*
X116469771Y-74599999D02*
X116184057Y-74799999D01*
X116469771Y-74942856D02*
X115869771Y-74942856D01*
X115869771Y-74942856D02*
X115869771Y-74714285D01*
X115869771Y-74714285D02*
X115898342Y-74657142D01*
X115898342Y-74657142D02*
X115926914Y-74628571D01*
X115926914Y-74628571D02*
X115984057Y-74599999D01*
X115984057Y-74599999D02*
X116069771Y-74599999D01*
X116069771Y-74599999D02*
X116126914Y-74628571D01*
X116126914Y-74628571D02*
X116155485Y-74657142D01*
X116155485Y-74657142D02*
X116184057Y-74714285D01*
X116184057Y-74714285D02*
X116184057Y-74942856D01*
X116469771Y-74028571D02*
X116469771Y-74371428D01*
X116469771Y-74199999D02*
X115869771Y-74199999D01*
X115869771Y-74199999D02*
X115955485Y-74257142D01*
X115955485Y-74257142D02*
X116012628Y-74314285D01*
X116012628Y-74314285D02*
X116041200Y-74371428D01*
X112869771Y-88099999D02*
X112584057Y-88299999D01*
X112869771Y-88442856D02*
X112269771Y-88442856D01*
X112269771Y-88442856D02*
X112269771Y-88214285D01*
X112269771Y-88214285D02*
X112298342Y-88157142D01*
X112298342Y-88157142D02*
X112326914Y-88128571D01*
X112326914Y-88128571D02*
X112384057Y-88099999D01*
X112384057Y-88099999D02*
X112469771Y-88099999D01*
X112469771Y-88099999D02*
X112526914Y-88128571D01*
X112526914Y-88128571D02*
X112555485Y-88157142D01*
X112555485Y-88157142D02*
X112584057Y-88214285D01*
X112584057Y-88214285D02*
X112584057Y-88442856D01*
X112269771Y-87899999D02*
X112269771Y-87499999D01*
X112269771Y-87499999D02*
X112869771Y-87757142D01*
X117469771Y-74599999D02*
X117184057Y-74799999D01*
X117469771Y-74942856D02*
X116869771Y-74942856D01*
X116869771Y-74942856D02*
X116869771Y-74714285D01*
X116869771Y-74714285D02*
X116898342Y-74657142D01*
X116898342Y-74657142D02*
X116926914Y-74628571D01*
X116926914Y-74628571D02*
X116984057Y-74599999D01*
X116984057Y-74599999D02*
X117069771Y-74599999D01*
X117069771Y-74599999D02*
X117126914Y-74628571D01*
X117126914Y-74628571D02*
X117155485Y-74657142D01*
X117155485Y-74657142D02*
X117184057Y-74714285D01*
X117184057Y-74714285D02*
X117184057Y-74942856D01*
X117069771Y-74085714D02*
X117469771Y-74085714D01*
X116841200Y-74228571D02*
X117269771Y-74371428D01*
X117269771Y-74371428D02*
X117269771Y-73999999D01*
X110600000Y-78069771D02*
X110400000Y-77784057D01*
X110257143Y-78069771D02*
X110257143Y-77469771D01*
X110257143Y-77469771D02*
X110485714Y-77469771D01*
X110485714Y-77469771D02*
X110542857Y-77498342D01*
X110542857Y-77498342D02*
X110571428Y-77526914D01*
X110571428Y-77526914D02*
X110600000Y-77584057D01*
X110600000Y-77584057D02*
X110600000Y-77669771D01*
X110600000Y-77669771D02*
X110571428Y-77726914D01*
X110571428Y-77726914D02*
X110542857Y-77755485D01*
X110542857Y-77755485D02*
X110485714Y-77784057D01*
X110485714Y-77784057D02*
X110257143Y-77784057D01*
X110828571Y-77526914D02*
X110857143Y-77498342D01*
X110857143Y-77498342D02*
X110914286Y-77469771D01*
X110914286Y-77469771D02*
X111057143Y-77469771D01*
X111057143Y-77469771D02*
X111114286Y-77498342D01*
X111114286Y-77498342D02*
X111142857Y-77526914D01*
X111142857Y-77526914D02*
X111171428Y-77584057D01*
X111171428Y-77584057D02*
X111171428Y-77641200D01*
X111171428Y-77641200D02*
X111142857Y-77726914D01*
X111142857Y-77726914D02*
X110800000Y-78069771D01*
X110800000Y-78069771D02*
X111171428Y-78069771D01*
X112614285Y-69812628D02*
X112585713Y-69841200D01*
X112585713Y-69841200D02*
X112499999Y-69869771D01*
X112499999Y-69869771D02*
X112442856Y-69869771D01*
X112442856Y-69869771D02*
X112357142Y-69841200D01*
X112357142Y-69841200D02*
X112299999Y-69784057D01*
X112299999Y-69784057D02*
X112271428Y-69726914D01*
X112271428Y-69726914D02*
X112242856Y-69612628D01*
X112242856Y-69612628D02*
X112242856Y-69526914D01*
X112242856Y-69526914D02*
X112271428Y-69412628D01*
X112271428Y-69412628D02*
X112299999Y-69355485D01*
X112299999Y-69355485D02*
X112357142Y-69298342D01*
X112357142Y-69298342D02*
X112442856Y-69269771D01*
X112442856Y-69269771D02*
X112499999Y-69269771D01*
X112499999Y-69269771D02*
X112585713Y-69298342D01*
X112585713Y-69298342D02*
X112614285Y-69326914D01*
X113185713Y-69869771D02*
X112842856Y-69869771D01*
X113014285Y-69869771D02*
X113014285Y-69269771D01*
X113014285Y-69269771D02*
X112957142Y-69355485D01*
X112957142Y-69355485D02*
X112899999Y-69412628D01*
X112899999Y-69412628D02*
X112842856Y-69441200D01*
X113557142Y-69269771D02*
X113614285Y-69269771D01*
X113614285Y-69269771D02*
X113671428Y-69298342D01*
X113671428Y-69298342D02*
X113700000Y-69326914D01*
X113700000Y-69326914D02*
X113728571Y-69384057D01*
X113728571Y-69384057D02*
X113757142Y-69498342D01*
X113757142Y-69498342D02*
X113757142Y-69641200D01*
X113757142Y-69641200D02*
X113728571Y-69755485D01*
X113728571Y-69755485D02*
X113700000Y-69812628D01*
X113700000Y-69812628D02*
X113671428Y-69841200D01*
X113671428Y-69841200D02*
X113614285Y-69869771D01*
X113614285Y-69869771D02*
X113557142Y-69869771D01*
X113557142Y-69869771D02*
X113500000Y-69841200D01*
X113500000Y-69841200D02*
X113471428Y-69812628D01*
X113471428Y-69812628D02*
X113442857Y-69755485D01*
X113442857Y-69755485D02*
X113414285Y-69641200D01*
X113414285Y-69641200D02*
X113414285Y-69498342D01*
X113414285Y-69498342D02*
X113442857Y-69384057D01*
X113442857Y-69384057D02*
X113471428Y-69326914D01*
X113471428Y-69326914D02*
X113500000Y-69298342D01*
X113500000Y-69298342D02*
X113557142Y-69269771D01*
X118214286Y-82269771D02*
X118214286Y-81669771D01*
X118214286Y-81669771D02*
X118414286Y-82098342D01*
X118414286Y-82098342D02*
X118614286Y-81669771D01*
X118614286Y-81669771D02*
X118614286Y-82269771D01*
X119214285Y-82269771D02*
X118871428Y-82269771D01*
X119042857Y-82269771D02*
X119042857Y-81669771D01*
X119042857Y-81669771D02*
X118985714Y-81755485D01*
X118985714Y-81755485D02*
X118928571Y-81812628D01*
X118928571Y-81812628D02*
X118871428Y-81841200D01*
X122900000Y-82769771D02*
X122614286Y-82769771D01*
X122614286Y-82769771D02*
X122614286Y-82169771D01*
X123414285Y-82769771D02*
X123071428Y-82769771D01*
X123242857Y-82769771D02*
X123242857Y-82169771D01*
X123242857Y-82169771D02*
X123185714Y-82255485D01*
X123185714Y-82255485D02*
X123128571Y-82312628D01*
X123128571Y-82312628D02*
X123071428Y-82341200D01*
X115412628Y-74599999D02*
X115441200Y-74628571D01*
X115441200Y-74628571D02*
X115469771Y-74714285D01*
X115469771Y-74714285D02*
X115469771Y-74771428D01*
X115469771Y-74771428D02*
X115441200Y-74857142D01*
X115441200Y-74857142D02*
X115384057Y-74914285D01*
X115384057Y-74914285D02*
X115326914Y-74942856D01*
X115326914Y-74942856D02*
X115212628Y-74971428D01*
X115212628Y-74971428D02*
X115126914Y-74971428D01*
X115126914Y-74971428D02*
X115012628Y-74942856D01*
X115012628Y-74942856D02*
X114955485Y-74914285D01*
X114955485Y-74914285D02*
X114898342Y-74857142D01*
X114898342Y-74857142D02*
X114869771Y-74771428D01*
X114869771Y-74771428D02*
X114869771Y-74714285D01*
X114869771Y-74714285D02*
X114898342Y-74628571D01*
X114898342Y-74628571D02*
X114926914Y-74599999D01*
X115069771Y-74085714D02*
X115469771Y-74085714D01*
X114841200Y-74228571D02*
X115269771Y-74371428D01*
X115269771Y-74371428D02*
X115269771Y-73999999D01*
X110025000Y-73094771D02*
X109825000Y-72809057D01*
X109682143Y-73094771D02*
X109682143Y-72494771D01*
X109682143Y-72494771D02*
X109910714Y-72494771D01*
X109910714Y-72494771D02*
X109967857Y-72523342D01*
X109967857Y-72523342D02*
X109996428Y-72551914D01*
X109996428Y-72551914D02*
X110025000Y-72609057D01*
X110025000Y-72609057D02*
X110025000Y-72694771D01*
X110025000Y-72694771D02*
X109996428Y-72751914D01*
X109996428Y-72751914D02*
X109967857Y-72780485D01*
X109967857Y-72780485D02*
X109910714Y-72809057D01*
X109910714Y-72809057D02*
X109682143Y-72809057D01*
X110310714Y-73094771D02*
X110425000Y-73094771D01*
X110425000Y-73094771D02*
X110482143Y-73066200D01*
X110482143Y-73066200D02*
X110510714Y-73037628D01*
X110510714Y-73037628D02*
X110567857Y-72951914D01*
X110567857Y-72951914D02*
X110596428Y-72837628D01*
X110596428Y-72837628D02*
X110596428Y-72609057D01*
X110596428Y-72609057D02*
X110567857Y-72551914D01*
X110567857Y-72551914D02*
X110539286Y-72523342D01*
X110539286Y-72523342D02*
X110482143Y-72494771D01*
X110482143Y-72494771D02*
X110367857Y-72494771D01*
X110367857Y-72494771D02*
X110310714Y-72523342D01*
X110310714Y-72523342D02*
X110282143Y-72551914D01*
X110282143Y-72551914D02*
X110253571Y-72609057D01*
X110253571Y-72609057D02*
X110253571Y-72751914D01*
X110253571Y-72751914D02*
X110282143Y-72809057D01*
X110282143Y-72809057D02*
X110310714Y-72837628D01*
X110310714Y-72837628D02*
X110367857Y-72866200D01*
X110367857Y-72866200D02*
X110482143Y-72866200D01*
X110482143Y-72866200D02*
X110539286Y-72837628D01*
X110539286Y-72837628D02*
X110567857Y-72809057D01*
X110567857Y-72809057D02*
X110596428Y-72751914D01*
X108400000Y-77012628D02*
X108371428Y-77041200D01*
X108371428Y-77041200D02*
X108285714Y-77069771D01*
X108285714Y-77069771D02*
X108228571Y-77069771D01*
X108228571Y-77069771D02*
X108142857Y-77041200D01*
X108142857Y-77041200D02*
X108085714Y-76984057D01*
X108085714Y-76984057D02*
X108057143Y-76926914D01*
X108057143Y-76926914D02*
X108028571Y-76812628D01*
X108028571Y-76812628D02*
X108028571Y-76726914D01*
X108028571Y-76726914D02*
X108057143Y-76612628D01*
X108057143Y-76612628D02*
X108085714Y-76555485D01*
X108085714Y-76555485D02*
X108142857Y-76498342D01*
X108142857Y-76498342D02*
X108228571Y-76469771D01*
X108228571Y-76469771D02*
X108285714Y-76469771D01*
X108285714Y-76469771D02*
X108371428Y-76498342D01*
X108371428Y-76498342D02*
X108400000Y-76526914D01*
X108685714Y-77069771D02*
X108800000Y-77069771D01*
X108800000Y-77069771D02*
X108857143Y-77041200D01*
X108857143Y-77041200D02*
X108885714Y-77012628D01*
X108885714Y-77012628D02*
X108942857Y-76926914D01*
X108942857Y-76926914D02*
X108971428Y-76812628D01*
X108971428Y-76812628D02*
X108971428Y-76584057D01*
X108971428Y-76584057D02*
X108942857Y-76526914D01*
X108942857Y-76526914D02*
X108914286Y-76498342D01*
X108914286Y-76498342D02*
X108857143Y-76469771D01*
X108857143Y-76469771D02*
X108742857Y-76469771D01*
X108742857Y-76469771D02*
X108685714Y-76498342D01*
X108685714Y-76498342D02*
X108657143Y-76526914D01*
X108657143Y-76526914D02*
X108628571Y-76584057D01*
X108628571Y-76584057D02*
X108628571Y-76726914D01*
X108628571Y-76726914D02*
X108657143Y-76784057D01*
X108657143Y-76784057D02*
X108685714Y-76812628D01*
X108685714Y-76812628D02*
X108742857Y-76841200D01*
X108742857Y-76841200D02*
X108857143Y-76841200D01*
X108857143Y-76841200D02*
X108914286Y-76812628D01*
X108914286Y-76812628D02*
X108942857Y-76784057D01*
X108942857Y-76784057D02*
X108971428Y-76726914D01*
X103414285Y-81369771D02*
X103214285Y-81084057D01*
X103071428Y-81369771D02*
X103071428Y-80769771D01*
X103071428Y-80769771D02*
X103299999Y-80769771D01*
X103299999Y-80769771D02*
X103357142Y-80798342D01*
X103357142Y-80798342D02*
X103385713Y-80826914D01*
X103385713Y-80826914D02*
X103414285Y-80884057D01*
X103414285Y-80884057D02*
X103414285Y-80969771D01*
X103414285Y-80969771D02*
X103385713Y-81026914D01*
X103385713Y-81026914D02*
X103357142Y-81055485D01*
X103357142Y-81055485D02*
X103299999Y-81084057D01*
X103299999Y-81084057D02*
X103071428Y-81084057D01*
X103985713Y-81369771D02*
X103642856Y-81369771D01*
X103814285Y-81369771D02*
X103814285Y-80769771D01*
X103814285Y-80769771D02*
X103757142Y-80855485D01*
X103757142Y-80855485D02*
X103699999Y-80912628D01*
X103699999Y-80912628D02*
X103642856Y-80941200D01*
X104357142Y-80769771D02*
X104414285Y-80769771D01*
X104414285Y-80769771D02*
X104471428Y-80798342D01*
X104471428Y-80798342D02*
X104500000Y-80826914D01*
X104500000Y-80826914D02*
X104528571Y-80884057D01*
X104528571Y-80884057D02*
X104557142Y-80998342D01*
X104557142Y-80998342D02*
X104557142Y-81141200D01*
X104557142Y-81141200D02*
X104528571Y-81255485D01*
X104528571Y-81255485D02*
X104500000Y-81312628D01*
X104500000Y-81312628D02*
X104471428Y-81341200D01*
X104471428Y-81341200D02*
X104414285Y-81369771D01*
X104414285Y-81369771D02*
X104357142Y-81369771D01*
X104357142Y-81369771D02*
X104300000Y-81341200D01*
X104300000Y-81341200D02*
X104271428Y-81312628D01*
X104271428Y-81312628D02*
X104242857Y-81255485D01*
X104242857Y-81255485D02*
X104214285Y-81141200D01*
X104214285Y-81141200D02*
X104214285Y-80998342D01*
X104214285Y-80998342D02*
X104242857Y-80884057D01*
X104242857Y-80884057D02*
X104271428Y-80826914D01*
X104271428Y-80826914D02*
X104300000Y-80798342D01*
X104300000Y-80798342D02*
X104357142Y-80769771D01*
X110712628Y-88099999D02*
X110741200Y-88128571D01*
X110741200Y-88128571D02*
X110769771Y-88214285D01*
X110769771Y-88214285D02*
X110769771Y-88271428D01*
X110769771Y-88271428D02*
X110741200Y-88357142D01*
X110741200Y-88357142D02*
X110684057Y-88414285D01*
X110684057Y-88414285D02*
X110626914Y-88442856D01*
X110626914Y-88442856D02*
X110512628Y-88471428D01*
X110512628Y-88471428D02*
X110426914Y-88471428D01*
X110426914Y-88471428D02*
X110312628Y-88442856D01*
X110312628Y-88442856D02*
X110255485Y-88414285D01*
X110255485Y-88414285D02*
X110198342Y-88357142D01*
X110198342Y-88357142D02*
X110169771Y-88271428D01*
X110169771Y-88271428D02*
X110169771Y-88214285D01*
X110169771Y-88214285D02*
X110198342Y-88128571D01*
X110198342Y-88128571D02*
X110226914Y-88099999D01*
X110169771Y-87557142D02*
X110169771Y-87842856D01*
X110169771Y-87842856D02*
X110455485Y-87871428D01*
X110455485Y-87871428D02*
X110426914Y-87842856D01*
X110426914Y-87842856D02*
X110398342Y-87785714D01*
X110398342Y-87785714D02*
X110398342Y-87642856D01*
X110398342Y-87642856D02*
X110426914Y-87585714D01*
X110426914Y-87585714D02*
X110455485Y-87557142D01*
X110455485Y-87557142D02*
X110512628Y-87528571D01*
X110512628Y-87528571D02*
X110655485Y-87528571D01*
X110655485Y-87528571D02*
X110712628Y-87557142D01*
X110712628Y-87557142D02*
X110741200Y-87585714D01*
X110741200Y-87585714D02*
X110769771Y-87642856D01*
X110769771Y-87642856D02*
X110769771Y-87785714D01*
X110769771Y-87785714D02*
X110741200Y-87842856D01*
X110741200Y-87842856D02*
X110712628Y-87871428D01*
X108042857Y-77769771D02*
X108042857Y-78255485D01*
X108042857Y-78255485D02*
X108071428Y-78312628D01*
X108071428Y-78312628D02*
X108100000Y-78341200D01*
X108100000Y-78341200D02*
X108157142Y-78369771D01*
X108157142Y-78369771D02*
X108271428Y-78369771D01*
X108271428Y-78369771D02*
X108328571Y-78341200D01*
X108328571Y-78341200D02*
X108357142Y-78312628D01*
X108357142Y-78312628D02*
X108385714Y-78255485D01*
X108385714Y-78255485D02*
X108385714Y-77769771D01*
X108985713Y-78369771D02*
X108642856Y-78369771D01*
X108814285Y-78369771D02*
X108814285Y-77769771D01*
X108814285Y-77769771D02*
X108757142Y-77855485D01*
X108757142Y-77855485D02*
X108699999Y-77912628D01*
X108699999Y-77912628D02*
X108642856Y-77941200D01*
X107412628Y-82299999D02*
X107441200Y-82328571D01*
X107441200Y-82328571D02*
X107469771Y-82414285D01*
X107469771Y-82414285D02*
X107469771Y-82471428D01*
X107469771Y-82471428D02*
X107441200Y-82557142D01*
X107441200Y-82557142D02*
X107384057Y-82614285D01*
X107384057Y-82614285D02*
X107326914Y-82642856D01*
X107326914Y-82642856D02*
X107212628Y-82671428D01*
X107212628Y-82671428D02*
X107126914Y-82671428D01*
X107126914Y-82671428D02*
X107012628Y-82642856D01*
X107012628Y-82642856D02*
X106955485Y-82614285D01*
X106955485Y-82614285D02*
X106898342Y-82557142D01*
X106898342Y-82557142D02*
X106869771Y-82471428D01*
X106869771Y-82471428D02*
X106869771Y-82414285D01*
X106869771Y-82414285D02*
X106898342Y-82328571D01*
X106898342Y-82328571D02*
X106926914Y-82299999D01*
X107126914Y-81957142D02*
X107098342Y-82014285D01*
X107098342Y-82014285D02*
X107069771Y-82042856D01*
X107069771Y-82042856D02*
X107012628Y-82071428D01*
X107012628Y-82071428D02*
X106984057Y-82071428D01*
X106984057Y-82071428D02*
X106926914Y-82042856D01*
X106926914Y-82042856D02*
X106898342Y-82014285D01*
X106898342Y-82014285D02*
X106869771Y-81957142D01*
X106869771Y-81957142D02*
X106869771Y-81842856D01*
X106869771Y-81842856D02*
X106898342Y-81785714D01*
X106898342Y-81785714D02*
X106926914Y-81757142D01*
X106926914Y-81757142D02*
X106984057Y-81728571D01*
X106984057Y-81728571D02*
X107012628Y-81728571D01*
X107012628Y-81728571D02*
X107069771Y-81757142D01*
X107069771Y-81757142D02*
X107098342Y-81785714D01*
X107098342Y-81785714D02*
X107126914Y-81842856D01*
X107126914Y-81842856D02*
X107126914Y-81957142D01*
X107126914Y-81957142D02*
X107155485Y-82014285D01*
X107155485Y-82014285D02*
X107184057Y-82042856D01*
X107184057Y-82042856D02*
X107241200Y-82071428D01*
X107241200Y-82071428D02*
X107355485Y-82071428D01*
X107355485Y-82071428D02*
X107412628Y-82042856D01*
X107412628Y-82042856D02*
X107441200Y-82014285D01*
X107441200Y-82014285D02*
X107469771Y-81957142D01*
X107469771Y-81957142D02*
X107469771Y-81842856D01*
X107469771Y-81842856D02*
X107441200Y-81785714D01*
X107441200Y-81785714D02*
X107412628Y-81757142D01*
X107412628Y-81757142D02*
X107355485Y-81728571D01*
X107355485Y-81728571D02*
X107241200Y-81728571D01*
X107241200Y-81728571D02*
X107184057Y-81757142D01*
X107184057Y-81757142D02*
X107155485Y-81785714D01*
X107155485Y-81785714D02*
X107126914Y-81842856D01*
X114100000Y-83412628D02*
X114071428Y-83441200D01*
X114071428Y-83441200D02*
X113985714Y-83469771D01*
X113985714Y-83469771D02*
X113928571Y-83469771D01*
X113928571Y-83469771D02*
X113842857Y-83441200D01*
X113842857Y-83441200D02*
X113785714Y-83384057D01*
X113785714Y-83384057D02*
X113757143Y-83326914D01*
X113757143Y-83326914D02*
X113728571Y-83212628D01*
X113728571Y-83212628D02*
X113728571Y-83126914D01*
X113728571Y-83126914D02*
X113757143Y-83012628D01*
X113757143Y-83012628D02*
X113785714Y-82955485D01*
X113785714Y-82955485D02*
X113842857Y-82898342D01*
X113842857Y-82898342D02*
X113928571Y-82869771D01*
X113928571Y-82869771D02*
X113985714Y-82869771D01*
X113985714Y-82869771D02*
X114071428Y-82898342D01*
X114071428Y-82898342D02*
X114100000Y-82926914D01*
X114614286Y-82869771D02*
X114500000Y-82869771D01*
X114500000Y-82869771D02*
X114442857Y-82898342D01*
X114442857Y-82898342D02*
X114414286Y-82926914D01*
X114414286Y-82926914D02*
X114357143Y-83012628D01*
X114357143Y-83012628D02*
X114328571Y-83126914D01*
X114328571Y-83126914D02*
X114328571Y-83355485D01*
X114328571Y-83355485D02*
X114357143Y-83412628D01*
X114357143Y-83412628D02*
X114385714Y-83441200D01*
X114385714Y-83441200D02*
X114442857Y-83469771D01*
X114442857Y-83469771D02*
X114557143Y-83469771D01*
X114557143Y-83469771D02*
X114614286Y-83441200D01*
X114614286Y-83441200D02*
X114642857Y-83412628D01*
X114642857Y-83412628D02*
X114671428Y-83355485D01*
X114671428Y-83355485D02*
X114671428Y-83212628D01*
X114671428Y-83212628D02*
X114642857Y-83155485D01*
X114642857Y-83155485D02*
X114614286Y-83126914D01*
X114614286Y-83126914D02*
X114557143Y-83098342D01*
X114557143Y-83098342D02*
X114442857Y-83098342D01*
X114442857Y-83098342D02*
X114385714Y-83126914D01*
X114385714Y-83126914D02*
X114357143Y-83155485D01*
X114357143Y-83155485D02*
X114328571Y-83212628D01*
X104000000Y-79312628D02*
X103971428Y-79341200D01*
X103971428Y-79341200D02*
X103885714Y-79369771D01*
X103885714Y-79369771D02*
X103828571Y-79369771D01*
X103828571Y-79369771D02*
X103742857Y-79341200D01*
X103742857Y-79341200D02*
X103685714Y-79284057D01*
X103685714Y-79284057D02*
X103657143Y-79226914D01*
X103657143Y-79226914D02*
X103628571Y-79112628D01*
X103628571Y-79112628D02*
X103628571Y-79026914D01*
X103628571Y-79026914D02*
X103657143Y-78912628D01*
X103657143Y-78912628D02*
X103685714Y-78855485D01*
X103685714Y-78855485D02*
X103742857Y-78798342D01*
X103742857Y-78798342D02*
X103828571Y-78769771D01*
X103828571Y-78769771D02*
X103885714Y-78769771D01*
X103885714Y-78769771D02*
X103971428Y-78798342D01*
X103971428Y-78798342D02*
X104000000Y-78826914D01*
X104228571Y-78826914D02*
X104257143Y-78798342D01*
X104257143Y-78798342D02*
X104314286Y-78769771D01*
X104314286Y-78769771D02*
X104457143Y-78769771D01*
X104457143Y-78769771D02*
X104514286Y-78798342D01*
X104514286Y-78798342D02*
X104542857Y-78826914D01*
X104542857Y-78826914D02*
X104571428Y-78884057D01*
X104571428Y-78884057D02*
X104571428Y-78941200D01*
X104571428Y-78941200D02*
X104542857Y-79026914D01*
X104542857Y-79026914D02*
X104200000Y-79369771D01*
X104200000Y-79369771D02*
X104571428Y-79369771D01*
X104000000Y-80412628D02*
X103971428Y-80441200D01*
X103971428Y-80441200D02*
X103885714Y-80469771D01*
X103885714Y-80469771D02*
X103828571Y-80469771D01*
X103828571Y-80469771D02*
X103742857Y-80441200D01*
X103742857Y-80441200D02*
X103685714Y-80384057D01*
X103685714Y-80384057D02*
X103657143Y-80326914D01*
X103657143Y-80326914D02*
X103628571Y-80212628D01*
X103628571Y-80212628D02*
X103628571Y-80126914D01*
X103628571Y-80126914D02*
X103657143Y-80012628D01*
X103657143Y-80012628D02*
X103685714Y-79955485D01*
X103685714Y-79955485D02*
X103742857Y-79898342D01*
X103742857Y-79898342D02*
X103828571Y-79869771D01*
X103828571Y-79869771D02*
X103885714Y-79869771D01*
X103885714Y-79869771D02*
X103971428Y-79898342D01*
X103971428Y-79898342D02*
X104000000Y-79926914D01*
X104200000Y-79869771D02*
X104600000Y-79869771D01*
X104600000Y-79869771D02*
X104342857Y-80469771D01*
X107914285Y-75869771D02*
X107714285Y-75584057D01*
X107571428Y-75869771D02*
X107571428Y-75269771D01*
X107571428Y-75269771D02*
X107799999Y-75269771D01*
X107799999Y-75269771D02*
X107857142Y-75298342D01*
X107857142Y-75298342D02*
X107885713Y-75326914D01*
X107885713Y-75326914D02*
X107914285Y-75384057D01*
X107914285Y-75384057D02*
X107914285Y-75469771D01*
X107914285Y-75469771D02*
X107885713Y-75526914D01*
X107885713Y-75526914D02*
X107857142Y-75555485D01*
X107857142Y-75555485D02*
X107799999Y-75584057D01*
X107799999Y-75584057D02*
X107571428Y-75584057D01*
X108485713Y-75869771D02*
X108142856Y-75869771D01*
X108314285Y-75869771D02*
X108314285Y-75269771D01*
X108314285Y-75269771D02*
X108257142Y-75355485D01*
X108257142Y-75355485D02*
X108199999Y-75412628D01*
X108199999Y-75412628D02*
X108142856Y-75441200D01*
X109057142Y-75869771D02*
X108714285Y-75869771D01*
X108885714Y-75869771D02*
X108885714Y-75269771D01*
X108885714Y-75269771D02*
X108828571Y-75355485D01*
X108828571Y-75355485D02*
X108771428Y-75412628D01*
X108771428Y-75412628D02*
X108714285Y-75441200D01*
X104000000Y-78069771D02*
X103800000Y-77784057D01*
X103657143Y-78069771D02*
X103657143Y-77469771D01*
X103657143Y-77469771D02*
X103885714Y-77469771D01*
X103885714Y-77469771D02*
X103942857Y-77498342D01*
X103942857Y-77498342D02*
X103971428Y-77526914D01*
X103971428Y-77526914D02*
X104000000Y-77584057D01*
X104000000Y-77584057D02*
X104000000Y-77669771D01*
X104000000Y-77669771D02*
X103971428Y-77726914D01*
X103971428Y-77726914D02*
X103942857Y-77755485D01*
X103942857Y-77755485D02*
X103885714Y-77784057D01*
X103885714Y-77784057D02*
X103657143Y-77784057D01*
X104200000Y-77469771D02*
X104571428Y-77469771D01*
X104571428Y-77469771D02*
X104371428Y-77698342D01*
X104371428Y-77698342D02*
X104457143Y-77698342D01*
X104457143Y-77698342D02*
X104514286Y-77726914D01*
X104514286Y-77726914D02*
X104542857Y-77755485D01*
X104542857Y-77755485D02*
X104571428Y-77812628D01*
X104571428Y-77812628D02*
X104571428Y-77955485D01*
X104571428Y-77955485D02*
X104542857Y-78012628D01*
X104542857Y-78012628D02*
X104514286Y-78041200D01*
X104514286Y-78041200D02*
X104457143Y-78069771D01*
X104457143Y-78069771D02*
X104285714Y-78069771D01*
X104285714Y-78069771D02*
X104228571Y-78041200D01*
X104228571Y-78041200D02*
X104200000Y-78012628D01*
X108869771Y-87699999D02*
X108584057Y-87899999D01*
X108869771Y-88042856D02*
X108269771Y-88042856D01*
X108269771Y-88042856D02*
X108269771Y-87814285D01*
X108269771Y-87814285D02*
X108298342Y-87757142D01*
X108298342Y-87757142D02*
X108326914Y-87728571D01*
X108326914Y-87728571D02*
X108384057Y-87699999D01*
X108384057Y-87699999D02*
X108469771Y-87699999D01*
X108469771Y-87699999D02*
X108526914Y-87728571D01*
X108526914Y-87728571D02*
X108555485Y-87757142D01*
X108555485Y-87757142D02*
X108584057Y-87814285D01*
X108584057Y-87814285D02*
X108584057Y-88042856D01*
X108269771Y-87185714D02*
X108269771Y-87299999D01*
X108269771Y-87299999D02*
X108298342Y-87357142D01*
X108298342Y-87357142D02*
X108326914Y-87385714D01*
X108326914Y-87385714D02*
X108412628Y-87442856D01*
X108412628Y-87442856D02*
X108526914Y-87471428D01*
X108526914Y-87471428D02*
X108755485Y-87471428D01*
X108755485Y-87471428D02*
X108812628Y-87442856D01*
X108812628Y-87442856D02*
X108841200Y-87414285D01*
X108841200Y-87414285D02*
X108869771Y-87357142D01*
X108869771Y-87357142D02*
X108869771Y-87242856D01*
X108869771Y-87242856D02*
X108841200Y-87185714D01*
X108841200Y-87185714D02*
X108812628Y-87157142D01*
X108812628Y-87157142D02*
X108755485Y-87128571D01*
X108755485Y-87128571D02*
X108612628Y-87128571D01*
X108612628Y-87128571D02*
X108555485Y-87157142D01*
X108555485Y-87157142D02*
X108526914Y-87185714D01*
X108526914Y-87185714D02*
X108498342Y-87242856D01*
X108498342Y-87242856D02*
X108498342Y-87357142D01*
X108498342Y-87357142D02*
X108526914Y-87414285D01*
X108526914Y-87414285D02*
X108555485Y-87442856D01*
X108555485Y-87442856D02*
X108612628Y-87471428D01*
X121014286Y-80169771D02*
X121014286Y-79569771D01*
X121014286Y-79569771D02*
X121214286Y-79998342D01*
X121214286Y-79998342D02*
X121414286Y-79569771D01*
X121414286Y-79569771D02*
X121414286Y-80169771D01*
X121671428Y-79626914D02*
X121700000Y-79598342D01*
X121700000Y-79598342D02*
X121757143Y-79569771D01*
X121757143Y-79569771D02*
X121900000Y-79569771D01*
X121900000Y-79569771D02*
X121957143Y-79598342D01*
X121957143Y-79598342D02*
X121985714Y-79626914D01*
X121985714Y-79626914D02*
X122014285Y-79684057D01*
X122014285Y-79684057D02*
X122014285Y-79741200D01*
X122014285Y-79741200D02*
X121985714Y-79826914D01*
X121985714Y-79826914D02*
X121642857Y-80169771D01*
X121642857Y-80169771D02*
X122014285Y-80169771D01*
X119700000Y-69812628D02*
X119671428Y-69841200D01*
X119671428Y-69841200D02*
X119585714Y-69869771D01*
X119585714Y-69869771D02*
X119528571Y-69869771D01*
X119528571Y-69869771D02*
X119442857Y-69841200D01*
X119442857Y-69841200D02*
X119385714Y-69784057D01*
X119385714Y-69784057D02*
X119357143Y-69726914D01*
X119357143Y-69726914D02*
X119328571Y-69612628D01*
X119328571Y-69612628D02*
X119328571Y-69526914D01*
X119328571Y-69526914D02*
X119357143Y-69412628D01*
X119357143Y-69412628D02*
X119385714Y-69355485D01*
X119385714Y-69355485D02*
X119442857Y-69298342D01*
X119442857Y-69298342D02*
X119528571Y-69269771D01*
X119528571Y-69269771D02*
X119585714Y-69269771D01*
X119585714Y-69269771D02*
X119671428Y-69298342D01*
X119671428Y-69298342D02*
X119700000Y-69326914D01*
X120271428Y-69869771D02*
X119928571Y-69869771D01*
X120100000Y-69869771D02*
X120100000Y-69269771D01*
X120100000Y-69269771D02*
X120042857Y-69355485D01*
X120042857Y-69355485D02*
X119985714Y-69412628D01*
X119985714Y-69412628D02*
X119928571Y-69441200D01*
D12*
%TO.C,G\u002A\u002A\u002A*%
X139185513Y-85824043D02*
X139323354Y-85843560D01*
X139417820Y-85871489D01*
X139452693Y-85904340D01*
X139451850Y-85909275D01*
X139430834Y-85939534D01*
X139382861Y-85953859D01*
X139291932Y-85953565D01*
X139142044Y-85939968D01*
X139114727Y-85936999D01*
X138985124Y-85913427D01*
X138905556Y-85881597D01*
X138882270Y-85849503D01*
X138921514Y-85825140D01*
X139020513Y-85816430D01*
X139185513Y-85824043D01*
G36*
X139185513Y-85824043D02*
G01*
X139323354Y-85843560D01*
X139417820Y-85871489D01*
X139452693Y-85904340D01*
X139451850Y-85909275D01*
X139430834Y-85939534D01*
X139382861Y-85953859D01*
X139291932Y-85953565D01*
X139142044Y-85939968D01*
X139114727Y-85936999D01*
X138985124Y-85913427D01*
X138905556Y-85881597D01*
X138882270Y-85849503D01*
X138921514Y-85825140D01*
X139020513Y-85816430D01*
X139185513Y-85824043D01*
G37*
X138717539Y-82504092D02*
X138736549Y-82547810D01*
X138730487Y-82592154D01*
X138698646Y-82665023D01*
X138625194Y-82689132D01*
X138599137Y-82689847D01*
X138518802Y-82679063D01*
X138486462Y-82653966D01*
X138516379Y-82549231D01*
X138601101Y-82498200D01*
X138641531Y-82494462D01*
X138717539Y-82504092D01*
G36*
X138717539Y-82504092D02*
G01*
X138736549Y-82547810D01*
X138730487Y-82592154D01*
X138698646Y-82665023D01*
X138625194Y-82689132D01*
X138599137Y-82689847D01*
X138518802Y-82679063D01*
X138486462Y-82653966D01*
X138516379Y-82549231D01*
X138601101Y-82498200D01*
X138641531Y-82494462D01*
X138717539Y-82504092D01*
G37*
X139023701Y-82540945D02*
X139119188Y-82554260D01*
X139157705Y-82585992D01*
X139160414Y-82656352D01*
X139159152Y-82670308D01*
X139141028Y-82793918D01*
X139105141Y-82858279D01*
X139033676Y-82882297D01*
X138956611Y-82885231D01*
X138853472Y-82878550D01*
X138807767Y-82852089D01*
X138799077Y-82809621D01*
X138812927Y-82715526D01*
X138838085Y-82631412D01*
X138875097Y-82563689D01*
X138934242Y-82538920D01*
X139023701Y-82540945D01*
G36*
X139023701Y-82540945D02*
G01*
X139119188Y-82554260D01*
X139157705Y-82585992D01*
X139160414Y-82656352D01*
X139159152Y-82670308D01*
X139141028Y-82793918D01*
X139105141Y-82858279D01*
X139033676Y-82882297D01*
X138956611Y-82885231D01*
X138853472Y-82878550D01*
X138807767Y-82852089D01*
X138799077Y-82809621D01*
X138812927Y-82715526D01*
X138838085Y-82631412D01*
X138875097Y-82563689D01*
X138934242Y-82538920D01*
X139023701Y-82540945D01*
G37*
X138652315Y-82859483D02*
X138681227Y-82907432D01*
X138681846Y-82921112D01*
X138664144Y-83041874D01*
X138603352Y-83103800D01*
X138501075Y-83119693D01*
X138412506Y-83114470D01*
X138382787Y-83086024D01*
X138392722Y-83015192D01*
X138393428Y-83012231D01*
X138423025Y-82908528D01*
X138460338Y-82860433D01*
X138527516Y-82846745D01*
X138566922Y-82846154D01*
X138652315Y-82859483D01*
G36*
X138652315Y-82859483D02*
G01*
X138681227Y-82907432D01*
X138681846Y-82921112D01*
X138664144Y-83041874D01*
X138603352Y-83103800D01*
X138501075Y-83119693D01*
X138412506Y-83114470D01*
X138382787Y-83086024D01*
X138392722Y-83015192D01*
X138393428Y-83012231D01*
X138423025Y-82908528D01*
X138460338Y-82860433D01*
X138527516Y-82846745D01*
X138566922Y-82846154D01*
X138652315Y-82859483D01*
G37*
X139212075Y-83244448D02*
X139193294Y-83365422D01*
X139174637Y-83453340D01*
X139165658Y-83478909D01*
X139119169Y-83495651D01*
X139018267Y-83507092D01*
X138910567Y-83510462D01*
X138674977Y-83510462D01*
X138700805Y-83344385D01*
X138725808Y-83193176D01*
X138753138Y-83103123D01*
X138798552Y-83058389D01*
X138877805Y-83043140D01*
X139002129Y-83041539D01*
X139238992Y-83041539D01*
X139212075Y-83244448D01*
G36*
X139212075Y-83244448D02*
G01*
X139193294Y-83365422D01*
X139174637Y-83453340D01*
X139165658Y-83478909D01*
X139119169Y-83495651D01*
X139018267Y-83507092D01*
X138910567Y-83510462D01*
X138674977Y-83510462D01*
X138700805Y-83344385D01*
X138725808Y-83193176D01*
X138753138Y-83103123D01*
X138798552Y-83058389D01*
X138877805Y-83043140D01*
X139002129Y-83041539D01*
X139238992Y-83041539D01*
X139212075Y-83244448D01*
G37*
X139665795Y-83677888D02*
X139776000Y-83705847D01*
X139825521Y-83725256D01*
X139812236Y-83735587D01*
X139729073Y-83740479D01*
X139707616Y-83741028D01*
X139606248Y-83735228D01*
X139547467Y-83716039D01*
X139541539Y-83705847D01*
X139574685Y-83674958D01*
X139665795Y-83677888D01*
G36*
X139665795Y-83677888D02*
G01*
X139776000Y-83705847D01*
X139825521Y-83725256D01*
X139812236Y-83735587D01*
X139729073Y-83740479D01*
X139707616Y-83741028D01*
X139606248Y-83735228D01*
X139547467Y-83716039D01*
X139541539Y-83705847D01*
X139574685Y-83674958D01*
X139665795Y-83677888D01*
G37*
X138538024Y-83602874D02*
X138621805Y-83681466D01*
X138749560Y-83713217D01*
X138850137Y-83731348D01*
X138884736Y-83767024D01*
X138883528Y-83784000D01*
X138853449Y-83911241D01*
X138816937Y-84057359D01*
X138779293Y-84202232D01*
X138745819Y-84325735D01*
X138721814Y-84407748D01*
X138713420Y-84429760D01*
X138677713Y-84415798D01*
X138598373Y-84366343D01*
X138515301Y-84308371D01*
X138414333Y-84223852D01*
X138348287Y-84146720D01*
X138332407Y-84106005D01*
X138343056Y-84035272D01*
X138368814Y-83915151D01*
X138404108Y-83771622D01*
X138404179Y-83771350D01*
X138473698Y-83504700D01*
X138538024Y-83602874D01*
G36*
X138538024Y-83602874D02*
G01*
X138621805Y-83681466D01*
X138749560Y-83713217D01*
X138850137Y-83731348D01*
X138884736Y-83767024D01*
X138883528Y-83784000D01*
X138853449Y-83911241D01*
X138816937Y-84057359D01*
X138779293Y-84202232D01*
X138745819Y-84325735D01*
X138721814Y-84407748D01*
X138713420Y-84429760D01*
X138677713Y-84415798D01*
X138598373Y-84366343D01*
X138515301Y-84308371D01*
X138414333Y-84223852D01*
X138348287Y-84146720D01*
X138332407Y-84106005D01*
X138343056Y-84035272D01*
X138368814Y-83915151D01*
X138404108Y-83771622D01*
X138404179Y-83771350D01*
X138473698Y-83504700D01*
X138538024Y-83602874D01*
G37*
X137909907Y-83361677D02*
X137966141Y-83368188D01*
X137957179Y-83379409D01*
X137910318Y-83392247D01*
X137759316Y-83449025D01*
X137680926Y-83533060D01*
X137673003Y-83648808D01*
X137723151Y-83781467D01*
X137827219Y-83922518D01*
X138001579Y-84082942D01*
X138241664Y-84259656D01*
X138542908Y-84449574D01*
X138900745Y-84649614D01*
X139310609Y-84856693D01*
X139326901Y-84864540D01*
X139495709Y-84946897D01*
X139635552Y-85017378D01*
X139733166Y-85069131D01*
X139775287Y-85095303D01*
X139776000Y-85096554D01*
X139776360Y-85105467D01*
X139768623Y-85108250D01*
X139739566Y-85100712D01*
X139675968Y-85078660D01*
X139564605Y-85037904D01*
X139404769Y-84978871D01*
X139224473Y-84910837D01*
X139047495Y-84841580D01*
X138903441Y-84782763D01*
X138864222Y-84765899D01*
X138742972Y-84713259D01*
X138676750Y-84689959D01*
X138648917Y-84694157D01*
X138642837Y-84724011D01*
X138642769Y-84741385D01*
X138631549Y-84785834D01*
X138589311Y-84794617D01*
X138503186Y-84766344D01*
X138389815Y-84714060D01*
X138278151Y-84650792D01*
X138224539Y-84591363D01*
X138211846Y-84528445D01*
X138195831Y-84463052D01*
X138140718Y-84395758D01*
X138033667Y-84312735D01*
X137974089Y-84272462D01*
X137789973Y-84136989D01*
X137624338Y-83989375D01*
X137488756Y-83842384D01*
X137394800Y-83708781D01*
X137354042Y-83601330D01*
X137353231Y-83587683D01*
X137379084Y-83477163D01*
X137460618Y-83404322D01*
X137603792Y-83365969D01*
X137782003Y-83358154D01*
X137909907Y-83361677D01*
G36*
X137909907Y-83361677D02*
G01*
X137966141Y-83368188D01*
X137957179Y-83379409D01*
X137910318Y-83392247D01*
X137759316Y-83449025D01*
X137680926Y-83533060D01*
X137673003Y-83648808D01*
X137723151Y-83781467D01*
X137827219Y-83922518D01*
X138001579Y-84082942D01*
X138241664Y-84259656D01*
X138542908Y-84449574D01*
X138900745Y-84649614D01*
X139310609Y-84856693D01*
X139326901Y-84864540D01*
X139495709Y-84946897D01*
X139635552Y-85017378D01*
X139733166Y-85069131D01*
X139775287Y-85095303D01*
X139776000Y-85096554D01*
X139776360Y-85105467D01*
X139768623Y-85108250D01*
X139739566Y-85100712D01*
X139675968Y-85078660D01*
X139564605Y-85037904D01*
X139404769Y-84978871D01*
X139224473Y-84910837D01*
X139047495Y-84841580D01*
X138903441Y-84782763D01*
X138864222Y-84765899D01*
X138742972Y-84713259D01*
X138676750Y-84689959D01*
X138648917Y-84694157D01*
X138642837Y-84724011D01*
X138642769Y-84741385D01*
X138631549Y-84785834D01*
X138589311Y-84794617D01*
X138503186Y-84766344D01*
X138389815Y-84714060D01*
X138278151Y-84650792D01*
X138224539Y-84591363D01*
X138211846Y-84528445D01*
X138195831Y-84463052D01*
X138140718Y-84395758D01*
X138033667Y-84312735D01*
X137974089Y-84272462D01*
X137789973Y-84136989D01*
X137624338Y-83989375D01*
X137488756Y-83842384D01*
X137394800Y-83708781D01*
X137354042Y-83601330D01*
X137353231Y-83587683D01*
X137379084Y-83477163D01*
X137460618Y-83404322D01*
X137603792Y-83365969D01*
X137782003Y-83358154D01*
X137909907Y-83361677D01*
G37*
X139730738Y-82983820D02*
X139928490Y-83008380D01*
X140044432Y-83022937D01*
X140303184Y-83058614D01*
X140497761Y-83095471D01*
X140642072Y-83137986D01*
X140750026Y-83190638D01*
X140835532Y-83257905D01*
X140863648Y-83286726D01*
X140925668Y-83367862D01*
X140968300Y-83461642D01*
X140990906Y-83576392D01*
X140992849Y-83720440D01*
X140973490Y-83902112D01*
X140932190Y-84129734D01*
X140868313Y-84411632D01*
X140781220Y-84756134D01*
X140738700Y-84917231D01*
X140684050Y-85118306D01*
X140642621Y-85255755D01*
X140608885Y-85341821D01*
X140577312Y-85388749D01*
X140542371Y-85408784D01*
X140514696Y-85413228D01*
X140425558Y-85413801D01*
X140381693Y-85406877D01*
X140316263Y-85388507D01*
X140239674Y-85370424D01*
X140136732Y-85347857D01*
X140307888Y-84692929D01*
X140381060Y-84406066D01*
X140432507Y-84183677D01*
X140463017Y-84015396D01*
X140473376Y-83890854D01*
X140464368Y-83799685D01*
X140436781Y-83731520D01*
X140391401Y-83675993D01*
X140385424Y-83670275D01*
X140326714Y-83627706D01*
X140243282Y-83594055D01*
X140119464Y-83565057D01*
X139939594Y-83536447D01*
X139848894Y-83524216D01*
X139673120Y-83500715D01*
X139529006Y-83480406D01*
X139432270Y-83465574D01*
X139398634Y-83458737D01*
X139397875Y-83419083D01*
X139403526Y-83323328D01*
X139413053Y-83207215D01*
X139420787Y-83108853D01*
X139431082Y-83039474D01*
X139455581Y-82995680D01*
X139505927Y-82974072D01*
X139593765Y-82971251D01*
X139730738Y-82983820D01*
G36*
X139730738Y-82983820D02*
G01*
X139928490Y-83008380D01*
X140044432Y-83022937D01*
X140303184Y-83058614D01*
X140497761Y-83095471D01*
X140642072Y-83137986D01*
X140750026Y-83190638D01*
X140835532Y-83257905D01*
X140863648Y-83286726D01*
X140925668Y-83367862D01*
X140968300Y-83461642D01*
X140990906Y-83576392D01*
X140992849Y-83720440D01*
X140973490Y-83902112D01*
X140932190Y-84129734D01*
X140868313Y-84411632D01*
X140781220Y-84756134D01*
X140738700Y-84917231D01*
X140684050Y-85118306D01*
X140642621Y-85255755D01*
X140608885Y-85341821D01*
X140577312Y-85388749D01*
X140542371Y-85408784D01*
X140514696Y-85413228D01*
X140425558Y-85413801D01*
X140381693Y-85406877D01*
X140316263Y-85388507D01*
X140239674Y-85370424D01*
X140136732Y-85347857D01*
X140307888Y-84692929D01*
X140381060Y-84406066D01*
X140432507Y-84183677D01*
X140463017Y-84015396D01*
X140473376Y-83890854D01*
X140464368Y-83799685D01*
X140436781Y-83731520D01*
X140391401Y-83675993D01*
X140385424Y-83670275D01*
X140326714Y-83627706D01*
X140243282Y-83594055D01*
X140119464Y-83565057D01*
X139939594Y-83536447D01*
X139848894Y-83524216D01*
X139673120Y-83500715D01*
X139529006Y-83480406D01*
X139432270Y-83465574D01*
X139398634Y-83458737D01*
X139397875Y-83419083D01*
X139403526Y-83323328D01*
X139413053Y-83207215D01*
X139420787Y-83108853D01*
X139431082Y-83039474D01*
X139455581Y-82995680D01*
X139505927Y-82974072D01*
X139593765Y-82971251D01*
X139730738Y-82983820D01*
G37*
X144716275Y-83358341D02*
X144912767Y-83372769D01*
X145054420Y-83400237D01*
X145152714Y-83443546D01*
X145219128Y-83505497D01*
X145245611Y-83547374D01*
X145277084Y-83662390D01*
X145283412Y-83825310D01*
X145264726Y-84010085D01*
X145242761Y-84115886D01*
X145231726Y-84165737D01*
X145221576Y-84205599D01*
X145204315Y-84239423D01*
X145171948Y-84271161D01*
X145116481Y-84304766D01*
X145029917Y-84344188D01*
X144904263Y-84393379D01*
X144731523Y-84456292D01*
X144503702Y-84536878D01*
X144212805Y-84639089D01*
X144113539Y-84674032D01*
X143906852Y-84747427D01*
X143762709Y-84801582D01*
X143669845Y-84842958D01*
X143616994Y-84878012D01*
X143592893Y-84913204D01*
X143586275Y-84954990D01*
X143586000Y-84976493D01*
X143586000Y-85093077D01*
X144279616Y-85103748D01*
X144502657Y-85109057D01*
X144695914Y-85117244D01*
X144846968Y-85127486D01*
X144943402Y-85138964D01*
X144973231Y-85149613D01*
X144965010Y-85205286D01*
X144943988Y-85309106D01*
X144927443Y-85383173D01*
X144881654Y-85581539D01*
X144116596Y-85580963D01*
X143802809Y-85578498D01*
X143562597Y-85571465D01*
X143391503Y-85559610D01*
X143285068Y-85542678D01*
X143253846Y-85531808D01*
X143174365Y-85465841D01*
X143098386Y-85362358D01*
X143082417Y-85332534D01*
X143008681Y-85181837D01*
X143154988Y-84570842D01*
X143204546Y-84370420D01*
X143714022Y-84370420D01*
X144247366Y-84184672D01*
X144458461Y-84109827D01*
X144605667Y-84053475D01*
X144699529Y-84010286D01*
X144750592Y-83974931D01*
X144769400Y-83942080D01*
X144769509Y-83920770D01*
X144757052Y-83883398D01*
X144722504Y-83859282D01*
X144650648Y-83844713D01*
X144526269Y-83835983D01*
X144403032Y-83831462D01*
X144174631Y-83829522D01*
X144010645Y-83845577D01*
X143897993Y-83887480D01*
X143823596Y-83963086D01*
X143774376Y-84080251D01*
X143740487Y-84229346D01*
X143714022Y-84370420D01*
X143204546Y-84370420D01*
X143227673Y-84276894D01*
X143290328Y-84048597D01*
X143347275Y-83874775D01*
X143402835Y-83744255D01*
X143461327Y-83645860D01*
X143527074Y-83568416D01*
X143551612Y-83545087D01*
X143645449Y-83472298D01*
X143751340Y-83419969D01*
X143883594Y-83385069D01*
X144056525Y-83364568D01*
X144284442Y-83355436D01*
X144453464Y-83354154D01*
X144716275Y-83358341D01*
G36*
X144716275Y-83358341D02*
G01*
X144912767Y-83372769D01*
X145054420Y-83400237D01*
X145152714Y-83443546D01*
X145219128Y-83505497D01*
X145245611Y-83547374D01*
X145277084Y-83662390D01*
X145283412Y-83825310D01*
X145264726Y-84010085D01*
X145242761Y-84115886D01*
X145231726Y-84165737D01*
X145221576Y-84205599D01*
X145204315Y-84239423D01*
X145171948Y-84271161D01*
X145116481Y-84304766D01*
X145029917Y-84344188D01*
X144904263Y-84393379D01*
X144731523Y-84456292D01*
X144503702Y-84536878D01*
X144212805Y-84639089D01*
X144113539Y-84674032D01*
X143906852Y-84747427D01*
X143762709Y-84801582D01*
X143669845Y-84842958D01*
X143616994Y-84878012D01*
X143592893Y-84913204D01*
X143586275Y-84954990D01*
X143586000Y-84976493D01*
X143586000Y-85093077D01*
X144279616Y-85103748D01*
X144502657Y-85109057D01*
X144695914Y-85117244D01*
X144846968Y-85127486D01*
X144943402Y-85138964D01*
X144973231Y-85149613D01*
X144965010Y-85205286D01*
X144943988Y-85309106D01*
X144927443Y-85383173D01*
X144881654Y-85581539D01*
X144116596Y-85580963D01*
X143802809Y-85578498D01*
X143562597Y-85571465D01*
X143391503Y-85559610D01*
X143285068Y-85542678D01*
X143253846Y-85531808D01*
X143174365Y-85465841D01*
X143098386Y-85362358D01*
X143082417Y-85332534D01*
X143008681Y-85181837D01*
X143154988Y-84570842D01*
X143204546Y-84370420D01*
X143714022Y-84370420D01*
X144247366Y-84184672D01*
X144458461Y-84109827D01*
X144605667Y-84053475D01*
X144699529Y-84010286D01*
X144750592Y-83974931D01*
X144769400Y-83942080D01*
X144769509Y-83920770D01*
X144757052Y-83883398D01*
X144722504Y-83859282D01*
X144650648Y-83844713D01*
X144526269Y-83835983D01*
X144403032Y-83831462D01*
X144174631Y-83829522D01*
X144010645Y-83845577D01*
X143897993Y-83887480D01*
X143823596Y-83963086D01*
X143774376Y-84080251D01*
X143740487Y-84229346D01*
X143714022Y-84370420D01*
X143204546Y-84370420D01*
X143227673Y-84276894D01*
X143290328Y-84048597D01*
X143347275Y-83874775D01*
X143402835Y-83744255D01*
X143461327Y-83645860D01*
X143527074Y-83568416D01*
X143551612Y-83545087D01*
X143645449Y-83472298D01*
X143751340Y-83419969D01*
X143883594Y-83385069D01*
X144056525Y-83364568D01*
X144284442Y-83355436D01*
X144453464Y-83354154D01*
X144716275Y-83358341D01*
G37*
X142553283Y-83357243D02*
X142755514Y-83371209D01*
X142910811Y-83403104D01*
X143022341Y-83459979D01*
X143093273Y-83548884D01*
X143126776Y-83676871D01*
X143126020Y-83850991D01*
X143094173Y-84078294D01*
X143034404Y-84365831D01*
X142949882Y-84720654D01*
X142937585Y-84770693D01*
X142737956Y-85581539D01*
X142485268Y-85581539D01*
X142349181Y-85579137D01*
X142275744Y-85568899D01*
X142249518Y-85546281D01*
X142253048Y-85513154D01*
X142286584Y-85393316D01*
X142329745Y-85227808D01*
X142378923Y-85031782D01*
X142430511Y-84820389D01*
X142480901Y-84608779D01*
X142526486Y-84412104D01*
X142563659Y-84245514D01*
X142588813Y-84124161D01*
X142598340Y-84063196D01*
X142598345Y-84062864D01*
X142587519Y-83991335D01*
X142544981Y-83944171D01*
X142458303Y-83916683D01*
X142315060Y-83904181D01*
X142171641Y-83901830D01*
X142003901Y-83904852D01*
X141876756Y-83921352D01*
X141780985Y-83961408D01*
X141707369Y-84035099D01*
X141646688Y-84152501D01*
X141589721Y-84323694D01*
X141527249Y-84558755D01*
X141510822Y-84624154D01*
X141458271Y-84833802D01*
X141409219Y-85028551D01*
X141368361Y-85189825D01*
X141340392Y-85299044D01*
X141335509Y-85317770D01*
X141296988Y-85464308D01*
X141064032Y-85464308D01*
X140929238Y-85459970D01*
X140856932Y-85444317D01*
X140831798Y-85413391D01*
X140831077Y-85404116D01*
X140841376Y-85330631D01*
X140869606Y-85197235D01*
X140911766Y-85019029D01*
X140963855Y-84811117D01*
X141021873Y-84588602D01*
X141081819Y-84366584D01*
X141139691Y-84160167D01*
X141191490Y-83984453D01*
X141233214Y-83854544D01*
X141258894Y-83789176D01*
X141374926Y-83617605D01*
X141522376Y-83476995D01*
X141664006Y-83395717D01*
X141743555Y-83380178D01*
X141882756Y-83367282D01*
X142063122Y-83358235D01*
X142266163Y-83354243D01*
X142300946Y-83354154D01*
X142553283Y-83357243D01*
G36*
X142553283Y-83357243D02*
G01*
X142755514Y-83371209D01*
X142910811Y-83403104D01*
X143022341Y-83459979D01*
X143093273Y-83548884D01*
X143126776Y-83676871D01*
X143126020Y-83850991D01*
X143094173Y-84078294D01*
X143034404Y-84365831D01*
X142949882Y-84720654D01*
X142937585Y-84770693D01*
X142737956Y-85581539D01*
X142485268Y-85581539D01*
X142349181Y-85579137D01*
X142275744Y-85568899D01*
X142249518Y-85546281D01*
X142253048Y-85513154D01*
X142286584Y-85393316D01*
X142329745Y-85227808D01*
X142378923Y-85031782D01*
X142430511Y-84820389D01*
X142480901Y-84608779D01*
X142526486Y-84412104D01*
X142563659Y-84245514D01*
X142588813Y-84124161D01*
X142598340Y-84063196D01*
X142598345Y-84062864D01*
X142587519Y-83991335D01*
X142544981Y-83944171D01*
X142458303Y-83916683D01*
X142315060Y-83904181D01*
X142171641Y-83901830D01*
X142003901Y-83904852D01*
X141876756Y-83921352D01*
X141780985Y-83961408D01*
X141707369Y-84035099D01*
X141646688Y-84152501D01*
X141589721Y-84323694D01*
X141527249Y-84558755D01*
X141510822Y-84624154D01*
X141458271Y-84833802D01*
X141409219Y-85028551D01*
X141368361Y-85189825D01*
X141340392Y-85299044D01*
X141335509Y-85317770D01*
X141296988Y-85464308D01*
X141064032Y-85464308D01*
X140929238Y-85459970D01*
X140856932Y-85444317D01*
X140831798Y-85413391D01*
X140831077Y-85404116D01*
X140841376Y-85330631D01*
X140869606Y-85197235D01*
X140911766Y-85019029D01*
X140963855Y-84811117D01*
X141021873Y-84588602D01*
X141081819Y-84366584D01*
X141139691Y-84160167D01*
X141191490Y-83984453D01*
X141233214Y-83854544D01*
X141258894Y-83789176D01*
X141374926Y-83617605D01*
X141522376Y-83476995D01*
X141664006Y-83395717D01*
X141743555Y-83380178D01*
X141882756Y-83367282D01*
X142063122Y-83358235D01*
X142266163Y-83354243D01*
X142300946Y-83354154D01*
X142553283Y-83357243D01*
G37*
X144745785Y-86059278D02*
X144778867Y-86079770D01*
X144770140Y-86128446D01*
X144745937Y-86233791D01*
X144710688Y-86376899D01*
X144692639Y-86447668D01*
X144650036Y-86608610D01*
X144617123Y-86709069D01*
X144584504Y-86764349D01*
X144542784Y-86789754D01*
X144482568Y-86800590D01*
X144475471Y-86801426D01*
X144387874Y-86804231D01*
X144362122Y-86780737D01*
X144366481Y-86762051D01*
X144392204Y-86682215D01*
X144411684Y-86610796D01*
X144421435Y-86548768D01*
X144395588Y-86524073D01*
X144315405Y-86524166D01*
X144285757Y-86526503D01*
X144183319Y-86543640D01*
X144129743Y-86587002D01*
X144099356Y-86665924D01*
X144061564Y-86755336D01*
X144001589Y-86789467D01*
X143951578Y-86792924D01*
X143892595Y-86789841D01*
X143858446Y-86771859D01*
X143848452Y-86725879D01*
X143861931Y-86638799D01*
X143898203Y-86497519D01*
X143930249Y-86382616D01*
X143974935Y-86229256D01*
X144009845Y-86135693D01*
X144045242Y-86086181D01*
X144091390Y-86064975D01*
X144141930Y-86057909D01*
X144224032Y-86053977D01*
X144249766Y-86078817D01*
X144234793Y-86153542D01*
X144228708Y-86174882D01*
X144203882Y-86264048D01*
X144191893Y-86312230D01*
X144191693Y-86313973D01*
X144226381Y-86320285D01*
X144312912Y-86323764D01*
X144346229Y-86324000D01*
X144447126Y-86318367D01*
X144496660Y-86287977D01*
X144521492Y-86212595D01*
X144526425Y-86187231D01*
X144552746Y-86094392D01*
X144599243Y-86056584D01*
X144664964Y-86050462D01*
X144745785Y-86059278D01*
G36*
X144745785Y-86059278D02*
G01*
X144778867Y-86079770D01*
X144770140Y-86128446D01*
X144745937Y-86233791D01*
X144710688Y-86376899D01*
X144692639Y-86447668D01*
X144650036Y-86608610D01*
X144617123Y-86709069D01*
X144584504Y-86764349D01*
X144542784Y-86789754D01*
X144482568Y-86800590D01*
X144475471Y-86801426D01*
X144387874Y-86804231D01*
X144362122Y-86780737D01*
X144366481Y-86762051D01*
X144392204Y-86682215D01*
X144411684Y-86610796D01*
X144421435Y-86548768D01*
X144395588Y-86524073D01*
X144315405Y-86524166D01*
X144285757Y-86526503D01*
X144183319Y-86543640D01*
X144129743Y-86587002D01*
X144099356Y-86665924D01*
X144061564Y-86755336D01*
X144001589Y-86789467D01*
X143951578Y-86792924D01*
X143892595Y-86789841D01*
X143858446Y-86771859D01*
X143848452Y-86725879D01*
X143861931Y-86638799D01*
X143898203Y-86497519D01*
X143930249Y-86382616D01*
X143974935Y-86229256D01*
X144009845Y-86135693D01*
X144045242Y-86086181D01*
X144091390Y-86064975D01*
X144141930Y-86057909D01*
X144224032Y-86053977D01*
X144249766Y-86078817D01*
X144234793Y-86153542D01*
X144228708Y-86174882D01*
X144203882Y-86264048D01*
X144191893Y-86312230D01*
X144191693Y-86313973D01*
X144226381Y-86320285D01*
X144312912Y-86323764D01*
X144346229Y-86324000D01*
X144447126Y-86318367D01*
X144496660Y-86287977D01*
X144521492Y-86212595D01*
X144526425Y-86187231D01*
X144552746Y-86094392D01*
X144599243Y-86056584D01*
X144664964Y-86050462D01*
X144745785Y-86059278D01*
G37*
X143731883Y-86052439D02*
X143822683Y-86060341D01*
X143862811Y-86077119D01*
X143865982Y-86105727D01*
X143863719Y-86112273D01*
X143842672Y-86185503D01*
X143840000Y-86208101D01*
X143804446Y-86227583D01*
X143711852Y-86244379D01*
X143599930Y-86253751D01*
X143359860Y-86265385D01*
X143311521Y-86429617D01*
X143286565Y-86533913D01*
X143280592Y-86603327D01*
X143284565Y-86615232D01*
X143332543Y-86627116D01*
X143433127Y-86634880D01*
X143518540Y-86636616D01*
X143640736Y-86640128D01*
X143700141Y-86653978D01*
X143711935Y-86683131D01*
X143707412Y-86698427D01*
X143686525Y-86766632D01*
X143683693Y-86786350D01*
X143648583Y-86802942D01*
X143558123Y-86811413D01*
X143434615Y-86812467D01*
X143300364Y-86806809D01*
X143177673Y-86795144D01*
X143088844Y-86778176D01*
X143062340Y-86766719D01*
X143031172Y-86735903D01*
X143020533Y-86691005D01*
X143030852Y-86612677D01*
X143062553Y-86481571D01*
X143069188Y-86456124D01*
X143121591Y-86275524D01*
X143176593Y-86158216D01*
X143251130Y-86090662D01*
X143362136Y-86059325D01*
X143526547Y-86050669D01*
X143576699Y-86050462D01*
X143731883Y-86052439D01*
G36*
X143731883Y-86052439D02*
G01*
X143822683Y-86060341D01*
X143862811Y-86077119D01*
X143865982Y-86105727D01*
X143863719Y-86112273D01*
X143842672Y-86185503D01*
X143840000Y-86208101D01*
X143804446Y-86227583D01*
X143711852Y-86244379D01*
X143599930Y-86253751D01*
X143359860Y-86265385D01*
X143311521Y-86429617D01*
X143286565Y-86533913D01*
X143280592Y-86603327D01*
X143284565Y-86615232D01*
X143332543Y-86627116D01*
X143433127Y-86634880D01*
X143518540Y-86636616D01*
X143640736Y-86640128D01*
X143700141Y-86653978D01*
X143711935Y-86683131D01*
X143707412Y-86698427D01*
X143686525Y-86766632D01*
X143683693Y-86786350D01*
X143648583Y-86802942D01*
X143558123Y-86811413D01*
X143434615Y-86812467D01*
X143300364Y-86806809D01*
X143177673Y-86795144D01*
X143088844Y-86778176D01*
X143062340Y-86766719D01*
X143031172Y-86735903D01*
X143020533Y-86691005D01*
X143030852Y-86612677D01*
X143062553Y-86481571D01*
X143069188Y-86456124D01*
X143121591Y-86275524D01*
X143176593Y-86158216D01*
X143251130Y-86090662D01*
X143362136Y-86059325D01*
X143526547Y-86050669D01*
X143576699Y-86050462D01*
X143731883Y-86052439D01*
G37*
X142990437Y-86065785D02*
X143019385Y-86099432D01*
X143007097Y-86181501D01*
X142975405Y-86305953D01*
X142932071Y-86448682D01*
X142884854Y-86585579D01*
X142841515Y-86692538D01*
X142812084Y-86743433D01*
X142742511Y-86774039D01*
X142621774Y-86794858D01*
X142476371Y-86804866D01*
X142332800Y-86803040D01*
X142217558Y-86788357D01*
X142165794Y-86768392D01*
X142137166Y-86739536D01*
X142125883Y-86695827D01*
X142132660Y-86620257D01*
X142158214Y-86495814D01*
X142181457Y-86396494D01*
X142220239Y-86238756D01*
X142250806Y-86141581D01*
X142282536Y-86089385D01*
X142324808Y-86066583D01*
X142385300Y-86057755D01*
X142471204Y-86052748D01*
X142511043Y-86057001D01*
X142511385Y-86057880D01*
X142501441Y-86098670D01*
X142475216Y-86194775D01*
X142438118Y-86326425D01*
X142433231Y-86343539D01*
X142395200Y-86478084D01*
X142367397Y-86579417D01*
X142355230Y-86627781D01*
X142355077Y-86629081D01*
X142389484Y-86634100D01*
X142474824Y-86631209D01*
X142501477Y-86629205D01*
X142576588Y-86620384D01*
X142625289Y-86598205D01*
X142660122Y-86546110D01*
X142693631Y-86447542D01*
X142725271Y-86333770D01*
X142766905Y-86189031D01*
X142800394Y-86104290D01*
X142836174Y-86063631D01*
X142884679Y-86051138D01*
X142911025Y-86050462D01*
X142990437Y-86065785D01*
G36*
X142990437Y-86065785D02*
G01*
X143019385Y-86099432D01*
X143007097Y-86181501D01*
X142975405Y-86305953D01*
X142932071Y-86448682D01*
X142884854Y-86585579D01*
X142841515Y-86692538D01*
X142812084Y-86743433D01*
X142742511Y-86774039D01*
X142621774Y-86794858D01*
X142476371Y-86804866D01*
X142332800Y-86803040D01*
X142217558Y-86788357D01*
X142165794Y-86768392D01*
X142137166Y-86739536D01*
X142125883Y-86695827D01*
X142132660Y-86620257D01*
X142158214Y-86495814D01*
X142181457Y-86396494D01*
X142220239Y-86238756D01*
X142250806Y-86141581D01*
X142282536Y-86089385D01*
X142324808Y-86066583D01*
X142385300Y-86057755D01*
X142471204Y-86052748D01*
X142511043Y-86057001D01*
X142511385Y-86057880D01*
X142501441Y-86098670D01*
X142475216Y-86194775D01*
X142438118Y-86326425D01*
X142433231Y-86343539D01*
X142395200Y-86478084D01*
X142367397Y-86579417D01*
X142355230Y-86627781D01*
X142355077Y-86629081D01*
X142389484Y-86634100D01*
X142474824Y-86631209D01*
X142501477Y-86629205D01*
X142576588Y-86620384D01*
X142625289Y-86598205D01*
X142660122Y-86546110D01*
X142693631Y-86447542D01*
X142725271Y-86333770D01*
X142766905Y-86189031D01*
X142800394Y-86104290D01*
X142836174Y-86063631D01*
X142884679Y-86051138D01*
X142911025Y-86050462D01*
X142990437Y-86065785D01*
G37*
X141917446Y-86057897D02*
X142019236Y-86088871D01*
X142065016Y-86156386D01*
X142065499Y-86273447D01*
X142041697Y-86405756D01*
X141994104Y-86588632D01*
X141934944Y-86707851D01*
X141849896Y-86777862D01*
X141724634Y-86813115D01*
X141627726Y-86823341D01*
X141481146Y-86827754D01*
X141384493Y-86811757D01*
X141311134Y-86770650D01*
X141305981Y-86766547D01*
X141215210Y-86693045D01*
X141261915Y-86508134D01*
X141498870Y-86508134D01*
X141502049Y-86591320D01*
X141551050Y-86629946D01*
X141613583Y-86636616D01*
X141712256Y-86617069D01*
X141763882Y-86549466D01*
X141764169Y-86548693D01*
X141798931Y-86440658D01*
X141822561Y-86353308D01*
X141833634Y-86280984D01*
X141805634Y-86251530D01*
X141719425Y-86245849D01*
X141714875Y-86245847D01*
X141617854Y-86257068D01*
X141564787Y-86305960D01*
X141538284Y-86368909D01*
X141498870Y-86508134D01*
X141261915Y-86508134D01*
X141279090Y-86440138D01*
X141334933Y-86259775D01*
X141403489Y-86144132D01*
X141500868Y-86079848D01*
X141643178Y-86053563D01*
X141748929Y-86050462D01*
X141917446Y-86057897D01*
G36*
X141917446Y-86057897D02*
G01*
X142019236Y-86088871D01*
X142065016Y-86156386D01*
X142065499Y-86273447D01*
X142041697Y-86405756D01*
X141994104Y-86588632D01*
X141934944Y-86707851D01*
X141849896Y-86777862D01*
X141724634Y-86813115D01*
X141627726Y-86823341D01*
X141481146Y-86827754D01*
X141384493Y-86811757D01*
X141311134Y-86770650D01*
X141305981Y-86766547D01*
X141215210Y-86693045D01*
X141261915Y-86508134D01*
X141498870Y-86508134D01*
X141502049Y-86591320D01*
X141551050Y-86629946D01*
X141613583Y-86636616D01*
X141712256Y-86617069D01*
X141763882Y-86549466D01*
X141764169Y-86548693D01*
X141798931Y-86440658D01*
X141822561Y-86353308D01*
X141833634Y-86280984D01*
X141805634Y-86251530D01*
X141719425Y-86245849D01*
X141714875Y-86245847D01*
X141617854Y-86257068D01*
X141564787Y-86305960D01*
X141538284Y-86368909D01*
X141498870Y-86508134D01*
X141261915Y-86508134D01*
X141279090Y-86440138D01*
X141334933Y-86259775D01*
X141403489Y-86144132D01*
X141500868Y-86079848D01*
X141643178Y-86053563D01*
X141748929Y-86050462D01*
X141917446Y-86057897D01*
G37*
X141118157Y-86051346D02*
X141221554Y-86056469D01*
X141275634Y-86069539D01*
X141294815Y-86094262D01*
X141293514Y-86134347D01*
X141292949Y-86138385D01*
X141261978Y-86205637D01*
X141180702Y-86235474D01*
X141157031Y-86238287D01*
X141092599Y-86249016D01*
X141049166Y-86277108D01*
X141015361Y-86339340D01*
X140979813Y-86452487D01*
X140958376Y-86531364D01*
X140918042Y-86675296D01*
X140885072Y-86760231D01*
X140847786Y-86802967D01*
X140794503Y-86820304D01*
X140754140Y-86825101D01*
X140667715Y-86826567D01*
X140642178Y-86802732D01*
X140647785Y-86778699D01*
X140671302Y-86705472D01*
X140702939Y-86593123D01*
X140714008Y-86551137D01*
X140745526Y-86431061D01*
X140771647Y-86334628D01*
X140777421Y-86314231D01*
X140774294Y-86262722D01*
X140712697Y-86246101D01*
X140696941Y-86245847D01*
X140621249Y-86230670D01*
X140597247Y-86170183D01*
X140596616Y-86148154D01*
X140599384Y-86102050D01*
X140617675Y-86073359D01*
X140666472Y-86057952D01*
X140760757Y-86051698D01*
X140915511Y-86050468D01*
X140951026Y-86050462D01*
X141118157Y-86051346D01*
G36*
X141118157Y-86051346D02*
G01*
X141221554Y-86056469D01*
X141275634Y-86069539D01*
X141294815Y-86094262D01*
X141293514Y-86134347D01*
X141292949Y-86138385D01*
X141261978Y-86205637D01*
X141180702Y-86235474D01*
X141157031Y-86238287D01*
X141092599Y-86249016D01*
X141049166Y-86277108D01*
X141015361Y-86339340D01*
X140979813Y-86452487D01*
X140958376Y-86531364D01*
X140918042Y-86675296D01*
X140885072Y-86760231D01*
X140847786Y-86802967D01*
X140794503Y-86820304D01*
X140754140Y-86825101D01*
X140667715Y-86826567D01*
X140642178Y-86802732D01*
X140647785Y-86778699D01*
X140671302Y-86705472D01*
X140702939Y-86593123D01*
X140714008Y-86551137D01*
X140745526Y-86431061D01*
X140771647Y-86334628D01*
X140777421Y-86314231D01*
X140774294Y-86262722D01*
X140712697Y-86246101D01*
X140696941Y-86245847D01*
X140621249Y-86230670D01*
X140597247Y-86170183D01*
X140596616Y-86148154D01*
X140599384Y-86102050D01*
X140617675Y-86073359D01*
X140666472Y-86057952D01*
X140760757Y-86051698D01*
X140915511Y-86050468D01*
X140951026Y-86050462D01*
X141118157Y-86051346D01*
G37*
X138089346Y-84661142D02*
X138200024Y-84706376D01*
X138355387Y-84775901D01*
X138546988Y-84866245D01*
X138564616Y-84874744D01*
X138955221Y-85054012D01*
X139354933Y-85220240D01*
X139746377Y-85367044D01*
X140112180Y-85488037D01*
X140434968Y-85576835D01*
X140536860Y-85599601D01*
X140865775Y-85649507D01*
X141141918Y-85653205D01*
X141362231Y-85611202D01*
X141523651Y-85524004D01*
X141608262Y-85422169D01*
X141641273Y-85344460D01*
X141635623Y-85272413D01*
X141600052Y-85187707D01*
X141535996Y-85054000D01*
X141671998Y-85207049D01*
X141780199Y-85367850D01*
X141813694Y-85519718D01*
X141772336Y-85658085D01*
X141689619Y-85752356D01*
X141560346Y-85834328D01*
X141403336Y-85878888D01*
X141202352Y-85888988D01*
X141011834Y-85875606D01*
X140806348Y-85854060D01*
X140664810Y-85842822D01*
X140573249Y-85846164D01*
X140517694Y-85868355D01*
X140484173Y-85913668D01*
X140458715Y-85986373D01*
X140439836Y-86050462D01*
X140363591Y-86270636D01*
X140280041Y-86435242D01*
X140176458Y-86566681D01*
X140111218Y-86628683D01*
X140011300Y-86707453D01*
X139908531Y-86764731D01*
X139791206Y-86801678D01*
X139647624Y-86819457D01*
X139466079Y-86819228D01*
X139234869Y-86802155D01*
X138942289Y-86769398D01*
X138832440Y-86755621D01*
X138549631Y-86714345D01*
X138333715Y-86669237D01*
X138173433Y-86615856D01*
X138057527Y-86549759D01*
X137974738Y-86466502D01*
X137933196Y-86400791D01*
X137890125Y-86296640D01*
X137868668Y-86176258D01*
X137869628Y-86027866D01*
X137888712Y-85879341D01*
X138387635Y-85879341D01*
X138405766Y-86015788D01*
X138469373Y-86110708D01*
X138584417Y-86174630D01*
X138756859Y-86218087D01*
X138918291Y-86242407D01*
X139231510Y-86274661D01*
X139475653Y-86280893D01*
X139655414Y-86260891D01*
X139775486Y-86214447D01*
X139791050Y-86203319D01*
X139930959Y-86043995D01*
X140016909Y-85830011D01*
X140028440Y-85775573D01*
X140053118Y-85640154D01*
X139748482Y-85527574D01*
X139583538Y-85461730D01*
X139379023Y-85372953D01*
X139164674Y-85274430D01*
X139021603Y-85205190D01*
X138857520Y-85124184D01*
X138720866Y-85057709D01*
X138625681Y-85012527D01*
X138586004Y-84995395D01*
X138585848Y-84995385D01*
X138571899Y-85030926D01*
X138544002Y-85127621D01*
X138506240Y-85270579D01*
X138463960Y-85439741D01*
X138409020Y-85690836D01*
X138387635Y-85879341D01*
X137888712Y-85879341D01*
X137893808Y-85839689D01*
X137942011Y-85599947D01*
X138006031Y-85332612D01*
X138151820Y-84751532D01*
X138035833Y-84657432D01*
X138031800Y-84643670D01*
X138089346Y-84661142D01*
G36*
X138089346Y-84661142D02*
G01*
X138200024Y-84706376D01*
X138355387Y-84775901D01*
X138546988Y-84866245D01*
X138564616Y-84874744D01*
X138955221Y-85054012D01*
X139354933Y-85220240D01*
X139746377Y-85367044D01*
X140112180Y-85488037D01*
X140434968Y-85576835D01*
X140536860Y-85599601D01*
X140865775Y-85649507D01*
X141141918Y-85653205D01*
X141362231Y-85611202D01*
X141523651Y-85524004D01*
X141608262Y-85422169D01*
X141641273Y-85344460D01*
X141635623Y-85272413D01*
X141600052Y-85187707D01*
X141535996Y-85054000D01*
X141671998Y-85207049D01*
X141780199Y-85367850D01*
X141813694Y-85519718D01*
X141772336Y-85658085D01*
X141689619Y-85752356D01*
X141560346Y-85834328D01*
X141403336Y-85878888D01*
X141202352Y-85888988D01*
X141011834Y-85875606D01*
X140806348Y-85854060D01*
X140664810Y-85842822D01*
X140573249Y-85846164D01*
X140517694Y-85868355D01*
X140484173Y-85913668D01*
X140458715Y-85986373D01*
X140439836Y-86050462D01*
X140363591Y-86270636D01*
X140280041Y-86435242D01*
X140176458Y-86566681D01*
X140111218Y-86628683D01*
X140011300Y-86707453D01*
X139908531Y-86764731D01*
X139791206Y-86801678D01*
X139647624Y-86819457D01*
X139466079Y-86819228D01*
X139234869Y-86802155D01*
X138942289Y-86769398D01*
X138832440Y-86755621D01*
X138549631Y-86714345D01*
X138333715Y-86669237D01*
X138173433Y-86615856D01*
X138057527Y-86549759D01*
X137974738Y-86466502D01*
X137933196Y-86400791D01*
X137890125Y-86296640D01*
X137868668Y-86176258D01*
X137869628Y-86027866D01*
X137888712Y-85879341D01*
X138387635Y-85879341D01*
X138405766Y-86015788D01*
X138469373Y-86110708D01*
X138584417Y-86174630D01*
X138756859Y-86218087D01*
X138918291Y-86242407D01*
X139231510Y-86274661D01*
X139475653Y-86280893D01*
X139655414Y-86260891D01*
X139775486Y-86214447D01*
X139791050Y-86203319D01*
X139930959Y-86043995D01*
X140016909Y-85830011D01*
X140028440Y-85775573D01*
X140053118Y-85640154D01*
X139748482Y-85527574D01*
X139583538Y-85461730D01*
X139379023Y-85372953D01*
X139164674Y-85274430D01*
X139021603Y-85205190D01*
X138857520Y-85124184D01*
X138720866Y-85057709D01*
X138625681Y-85012527D01*
X138586004Y-84995395D01*
X138585848Y-84995385D01*
X138571899Y-85030926D01*
X138544002Y-85127621D01*
X138506240Y-85270579D01*
X138463960Y-85439741D01*
X138409020Y-85690836D01*
X138387635Y-85879341D01*
X137888712Y-85879341D01*
X137893808Y-85839689D01*
X137942011Y-85599947D01*
X138006031Y-85332612D01*
X138151820Y-84751532D01*
X138035833Y-84657432D01*
X138031800Y-84643670D01*
X138089346Y-84661142D01*
G37*
D13*
%TO.C,H4*%
X147900000Y-70700000D02*
X140100000Y-70700000D01*
X147900000Y-66300000D02*
X147900000Y-70700000D01*
X140100000Y-70700000D02*
X140100000Y-66300000D01*
X140100000Y-66300000D02*
X147900000Y-66300000D01*
%TO.C,H3*%
X105900000Y-87700000D02*
X98100000Y-87700000D01*
X105900000Y-83300000D02*
X105900000Y-87700000D01*
X98100000Y-87700000D02*
X98100000Y-83300000D01*
X98100000Y-83300000D02*
X105900000Y-83300000D01*
%TO.C,H2*%
X147900000Y-77200000D02*
X140100000Y-77200000D01*
X147900000Y-72800000D02*
X147900000Y-77200000D01*
X140100000Y-77200000D02*
X140100000Y-72800000D01*
X140100000Y-72800000D02*
X147900000Y-72800000D01*
%TO.C,H1*%
X105900000Y-74200000D02*
X98100000Y-74200000D01*
X105900000Y-69800000D02*
X105900000Y-74200000D01*
X98100000Y-74200000D02*
X98100000Y-69800000D01*
X98100000Y-69800000D02*
X105900000Y-69800000D01*
%TO.C,R8*%
X105546359Y-81720000D02*
X105853641Y-81720000D01*
X105546359Y-82480000D02*
X105853641Y-82480000D01*
%TO.C,R5*%
X106477500Y-85637258D02*
X106477500Y-85162742D01*
X107522500Y-85637258D02*
X107522500Y-85162742D01*
%TO.C,C3*%
X112740000Y-82192164D02*
X112740000Y-82407836D01*
X113460000Y-82192164D02*
X113460000Y-82407836D01*
%TO.C,R1*%
X114777500Y-76362742D02*
X114777500Y-76837258D01*
X115822500Y-76362742D02*
X115822500Y-76837258D01*
%TO.C,R7*%
X111865000Y-85827064D02*
X111865000Y-85372936D01*
X113335000Y-85827064D02*
X113335000Y-85372936D01*
%TO.C,R4*%
X116377500Y-76362742D02*
X116377500Y-76837258D01*
X117422500Y-76362742D02*
X117422500Y-76837258D01*
%TO.C,R2*%
X111577500Y-76837258D02*
X111577500Y-76362742D01*
X112622500Y-76837258D02*
X112622500Y-76362742D01*
%TO.C,C10*%
X111640000Y-71788748D02*
X111640000Y-73211252D01*
X114360000Y-71788748D02*
X114360000Y-73211252D01*
%TO.C,M1*%
X114630000Y-82490000D02*
X114150000Y-82010000D01*
X114630000Y-82010000D01*
X114630000Y-82490000D01*
G36*
X114630000Y-82490000D02*
G01*
X114150000Y-82010000D01*
X114630000Y-82010000D01*
X114630000Y-82490000D01*
G37*
X117870000Y-82010000D02*
X117870000Y-78510000D01*
X117610000Y-82010000D02*
X117870000Y-82010000D01*
X117610000Y-78510000D02*
X117870000Y-78510000D01*
X114370000Y-81690000D02*
X114370000Y-78510000D01*
X114370000Y-78510000D02*
X114630000Y-78510000D01*
%TO.C,L1*%
X122340000Y-66040000D02*
X122340000Y-81960000D01*
X122340000Y-66040000D02*
X123940000Y-66040000D01*
X122340000Y-81960000D02*
X123940000Y-81960000D01*
X139260000Y-66040000D02*
X137660000Y-66040000D01*
X139260000Y-66040000D02*
X139260000Y-81960000D01*
X139260000Y-81960000D02*
X137660000Y-81960000D01*
%TO.C,C4*%
X113190000Y-76740580D02*
X113190000Y-76459420D01*
X114210000Y-76740580D02*
X114210000Y-76459420D01*
%TO.C,R9*%
X109937258Y-73577500D02*
X109462742Y-73577500D01*
X109937258Y-74622500D02*
X109462742Y-74622500D01*
%TO.C,C9*%
X110307836Y-76340000D02*
X110092164Y-76340000D01*
X110307836Y-77060000D02*
X110092164Y-77060000D01*
%TO.C,R10*%
X105853641Y-80720000D02*
X105546359Y-80720000D01*
X105853641Y-81480000D02*
X105546359Y-81480000D01*
%TO.C,C5*%
X109765000Y-85338748D02*
X109765000Y-85861252D01*
X111235000Y-85338748D02*
X111235000Y-85861252D01*
D11*
%TO.C,U1*%
X108200001Y-78800000D02*
X108750000Y-78800000D01*
X108200001Y-78849999D02*
X108200001Y-78800000D01*
X108200001Y-83400000D02*
X108200001Y-83350001D01*
X108200001Y-83400000D02*
X108750000Y-83400000D01*
X109750000Y-78800000D02*
X110250000Y-78800000D01*
X109750000Y-83400000D02*
X110250000Y-83400000D01*
X111250000Y-78800000D02*
X111799999Y-78800000D01*
X111250000Y-83400000D02*
X111799999Y-83400000D01*
X111799999Y-78849999D02*
X111799999Y-78800000D01*
X111799999Y-83400000D02*
X111799999Y-83350001D01*
D14*
X109400001Y-78075000D02*
G75*
G02*
X109149999Y-78075000I-125001J0D01*
G01*
X109149999Y-78075000D02*
G75*
G02*
X109400001Y-78075000I125001J0D01*
G01*
D13*
%TO.C,C8*%
X106820000Y-80446359D02*
X106820000Y-80753641D01*
X107580000Y-80446359D02*
X107580000Y-80753641D01*
%TO.C,C6*%
X112790000Y-79840580D02*
X112790000Y-79559420D01*
X113810000Y-79840580D02*
X113810000Y-79559420D01*
%TO.C,C2*%
X105807836Y-78740000D02*
X105592164Y-78740000D01*
X105807836Y-79460000D02*
X105592164Y-79460000D01*
%TO.C,C7*%
X105853641Y-79720000D02*
X105546359Y-79720000D01*
X105853641Y-80480000D02*
X105546359Y-80480000D01*
%TO.C,R11*%
X110353641Y-75220000D02*
X110046359Y-75220000D01*
X110353641Y-75980000D02*
X110046359Y-75980000D01*
%TO.C,R3*%
X106537258Y-77277500D02*
X106062742Y-77277500D01*
X106537258Y-78322500D02*
X106062742Y-78322500D01*
%TO.C,R6*%
X108077500Y-85637258D02*
X108077500Y-85162742D01*
X109122500Y-85637258D02*
X109122500Y-85162742D01*
%TO.C,M2*%
X118620000Y-79470000D02*
X118140000Y-78990000D01*
X118620000Y-78990000D01*
X118620000Y-79470000D01*
G36*
X118620000Y-79470000D02*
G01*
X118140000Y-78990000D01*
X118620000Y-78990000D01*
X118620000Y-79470000D01*
G37*
X121860000Y-78990000D02*
X121860000Y-75490000D01*
X121600000Y-78990000D02*
X121860000Y-78990000D01*
X121600000Y-75490000D02*
X121860000Y-75490000D01*
X118360000Y-78670000D02*
X118360000Y-75490000D01*
X118360000Y-75490000D02*
X118620000Y-75490000D01*
%TO.C,C1*%
X118440000Y-73211252D02*
X118440000Y-71788748D01*
X121160000Y-73211252D02*
X121160000Y-71788748D01*
%TD*%
M02*
