%TF.GenerationSoftware,KiCad,Pcbnew,8.0.6*%
%TF.CreationDate,2024-10-21T22:45:32+01:00*%
%TF.ProjectId,buck,6275636b-2e6b-4696-9361-645f70636258,rev?*%
%TF.SameCoordinates,Original*%
%TF.FileFunction,Copper,L1,Top*%
%TF.FilePolarity,Positive*%
%FSLAX46Y46*%
G04 Gerber Fmt 4.6, Leading zero omitted, Abs format (unit mm)*
G04 Created by KiCad (PCBNEW 8.0.6) date 2024-10-21 22:45:32*
%MOMM*%
%LPD*%
G01*
G04 APERTURE LIST*
G04 Aperture macros list*
%AMRoundRect*
0 Rectangle with rounded corners*
0 $1 Rounding radius*
0 $2 $3 $4 $5 $6 $7 $8 $9 X,Y pos of 4 corners*
0 Add a 4 corners polygon primitive as box body*
4,1,4,$2,$3,$4,$5,$6,$7,$8,$9,$2,$3,0*
0 Add four circle primitives for the rounded corners*
1,1,$1+$1,$2,$3*
1,1,$1+$1,$4,$5*
1,1,$1+$1,$6,$7*
1,1,$1+$1,$8,$9*
0 Add four rect primitives between the rounded corners*
20,1,$1+$1,$2,$3,$4,$5,0*
20,1,$1+$1,$4,$5,$6,$7,0*
20,1,$1+$1,$6,$7,$8,$9,0*
20,1,$1+$1,$8,$9,$2,$3,0*%
%AMFreePoly0*
4,1,17,1.371000,0.720000,0.950000,0.720000,0.950000,0.580000,1.370000,0.580000,1.370000,0.080000,0.950000,0.080000,0.950000,-0.080000,1.370000,-0.080000,1.370000,-0.580000,0.950000,-0.580000,0.950000,-0.720000,1.370000,-0.720000,1.370000,-1.225000,-0.950000,-1.225000,-0.950000,1.225000,1.371000,1.225000,1.371000,0.720000,1.371000,0.720000,$1*%
G04 Aperture macros list end*
%TA.AperFunction,ComponentPad*%
%ADD10C,3.800000*%
%TD*%
%TA.AperFunction,SMDPad,CuDef*%
%ADD11R,7.400000X4.000000*%
%TD*%
%TA.AperFunction,SMDPad,CuDef*%
%ADD12RoundRect,0.135000X-0.135000X-0.185000X0.135000X-0.185000X0.135000X0.185000X-0.135000X0.185000X0*%
%TD*%
%TA.AperFunction,SMDPad,CuDef*%
%ADD13RoundRect,0.200000X0.275000X-0.200000X0.275000X0.200000X-0.275000X0.200000X-0.275000X-0.200000X0*%
%TD*%
%TA.AperFunction,SMDPad,CuDef*%
%ADD14RoundRect,0.140000X-0.170000X0.140000X-0.170000X-0.140000X0.170000X-0.140000X0.170000X0.140000X0*%
%TD*%
%TA.AperFunction,SMDPad,CuDef*%
%ADD15RoundRect,0.200000X-0.275000X0.200000X-0.275000X-0.200000X0.275000X-0.200000X0.275000X0.200000X0*%
%TD*%
%TA.AperFunction,SMDPad,CuDef*%
%ADD16RoundRect,0.250000X0.450000X-0.262500X0.450000X0.262500X-0.450000X0.262500X-0.450000X-0.262500X0*%
%TD*%
%TA.AperFunction,SMDPad,CuDef*%
%ADD17RoundRect,0.250000X-1.100000X0.325000X-1.100000X-0.325000X1.100000X-0.325000X1.100000X0.325000X0*%
%TD*%
%TA.AperFunction,SMDPad,CuDef*%
%ADD18FreePoly0,90.000000*%
%TD*%
%TA.AperFunction,SMDPad,CuDef*%
%ADD19RoundRect,0.125000X0.125000X-0.190000X0.125000X0.190000X-0.125000X0.190000X-0.125000X-0.190000X0*%
%TD*%
%TA.AperFunction,SMDPad,CuDef*%
%ADD20R,13.200000X3.180000*%
%TD*%
%TA.AperFunction,SMDPad,CuDef*%
%ADD21RoundRect,0.225000X0.250000X-0.225000X0.250000X0.225000X-0.250000X0.225000X-0.250000X-0.225000X0*%
%TD*%
%TA.AperFunction,SMDPad,CuDef*%
%ADD22RoundRect,0.200000X0.200000X0.275000X-0.200000X0.275000X-0.200000X-0.275000X0.200000X-0.275000X0*%
%TD*%
%TA.AperFunction,SMDPad,CuDef*%
%ADD23RoundRect,0.140000X0.140000X0.170000X-0.140000X0.170000X-0.140000X-0.170000X0.140000X-0.170000X0*%
%TD*%
%TA.AperFunction,SMDPad,CuDef*%
%ADD24RoundRect,0.135000X0.135000X0.185000X-0.135000X0.185000X-0.135000X-0.185000X0.135000X-0.185000X0*%
%TD*%
%TA.AperFunction,SMDPad,CuDef*%
%ADD25RoundRect,0.250000X-0.475000X0.250000X-0.475000X-0.250000X0.475000X-0.250000X0.475000X0.250000X0*%
%TD*%
%TA.AperFunction,SMDPad,CuDef*%
%ADD26R,0.249999X0.599999*%
%TD*%
%TA.AperFunction,SMDPad,CuDef*%
%ADD27R,0.599999X0.249999*%
%TD*%
%TA.AperFunction,SMDPad,CuDef*%
%ADD28R,1.699999X2.700000*%
%TD*%
%TA.AperFunction,SMDPad,CuDef*%
%ADD29RoundRect,0.135000X-0.185000X0.135000X-0.185000X-0.135000X0.185000X-0.135000X0.185000X0.135000X0*%
%TD*%
%TA.AperFunction,SMDPad,CuDef*%
%ADD30RoundRect,0.250000X1.100000X-0.325000X1.100000X0.325000X-1.100000X0.325000X-1.100000X-0.325000X0*%
%TD*%
%TA.AperFunction,ViaPad*%
%ADD31C,0.800000*%
%TD*%
%TA.AperFunction,Conductor*%
%ADD32C,0.150000*%
%TD*%
%TA.AperFunction,Conductor*%
%ADD33C,0.500000*%
%TD*%
G04 APERTURE END LIST*
D10*
%TO.P,H6,1*%
%TO.N,N/C*%
X145500000Y-80500000D03*
%TD*%
%TO.P,H5,1*%
%TO.N,N/C*%
X100500000Y-78500000D03*
%TD*%
D11*
%TO.P,H4,1,1*%
%TO.N,GND*%
X144000000Y-68500000D03*
%TD*%
%TO.P,H3,1,1*%
%TO.N,GND*%
X102000000Y-85500000D03*
%TD*%
%TO.P,H2,1,1*%
%TO.N,+BATT*%
X144000000Y-75000000D03*
%TD*%
%TO.P,H1,1,1*%
%TO.N,+7.4V*%
X102000000Y-72000000D03*
%TD*%
D12*
%TO.P,R8,1*%
%TO.N,Net-(C7-Pad2)*%
X105190000Y-82100000D03*
%TO.P,R8,2*%
%TO.N,Net-(U1-FB)*%
X106210000Y-82100000D03*
%TD*%
D13*
%TO.P,R5,1*%
%TO.N,Net-(U1-VCC)*%
X107000000Y-86225000D03*
%TO.P,R5,2*%
%TO.N,Net-(U1-SYNCIN)*%
X107000000Y-84575000D03*
%TD*%
D14*
%TO.P,C3,1*%
%TO.N,Net-(U1-VCC)*%
X113100000Y-81820000D03*
%TO.P,C3,2*%
%TO.N,GND*%
X113100000Y-82780000D03*
%TD*%
D15*
%TO.P,R1,1*%
%TO.N,+BATT*%
X115300000Y-75775000D03*
%TO.P,R1,2*%
%TO.N,Net-(U1-EN_UVLO)*%
X115300000Y-77425000D03*
%TD*%
D16*
%TO.P,R7,1*%
%TO.N,Net-(U1-ILIM)*%
X112600000Y-86512500D03*
%TO.P,R7,2*%
%TO.N,Net-(M1-D)*%
X112600000Y-84687500D03*
%TD*%
D15*
%TO.P,R4,1*%
%TO.N,+BATT*%
X116900000Y-75775000D03*
%TO.P,R4,2*%
%TO.N,Net-(U1-VIN)*%
X116900000Y-77425000D03*
%TD*%
D13*
%TO.P,R2,1*%
%TO.N,Net-(U1-EN_UVLO)*%
X112100000Y-77425000D03*
%TO.P,R2,2*%
%TO.N,GND*%
X112100000Y-75775000D03*
%TD*%
D17*
%TO.P,C10,1*%
%TO.N,+7.4V*%
X113000000Y-71025000D03*
%TO.P,C10,2*%
%TO.N,GND*%
X113000000Y-73975000D03*
%TD*%
D18*
%TO.P,M1,5,D*%
%TO.N,Net-(M1-D)*%
X116110000Y-79875000D03*
D19*
%TO.P,M1,4,G*%
%TO.N,Net-(M1-G)*%
X117080000Y-81700000D03*
%TO.P,M1,3,S*%
%TO.N,GND*%
X116440000Y-81700000D03*
%TO.P,M1,2,S*%
X115780000Y-81700000D03*
%TO.P,M1,1,S*%
X115140000Y-81700000D03*
%TD*%
D20*
%TO.P,L1,1,1*%
%TO.N,+7.4V*%
X130800000Y-68700000D03*
%TO.P,L1,2,2*%
%TO.N,Net-(M1-D)*%
X130800000Y-79300000D03*
%TD*%
D21*
%TO.P,C4,1*%
%TO.N,Net-(U1-VIN)*%
X113700000Y-77375000D03*
%TO.P,C4,2*%
%TO.N,GND*%
X113700000Y-75825000D03*
%TD*%
D22*
%TO.P,R9,1*%
%TO.N,+7.4V*%
X110525000Y-74100000D03*
%TO.P,R9,2*%
%TO.N,Net-(U1-FB)*%
X108875000Y-74100000D03*
%TD*%
D23*
%TO.P,C9,1*%
%TO.N,Net-(C9-Pad1)*%
X110680000Y-76700000D03*
%TO.P,C9,2*%
%TO.N,Net-(U1-FB)*%
X109720000Y-76700000D03*
%TD*%
D24*
%TO.P,R10,1*%
%TO.N,Net-(U1-FB)*%
X106210000Y-81100000D03*
%TO.P,R10,2*%
%TO.N,GND*%
X105190000Y-81100000D03*
%TD*%
D25*
%TO.P,C5,1*%
%TO.N,Net-(U1-ILIM)*%
X110500000Y-84650000D03*
%TO.P,C5,2*%
%TO.N,GND*%
X110500000Y-86550000D03*
%TD*%
D26*
%TO.P,U1,1,EN_UVLO*%
%TO.N,Net-(U1-EN_UVLO)*%
X109249999Y-78949999D03*
D27*
%TO.P,U1,2,RT*%
%TO.N,Net-(U1-RT)*%
X108350001Y-79350001D03*
%TO.P,U1,3,SS_TRK*%
%TO.N,Net-(U1-SS_TRK)*%
X108350001Y-79850000D03*
%TO.P,U1,4,COMP*%
%TO.N,Net-(U1-COMP)*%
X108350001Y-80349999D03*
%TO.P,U1,5,FB*%
%TO.N,Net-(U1-FB)*%
X108350001Y-80850000D03*
%TO.P,U1,6,AGND*%
%TO.N,GND*%
X108350001Y-81350000D03*
%TO.P,U1,7,SYNCOUT*%
%TO.N,unconnected-(U1-SYNCOUT-Pad7)*%
X108350001Y-81850001D03*
%TO.P,U1,8,SYNCIN*%
%TO.N,Net-(U1-SYNCIN)*%
X108350001Y-82350000D03*
%TO.P,U1,9,NC*%
%TO.N,GND*%
X108350001Y-82849999D03*
D26*
%TO.P,U1,10,PGOOD*%
%TO.N,Net-(U1-PGOOD)*%
X109249999Y-83250001D03*
%TO.P,U1,11,ILIM*%
%TO.N,Net-(U1-ILIM)*%
X110750001Y-83250001D03*
D27*
%TO.P,U1,12,PGND*%
%TO.N,GND*%
X111649999Y-82849999D03*
%TO.P,U1,13,LO*%
%TO.N,Net-(M1-G)*%
X111649999Y-82350000D03*
%TO.P,U1,14,VCC*%
%TO.N,Net-(U1-VCC)*%
X111649999Y-81850001D03*
%TO.P,U1,15,EP*%
%TO.N,GND*%
X111649999Y-81350000D03*
%TO.P,U1,16,NC*%
X111649999Y-80850000D03*
%TO.P,U1,17,BST*%
%TO.N,Net-(U1-BST)*%
X111649999Y-80349999D03*
%TO.P,U1,18,HO*%
%TO.N,Net-(M2-G)*%
X111649999Y-79850000D03*
%TO.P,U1,19,SW*%
%TO.N,Net-(M1-D)*%
X111649999Y-79350001D03*
D26*
%TO.P,U1,20,VIN*%
%TO.N,Net-(U1-VIN)*%
X110750001Y-78949999D03*
D28*
%TO.P,U1,21,EP*%
%TO.N,GND*%
X110000000Y-81100000D03*
%TD*%
D29*
%TO.P,C8,1*%
%TO.N,Net-(U1-COMP)*%
X107200000Y-80090000D03*
%TO.P,C8,2*%
%TO.N,Net-(U1-FB)*%
X107200000Y-81110000D03*
%TD*%
D21*
%TO.P,C6,1*%
%TO.N,Net-(U1-BST)*%
X113300000Y-80475000D03*
%TO.P,C6,2*%
%TO.N,Net-(M1-D)*%
X113300000Y-78925000D03*
%TD*%
D23*
%TO.P,C2,1*%
%TO.N,Net-(U1-SS_TRK)*%
X106180000Y-79100000D03*
%TO.P,C2,2*%
%TO.N,GND*%
X105220000Y-79100000D03*
%TD*%
D24*
%TO.P,C7,1*%
%TO.N,Net-(U1-COMP)*%
X106210000Y-80100000D03*
%TO.P,C7,2*%
%TO.N,Net-(C7-Pad2)*%
X105190000Y-80100000D03*
%TD*%
%TO.P,R11,1*%
%TO.N,+7.4V*%
X110710000Y-75600000D03*
%TO.P,R11,2*%
%TO.N,Net-(C9-Pad1)*%
X109690000Y-75600000D03*
%TD*%
D22*
%TO.P,R3,1*%
%TO.N,Net-(U1-RT)*%
X107125000Y-77800000D03*
%TO.P,R3,2*%
%TO.N,GND*%
X105475000Y-77800000D03*
%TD*%
D13*
%TO.P,R6,1*%
%TO.N,Net-(U1-VCC)*%
X108600000Y-86225000D03*
%TO.P,R6,2*%
%TO.N,Net-(U1-PGOOD)*%
X108600000Y-84575000D03*
%TD*%
D18*
%TO.P,M2,5,D*%
%TO.N,+BATT*%
X120100000Y-76855000D03*
D19*
%TO.P,M2,4,G*%
%TO.N,Net-(M2-G)*%
X121070000Y-78680000D03*
%TO.P,M2,3,S*%
%TO.N,Net-(M1-D)*%
X120430000Y-78680000D03*
%TO.P,M2,2,S*%
X119770000Y-78680000D03*
%TO.P,M2,1,S*%
X119130000Y-78680000D03*
%TD*%
D30*
%TO.P,C1,1*%
%TO.N,+BATT*%
X119800000Y-73975000D03*
%TO.P,C1,2*%
%TO.N,GND*%
X119800000Y-71025000D03*
%TD*%
D31*
%TO.N,GND*%
X118200000Y-82000000D03*
X101233335Y-66100000D03*
X124500000Y-82000000D03*
X140333335Y-86400000D03*
X109800000Y-82500000D03*
X138377775Y-84000000D03*
X116100000Y-71400000D03*
X140333335Y-84000000D03*
X136477775Y-84000000D03*
X115662500Y-83500000D03*
X122677775Y-66100000D03*
X122788890Y-86400000D03*
X116866665Y-66100000D03*
X140333335Y-79200000D03*
X122000000Y-82000000D03*
X123300000Y-82000000D03*
X111700000Y-83500000D03*
X124500000Y-83500000D03*
X114000000Y-72600000D03*
X126666665Y-88600000D03*
X140333335Y-81700000D03*
X130577775Y-88600000D03*
X115200000Y-72600000D03*
X116933335Y-86400000D03*
X146200000Y-84000000D03*
X114911110Y-66100000D03*
X120712500Y-83500000D03*
X120800000Y-88600000D03*
X116925000Y-83500000D03*
X124633335Y-66100000D03*
X107088890Y-66100000D03*
X103177775Y-66100000D03*
X122900000Y-71500000D03*
X132566665Y-84000000D03*
X118187500Y-83500000D03*
X107122220Y-88600000D03*
X142288890Y-86400000D03*
X110400000Y-78100000D03*
X108300000Y-76700000D03*
X101300000Y-75500000D03*
X130611110Y-86400000D03*
X134522220Y-86400000D03*
X146166665Y-88600000D03*
X120833335Y-86400000D03*
X140300000Y-88600000D03*
X103255555Y-77500000D03*
X103255555Y-79400000D03*
X138377775Y-86400000D03*
X130500000Y-66100000D03*
X132566665Y-86400000D03*
X99277775Y-66100000D03*
X128655555Y-84000000D03*
X124688890Y-71500000D03*
X114944440Y-88600000D03*
X122755555Y-88600000D03*
X121975000Y-83500000D03*
X136477775Y-86400000D03*
X109044445Y-66100000D03*
X144244445Y-86400000D03*
X114400000Y-83500000D03*
X105133335Y-66100000D03*
X126700000Y-86400000D03*
X101255555Y-88600000D03*
X130611110Y-84000000D03*
X120700000Y-82000000D03*
X108200000Y-78500000D03*
X112600000Y-72600000D03*
X109077775Y-88600000D03*
X112988885Y-88600000D03*
X103255555Y-81200000D03*
X126588890Y-66100000D03*
X117500000Y-71400000D03*
X142255555Y-88600000D03*
X144244445Y-84000000D03*
X119400000Y-82000000D03*
X101300000Y-81200000D03*
X136366670Y-71500000D03*
X114977775Y-86400000D03*
X144211110Y-88600000D03*
X99300000Y-88600000D03*
X142288890Y-84000000D03*
X142288890Y-79200000D03*
X107900000Y-83400000D03*
X134411115Y-71500000D03*
X134488885Y-88600000D03*
X105166665Y-88600000D03*
X110000000Y-79600000D03*
X111000000Y-66100000D03*
X118844440Y-88600000D03*
X103211110Y-88600000D03*
X111033330Y-88600000D03*
X138322225Y-71500000D03*
X136444440Y-88600000D03*
X118822220Y-66100000D03*
X112400000Y-81100000D03*
X123237500Y-83500000D03*
X132533330Y-88600000D03*
X119450000Y-83500000D03*
X128622220Y-88600000D03*
X124744445Y-86400000D03*
X130500000Y-71500000D03*
X120777775Y-66100000D03*
X134522220Y-84000000D03*
X99344445Y-81200000D03*
X128655555Y-86400000D03*
X128544445Y-66100000D03*
X112955555Y-66100000D03*
X128600000Y-71500000D03*
X126644445Y-71500000D03*
X132455560Y-71500000D03*
X146200000Y-86400000D03*
X124711110Y-88600000D03*
X116900000Y-88600000D03*
X118877775Y-86400000D03*
X138344440Y-88600000D03*
X99344445Y-75500000D03*
X142288890Y-81700000D03*
%TD*%
D32*
%TO.N,Net-(U1-SS_TRK)*%
X107300000Y-79100000D02*
X106180000Y-79100000D01*
X108350001Y-79850000D02*
X108050000Y-79850000D01*
X108050000Y-79850000D02*
X107300000Y-79100000D01*
%TO.N,Net-(U1-VCC)*%
X107000000Y-86225000D02*
X108600000Y-86225000D01*
X111175000Y-82100000D02*
X111424999Y-81850001D01*
X111000000Y-82700000D02*
X111175000Y-82525000D01*
X113069999Y-81850001D02*
X113100000Y-81820000D01*
X111175000Y-82525000D02*
X111175000Y-82100000D01*
X110525004Y-82700000D02*
X111000000Y-82700000D01*
X111649999Y-81850001D02*
X113069999Y-81850001D01*
X108600000Y-86225000D02*
X109500000Y-85325000D01*
X111424999Y-81850001D02*
X111649999Y-81850001D01*
X109500000Y-83725004D02*
X110525004Y-82700000D01*
X109500000Y-85325000D02*
X109500000Y-83725004D01*
%TO.N,Net-(U1-VIN)*%
X113075000Y-78000000D02*
X113700000Y-77375000D01*
X116275000Y-78050000D02*
X114850000Y-78050000D01*
X111375000Y-78503553D02*
X111878554Y-78000000D01*
X111050000Y-78650000D02*
X111228554Y-78650000D01*
X114175000Y-77375000D02*
X113700000Y-77375000D01*
X111228554Y-78650000D02*
X111375000Y-78503553D01*
X110750001Y-78949999D02*
X111050000Y-78650000D01*
X114850000Y-78050000D02*
X114175000Y-77375000D01*
X116900000Y-77425000D02*
X116275000Y-78050000D01*
X111878554Y-78000000D02*
X113075000Y-78000000D01*
%TO.N,Net-(U1-ILIM)*%
X110500000Y-84650000D02*
X112362500Y-86512500D01*
X110500000Y-84650000D02*
X110500000Y-84600000D01*
X110500000Y-84600000D02*
X110750001Y-84349999D01*
X110750001Y-84349999D02*
X110750001Y-83250001D01*
X112362500Y-86512500D02*
X112600000Y-86512500D01*
%TO.N,Net-(M1-D)*%
X125412500Y-84687500D02*
X130800000Y-79300000D01*
X111875000Y-78925000D02*
X113300000Y-78925000D01*
X112600000Y-84687500D02*
X125412500Y-84687500D01*
X111649999Y-79150001D02*
X111875000Y-78925000D01*
X111649999Y-79350001D02*
X111649999Y-79150001D01*
%TO.N,Net-(U1-BST)*%
X113174999Y-80349999D02*
X113300000Y-80475000D01*
X111649999Y-80349999D02*
X113174999Y-80349999D01*
%TO.N,Net-(C7-Pad2)*%
X105700000Y-80610000D02*
X105190000Y-80100000D01*
X105700000Y-81590000D02*
X105700000Y-80610000D01*
X105190000Y-82100000D02*
X105700000Y-81590000D01*
%TO.N,Net-(U1-COMP)*%
X107890000Y-80090000D02*
X107200000Y-80090000D01*
X106220000Y-80090000D02*
X106210000Y-80100000D01*
X108350001Y-80349999D02*
X108149999Y-80349999D01*
X107200000Y-80090000D02*
X106220000Y-80090000D01*
X108149999Y-80349999D02*
X107890000Y-80090000D01*
%TO.N,Net-(U1-FB)*%
X108350001Y-80850000D02*
X108525001Y-80850000D01*
X107200000Y-81110000D02*
X107460000Y-80850000D01*
X107190000Y-81100000D02*
X107200000Y-81110000D01*
X106210000Y-82100000D02*
X106210000Y-81100000D01*
X106210000Y-81100000D02*
X107190000Y-81100000D01*
X109720000Y-76700000D02*
X108875000Y-75855000D01*
X108525001Y-80850000D02*
X108900000Y-80475001D01*
X107460000Y-80850000D02*
X108350001Y-80850000D01*
X108900000Y-80475001D02*
X108900000Y-77520000D01*
X108875000Y-75855000D02*
X108875000Y-74100000D01*
X108900000Y-77520000D02*
X109720000Y-76700000D01*
%TO.N,Net-(C9-Pad1)*%
X109690000Y-75710000D02*
X109690000Y-75600000D01*
X110680000Y-76700000D02*
X109690000Y-75710000D01*
D33*
%TO.N,+7.4V*%
X110710000Y-75600000D02*
X110710000Y-74285000D01*
X110710000Y-74285000D02*
X110525000Y-74100000D01*
D32*
%TO.N,Net-(M1-G)*%
X111699999Y-82300000D02*
X113379358Y-82300000D01*
X114479358Y-81200000D02*
X116894999Y-81200000D01*
X113379358Y-82300000D02*
X114479358Y-81200000D01*
X116894999Y-81200000D02*
X117080000Y-81385001D01*
X111649999Y-82350000D02*
X111699999Y-82300000D01*
X117080000Y-81385001D02*
X117080000Y-81700000D01*
%TO.N,Net-(M2-G)*%
X111932108Y-78300000D02*
X111100000Y-79132108D01*
X111474999Y-79850000D02*
X111649999Y-79850000D01*
X111100000Y-79475001D02*
X111474999Y-79850000D01*
X121070000Y-78255000D02*
X121000000Y-78185000D01*
X121000000Y-78185000D02*
X116493554Y-78185000D01*
X111100000Y-79132108D02*
X111100000Y-79475001D01*
X116378554Y-78300000D02*
X111932108Y-78300000D01*
X116493554Y-78185000D02*
X116378554Y-78300000D01*
X121070000Y-78680000D02*
X121070000Y-78255000D01*
%TO.N,Net-(U1-EN_UVLO)*%
X109249999Y-78949999D02*
X109249999Y-78150001D01*
X112100000Y-77425000D02*
X112100000Y-77100000D01*
X109249999Y-78150001D02*
X109975000Y-77425000D01*
X109249999Y-78949999D02*
X109200000Y-78900000D01*
X109975000Y-77425000D02*
X112100000Y-77425000D01*
X112450000Y-76750000D02*
X114625000Y-76750000D01*
X109249999Y-78949999D02*
X109250000Y-78950000D01*
X114625000Y-76750000D02*
X115300000Y-77425000D01*
X112100000Y-77100000D02*
X112450000Y-76750000D01*
%TO.N,Net-(U1-RT)*%
X107125000Y-77800000D02*
X107125000Y-78571446D01*
X107903555Y-79350001D02*
X108350001Y-79350001D01*
X107125000Y-78571446D02*
X107903555Y-79350001D01*
%TO.N,Net-(U1-SYNCIN)*%
X107000000Y-82500000D02*
X107150000Y-82350000D01*
X107000000Y-84575000D02*
X107000000Y-82500000D01*
X107150000Y-82350000D02*
X108350001Y-82350000D01*
%TO.N,Net-(U1-PGOOD)*%
X108600000Y-83600000D02*
X108949999Y-83250001D01*
X108600000Y-84575000D02*
X108600000Y-83600000D01*
X108949999Y-83250001D02*
X109249999Y-83250001D01*
%TD*%
%TA.AperFunction,Conductor*%
%TO.N,+BATT*%
G36*
X118600000Y-76500000D02*
G01*
X115051362Y-76500000D01*
X114984323Y-76480315D01*
X114963681Y-76463681D01*
X114836319Y-76336319D01*
X114802834Y-76274996D01*
X114800000Y-76248638D01*
X114800000Y-74900000D01*
X118600000Y-74900000D01*
X118600000Y-76500000D01*
G37*
%TD.AperFunction*%
%TD*%
%TA.AperFunction,Conductor*%
%TO.N,+BATT*%
G36*
X141976488Y-72899515D02*
G01*
X142043448Y-72919462D01*
X142088996Y-72972445D01*
X142100000Y-73023514D01*
X142100000Y-76776000D01*
X142080315Y-76843039D01*
X142027511Y-76888794D01*
X141976000Y-76900000D01*
X121999999Y-76900000D01*
X121136319Y-77763681D01*
X121074996Y-77797166D01*
X121048638Y-77800000D01*
X118324000Y-77800000D01*
X118256961Y-77780315D01*
X118211206Y-77727511D01*
X118200000Y-77676000D01*
X118200000Y-76500000D01*
X118600000Y-76500000D01*
X118600000Y-74900000D01*
X114800000Y-74900000D01*
X114800000Y-74358078D01*
X114819685Y-74291039D01*
X114844617Y-74262819D01*
X116331783Y-73023514D01*
X116565300Y-72828916D01*
X116629402Y-72801121D01*
X116645165Y-72800177D01*
X141976488Y-72899515D01*
G37*
%TD.AperFunction*%
%TD*%
%TA.AperFunction,Conductor*%
%TO.N,+7.4V*%
G36*
X124415677Y-67119685D02*
G01*
X124436319Y-67136319D01*
X124563681Y-67263681D01*
X124597166Y-67325004D01*
X124600000Y-67351362D01*
X124600000Y-70048638D01*
X124580315Y-70115677D01*
X124563681Y-70136319D01*
X124436319Y-70263681D01*
X124374996Y-70297166D01*
X124348638Y-70300000D01*
X122328252Y-70300000D01*
X122274538Y-70287762D01*
X122000522Y-70156063D01*
X121957411Y-70121764D01*
X121952541Y-70115677D01*
X121824939Y-69956174D01*
X121700000Y-69800000D01*
X121500000Y-69800000D01*
X121499999Y-69800000D01*
X114899999Y-69800000D01*
X114700000Y-69800000D01*
X114700000Y-69999999D01*
X114700000Y-71248638D01*
X114680315Y-71315677D01*
X114663681Y-71336319D01*
X114536319Y-71463681D01*
X114474996Y-71497166D01*
X114448638Y-71500000D01*
X107400000Y-71500000D01*
X107400000Y-73199999D01*
X107400000Y-75633913D01*
X107390561Y-75681366D01*
X107319655Y-75852547D01*
X107275814Y-75906950D01*
X107252547Y-75919655D01*
X107081367Y-75990561D01*
X107033914Y-76000000D01*
X105224665Y-76000000D01*
X105177212Y-75990561D01*
X104881365Y-75868017D01*
X104841137Y-75841137D01*
X103658862Y-74658862D01*
X103631982Y-74618633D01*
X103509439Y-74322786D01*
X103500000Y-74275334D01*
X103500000Y-68924665D01*
X103509439Y-68877213D01*
X103631982Y-68581366D01*
X103658859Y-68541140D01*
X104941140Y-67258859D01*
X104981364Y-67231982D01*
X105212318Y-67136319D01*
X105277213Y-67109439D01*
X105324665Y-67100000D01*
X124348638Y-67100000D01*
X124415677Y-67119685D01*
G37*
%TD.AperFunction*%
%TD*%
%TA.AperFunction,Conductor*%
%TO.N,GND*%
G36*
X148243039Y-65319685D02*
G01*
X148288794Y-65372489D01*
X148300000Y-65424000D01*
X148300000Y-89376000D01*
X148280315Y-89443039D01*
X148227511Y-89488794D01*
X148176000Y-89500000D01*
X97924000Y-89500000D01*
X97856961Y-89480315D01*
X97811206Y-89427511D01*
X97800000Y-89376000D01*
X97800000Y-78500000D01*
X98394592Y-78500000D01*
X98414201Y-78786680D01*
X98414201Y-78786684D01*
X98414202Y-78786686D01*
X98422060Y-78824500D01*
X98472666Y-79068034D01*
X98472667Y-79068037D01*
X98568894Y-79338793D01*
X98568893Y-79338793D01*
X98701098Y-79593935D01*
X98866812Y-79828700D01*
X98910692Y-79875683D01*
X99062947Y-80038708D01*
X99241411Y-80183899D01*
X99285853Y-80220055D01*
X99531382Y-80369365D01*
X99718237Y-80450526D01*
X99794942Y-80483844D01*
X100071642Y-80561371D01*
X100321920Y-80595771D01*
X100356321Y-80600500D01*
X100356322Y-80600500D01*
X100643679Y-80600500D01*
X100674370Y-80596281D01*
X100928358Y-80561371D01*
X101205058Y-80483844D01*
X101351112Y-80420404D01*
X101468617Y-80369365D01*
X101468620Y-80369363D01*
X101468625Y-80369361D01*
X101714147Y-80220055D01*
X101937053Y-80038708D01*
X102133189Y-79828698D01*
X102298901Y-79593936D01*
X102431104Y-79338797D01*
X102527334Y-79068032D01*
X102585798Y-78786686D01*
X102605408Y-78500000D01*
X102585798Y-78213314D01*
X102527334Y-77931968D01*
X102431105Y-77661206D01*
X102431106Y-77661206D01*
X102298901Y-77406064D01*
X102133187Y-77171299D01*
X102038571Y-77069991D01*
X101937053Y-76961292D01*
X101746861Y-76806560D01*
X101714146Y-76779944D01*
X101468617Y-76630634D01*
X101205063Y-76516158D01*
X101205061Y-76516157D01*
X101205058Y-76516156D01*
X101056388Y-76474501D01*
X100928364Y-76438630D01*
X100928359Y-76438629D01*
X100928358Y-76438629D01*
X100786018Y-76419064D01*
X100643679Y-76399500D01*
X100643678Y-76399500D01*
X100356322Y-76399500D01*
X100356321Y-76399500D01*
X100071642Y-76438629D01*
X100071635Y-76438630D01*
X99887938Y-76490100D01*
X99794942Y-76516156D01*
X99794939Y-76516156D01*
X99794936Y-76516158D01*
X99794935Y-76516158D01*
X99531382Y-76630634D01*
X99285853Y-76779944D01*
X99062950Y-76961289D01*
X98866812Y-77171299D01*
X98701098Y-77406064D01*
X98568894Y-77661206D01*
X98472667Y-77931962D01*
X98472666Y-77931965D01*
X98435567Y-78110500D01*
X98416906Y-78200304D01*
X98414201Y-78213319D01*
X98394592Y-78500000D01*
X97800000Y-78500000D01*
X97800000Y-74199388D01*
X97819685Y-74132349D01*
X97872489Y-74086594D01*
X97941647Y-74076650D01*
X98005203Y-74105675D01*
X98037434Y-74149302D01*
X98047793Y-74172764D01*
X98047794Y-74172765D01*
X98127235Y-74252206D01*
X98230009Y-74297585D01*
X98255135Y-74300500D01*
X103093003Y-74300499D01*
X103160042Y-74320184D01*
X103205797Y-74372988D01*
X103211663Y-74388501D01*
X103227194Y-74439696D01*
X103327862Y-74682730D01*
X103349737Y-74735542D01*
X103377968Y-74788359D01*
X103404848Y-74828588D01*
X103404853Y-74828595D01*
X103442846Y-74874889D01*
X104625110Y-76057153D01*
X104625115Y-76057157D01*
X104625116Y-76057158D01*
X104671408Y-76095149D01*
X104671416Y-76095154D01*
X104671421Y-76095158D01*
X104711624Y-76122022D01*
X104711634Y-76122028D01*
X104711636Y-76122029D01*
X104764455Y-76150262D01*
X104913284Y-76211909D01*
X105060299Y-76272805D01*
X105060301Y-76272805D01*
X105060302Y-76272806D01*
X105117612Y-76290191D01*
X105165065Y-76299630D01*
X105224665Y-76305500D01*
X105224667Y-76305500D01*
X107033912Y-76305500D01*
X107033914Y-76305500D01*
X107093514Y-76299630D01*
X107140967Y-76290191D01*
X107198278Y-76272806D01*
X107369458Y-76201900D01*
X107398960Y-76187785D01*
X107422227Y-76175080D01*
X107428378Y-76171628D01*
X107513688Y-76098643D01*
X107557529Y-76044240D01*
X107601900Y-75969458D01*
X107672806Y-75798277D01*
X107690191Y-75740966D01*
X107699630Y-75693513D01*
X107705500Y-75633913D01*
X107705500Y-73429500D01*
X107725185Y-73362461D01*
X107777989Y-73316706D01*
X107829500Y-73305500D01*
X108328745Y-73305500D01*
X108395784Y-73325185D01*
X108441539Y-73377989D01*
X108451483Y-73447147D01*
X108422458Y-73510703D01*
X108416426Y-73517181D01*
X108346954Y-73586652D01*
X108346951Y-73586657D01*
X108289352Y-73699698D01*
X108274500Y-73793475D01*
X108274500Y-74406517D01*
X108285292Y-74474657D01*
X108289354Y-74500304D01*
X108346950Y-74613342D01*
X108346952Y-74613344D01*
X108346954Y-74613347D01*
X108436652Y-74703045D01*
X108436656Y-74703048D01*
X108436658Y-74703050D01*
X108531797Y-74751526D01*
X108582591Y-74799499D01*
X108599500Y-74862009D01*
X108599500Y-75909802D01*
X108633048Y-75990793D01*
X108641442Y-76011057D01*
X108641443Y-76011059D01*
X109203181Y-76572796D01*
X109236666Y-76634119D01*
X109239500Y-76660477D01*
X109239500Y-76739521D01*
X109219815Y-76806560D01*
X109203181Y-76827202D01*
X108743942Y-77286443D01*
X108666444Y-77363940D01*
X108624500Y-77465199D01*
X108624500Y-78900501D01*
X108604815Y-78967540D01*
X108552011Y-79013295D01*
X108500500Y-79024501D01*
X108024161Y-79024501D01*
X108024161Y-79022948D01*
X107962977Y-79011333D01*
X107931810Y-78988641D01*
X107540189Y-78597020D01*
X107506704Y-78535697D01*
X107511688Y-78466005D01*
X107553560Y-78410072D01*
X107555506Y-78408860D01*
X107555450Y-78408783D01*
X107563335Y-78403053D01*
X107563342Y-78403050D01*
X107653050Y-78313342D01*
X107710646Y-78200304D01*
X107710646Y-78200302D01*
X107710647Y-78200301D01*
X107725499Y-78106524D01*
X107725500Y-78106519D01*
X107725499Y-77493482D01*
X107710646Y-77399696D01*
X107653050Y-77286658D01*
X107653046Y-77286654D01*
X107653045Y-77286652D01*
X107563347Y-77196954D01*
X107563344Y-77196952D01*
X107563342Y-77196950D01*
X107470217Y-77149500D01*
X107450301Y-77139352D01*
X107356524Y-77124500D01*
X106893482Y-77124500D01*
X106812519Y-77137323D01*
X106799696Y-77139354D01*
X106686658Y-77196950D01*
X106686657Y-77196951D01*
X106686652Y-77196954D01*
X106596954Y-77286652D01*
X106596951Y-77286657D01*
X106596950Y-77286658D01*
X106591382Y-77297586D01*
X106539352Y-77399698D01*
X106524500Y-77493475D01*
X106524500Y-78106517D01*
X106535292Y-78174657D01*
X106539354Y-78200304D01*
X106596950Y-78313342D01*
X106596952Y-78313344D01*
X106596954Y-78313347D01*
X106686652Y-78403045D01*
X106686656Y-78403048D01*
X106686658Y-78403050D01*
X106781797Y-78451526D01*
X106832591Y-78499499D01*
X106849500Y-78562009D01*
X106849500Y-78626248D01*
X106860601Y-78653047D01*
X106868070Y-78722516D01*
X106836795Y-78784996D01*
X106776706Y-78820648D01*
X106746040Y-78824500D01*
X106725501Y-78824500D01*
X106658462Y-78804815D01*
X106613120Y-78752906D01*
X106603224Y-78731684D01*
X106518316Y-78646776D01*
X106409487Y-78596028D01*
X106409485Y-78596027D01*
X106409486Y-78596027D01*
X106359902Y-78589500D01*
X106000105Y-78589500D01*
X105984386Y-78591569D01*
X105950513Y-78596028D01*
X105950511Y-78596029D01*
X105950509Y-78596029D01*
X105841683Y-78646776D01*
X105756776Y-78731683D01*
X105706027Y-78840514D01*
X105699500Y-78890098D01*
X105699500Y-79309894D01*
X105699501Y-79309900D01*
X105706028Y-79359487D01*
X105706029Y-79359489D01*
X105706029Y-79359490D01*
X105756776Y-79468316D01*
X105814314Y-79525854D01*
X105847799Y-79587177D01*
X105842815Y-79656869D01*
X105814316Y-79701215D01*
X105795935Y-79719596D01*
X105795934Y-79719597D01*
X105788266Y-79727266D01*
X105785442Y-79724442D01*
X105746958Y-79755183D01*
X105677458Y-79762352D01*
X105615114Y-79730808D01*
X105611901Y-79727101D01*
X105611736Y-79727267D01*
X105520404Y-79635935D01*
X105501865Y-79627290D01*
X105413173Y-79585932D01*
X105413171Y-79585931D01*
X105413172Y-79585931D01*
X105364317Y-79579500D01*
X105364316Y-79579500D01*
X105015684Y-79579500D01*
X105015683Y-79579500D01*
X104966828Y-79585931D01*
X104859595Y-79635935D01*
X104775935Y-79719595D01*
X104725931Y-79826828D01*
X104719500Y-79875683D01*
X104719500Y-80324316D01*
X104725931Y-80373171D01*
X104725932Y-80373173D01*
X104775935Y-80480404D01*
X104859596Y-80564065D01*
X104966827Y-80614068D01*
X105015683Y-80620500D01*
X105015684Y-80620500D01*
X105269523Y-80620500D01*
X105336562Y-80640185D01*
X105357204Y-80656819D01*
X105388181Y-80687796D01*
X105421666Y-80749119D01*
X105424500Y-80775477D01*
X105424500Y-81424523D01*
X105404815Y-81491562D01*
X105388181Y-81512204D01*
X105357204Y-81543181D01*
X105295881Y-81576666D01*
X105269523Y-81579500D01*
X105015683Y-81579500D01*
X104966828Y-81585931D01*
X104859595Y-81635935D01*
X104775935Y-81719595D01*
X104725931Y-81826828D01*
X104719500Y-81875683D01*
X104719500Y-82324316D01*
X104725931Y-82373171D01*
X104759519Y-82445200D01*
X104775935Y-82480404D01*
X104859596Y-82564065D01*
X104966827Y-82614068D01*
X105015683Y-82620500D01*
X105015684Y-82620500D01*
X105364317Y-82620500D01*
X105380601Y-82618356D01*
X105413173Y-82614068D01*
X105520404Y-82564065D01*
X105604065Y-82480404D01*
X105604065Y-82480403D01*
X105611736Y-82472733D01*
X105614564Y-82475561D01*
X105652977Y-82444843D01*
X105722474Y-82437635D01*
X105784835Y-82469143D01*
X105788093Y-82472903D01*
X105788264Y-82472733D01*
X105795935Y-82480404D01*
X105879596Y-82564065D01*
X105986827Y-82614068D01*
X106035683Y-82620500D01*
X106035684Y-82620500D01*
X106384317Y-82620500D01*
X106400601Y-82618356D01*
X106433173Y-82614068D01*
X106540404Y-82564065D01*
X106540405Y-82564063D01*
X106548095Y-82560478D01*
X106617172Y-82549986D01*
X106680956Y-82578505D01*
X106719196Y-82636982D01*
X106724500Y-82672860D01*
X106724500Y-83863681D01*
X106704815Y-83930720D01*
X106652011Y-83976475D01*
X106619897Y-83986154D01*
X106599700Y-83989352D01*
X106599699Y-83989352D01*
X106544297Y-84017580D01*
X106486658Y-84046950D01*
X106486657Y-84046951D01*
X106486652Y-84046954D01*
X106396954Y-84136652D01*
X106396951Y-84136657D01*
X106339352Y-84249698D01*
X106324500Y-84343475D01*
X106324500Y-84806517D01*
X106330367Y-84843558D01*
X106339354Y-84900304D01*
X106396950Y-85013342D01*
X106396952Y-85013344D01*
X106396954Y-85013347D01*
X106486652Y-85103045D01*
X106486654Y-85103046D01*
X106486658Y-85103050D01*
X106599694Y-85160645D01*
X106599698Y-85160647D01*
X106693475Y-85175499D01*
X106693481Y-85175500D01*
X107306518Y-85175499D01*
X107400304Y-85160646D01*
X107513342Y-85103050D01*
X107603050Y-85013342D01*
X107660646Y-84900304D01*
X107660646Y-84900302D01*
X107660647Y-84900301D01*
X107675499Y-84806524D01*
X107675500Y-84806519D01*
X107675499Y-84343482D01*
X107660646Y-84249696D01*
X107603050Y-84136658D01*
X107603046Y-84136654D01*
X107603045Y-84136652D01*
X107513347Y-84046954D01*
X107513344Y-84046952D01*
X107513342Y-84046950D01*
X107400304Y-83989354D01*
X107400302Y-83989353D01*
X107400301Y-83989353D01*
X107380100Y-83986153D01*
X107316965Y-83956222D01*
X107280035Y-83896910D01*
X107275500Y-83863680D01*
X107275500Y-82749500D01*
X107295185Y-82682461D01*
X107347989Y-82636706D01*
X107399500Y-82625500D01*
X107876735Y-82625500D01*
X107943774Y-82645185D01*
X107945596Y-82646377D01*
X107971770Y-82663867D01*
X107971772Y-82663867D01*
X107971773Y-82663868D01*
X107971771Y-82663868D01*
X108030248Y-82675499D01*
X108030251Y-82675500D01*
X108030253Y-82675500D01*
X108669751Y-82675500D01*
X108669752Y-82675499D01*
X108684569Y-82672552D01*
X108728230Y-82663868D01*
X108728230Y-82663867D01*
X108728232Y-82663867D01*
X108794553Y-82619552D01*
X108838868Y-82553231D01*
X108838868Y-82553229D01*
X108838869Y-82553229D01*
X108850500Y-82494752D01*
X108850501Y-82494750D01*
X108850501Y-82205249D01*
X108850500Y-82205247D01*
X108836486Y-82134790D01*
X108837763Y-82134535D01*
X108831681Y-82077991D01*
X108838696Y-82054099D01*
X108850500Y-81994753D01*
X108850501Y-81994751D01*
X108850501Y-81705250D01*
X108850500Y-81705248D01*
X108838869Y-81646771D01*
X108838868Y-81646770D01*
X108794553Y-81580448D01*
X108728231Y-81536133D01*
X108728230Y-81536132D01*
X108669753Y-81524501D01*
X108669749Y-81524501D01*
X108030253Y-81524501D01*
X108030248Y-81524501D01*
X107971771Y-81536132D01*
X107971770Y-81536133D01*
X107905448Y-81580448D01*
X107861133Y-81646770D01*
X107861132Y-81646771D01*
X107849501Y-81705248D01*
X107849501Y-81950500D01*
X107829816Y-82017539D01*
X107777012Y-82063294D01*
X107725501Y-82074500D01*
X107095199Y-82074500D01*
X106993940Y-82116444D01*
X106892181Y-82218204D01*
X106830858Y-82251689D01*
X106761166Y-82246705D01*
X106705233Y-82204833D01*
X106680816Y-82139369D01*
X106680500Y-82130523D01*
X106680500Y-81875683D01*
X106674688Y-81831534D01*
X106674068Y-81826827D01*
X106624065Y-81719596D01*
X106592150Y-81687681D01*
X106558665Y-81626358D01*
X106563649Y-81556666D01*
X106592150Y-81512319D01*
X106612319Y-81492150D01*
X106673642Y-81458665D01*
X106743334Y-81463649D01*
X106787681Y-81492150D01*
X106819596Y-81524065D01*
X106926827Y-81574068D01*
X106975683Y-81580500D01*
X106975684Y-81580500D01*
X107424317Y-81580500D01*
X107440601Y-81578356D01*
X107473173Y-81574068D01*
X107580404Y-81524065D01*
X107664065Y-81440404D01*
X107714068Y-81333173D01*
X107720500Y-81284316D01*
X107720500Y-81249500D01*
X107740185Y-81182461D01*
X107792989Y-81136706D01*
X107844500Y-81125500D01*
X107876735Y-81125500D01*
X107943774Y-81145185D01*
X107945596Y-81146377D01*
X107971770Y-81163867D01*
X107971772Y-81163867D01*
X107971773Y-81163868D01*
X107971771Y-81163868D01*
X108030248Y-81175499D01*
X108030251Y-81175500D01*
X108030253Y-81175500D01*
X108669751Y-81175500D01*
X108669752Y-81175499D01*
X108684569Y-81172552D01*
X108728230Y-81163868D01*
X108728230Y-81163867D01*
X108728232Y-81163867D01*
X108794553Y-81119552D01*
X108838868Y-81053231D01*
X108838868Y-81053229D01*
X108838869Y-81053229D01*
X108850500Y-80994752D01*
X108850501Y-80994750D01*
X108850501Y-80965477D01*
X108870186Y-80898438D01*
X108886820Y-80877796D01*
X108991138Y-80773478D01*
X109133558Y-80631059D01*
X109133558Y-80631057D01*
X109133560Y-80631056D01*
X109156985Y-80574500D01*
X109175500Y-80529801D01*
X109175500Y-80420201D01*
X109175500Y-80420200D01*
X109175500Y-79574499D01*
X109195185Y-79507460D01*
X109247989Y-79461705D01*
X109299500Y-79450499D01*
X109394749Y-79450499D01*
X109394750Y-79450498D01*
X109411855Y-79447096D01*
X109453228Y-79438867D01*
X109453228Y-79438866D01*
X109453230Y-79438866D01*
X109519551Y-79394551D01*
X109563866Y-79328230D01*
X109563866Y-79328228D01*
X109563867Y-79328228D01*
X109575498Y-79269751D01*
X109575499Y-79269749D01*
X109575499Y-78630248D01*
X109575498Y-78630246D01*
X109563867Y-78571772D01*
X109563866Y-78571769D01*
X109563866Y-78571768D01*
X109546395Y-78545621D01*
X109525519Y-78478946D01*
X109525499Y-78476733D01*
X109525499Y-78315478D01*
X109545184Y-78248439D01*
X109561818Y-78227797D01*
X110052797Y-77736819D01*
X110114120Y-77703334D01*
X110140478Y-77700500D01*
X111337990Y-77700500D01*
X111405029Y-77720185D01*
X111448475Y-77768205D01*
X111499472Y-77868292D01*
X111512368Y-77936961D01*
X111486092Y-78001702D01*
X111476668Y-78012268D01*
X111201503Y-78287431D01*
X111201499Y-78287437D01*
X111150757Y-78338180D01*
X111089434Y-78371666D01*
X111063075Y-78374500D01*
X110995200Y-78374500D01*
X110995198Y-78374500D01*
X110995196Y-78374501D01*
X110893944Y-78416439D01*
X110883791Y-78423225D01*
X110882458Y-78421231D01*
X110835881Y-78446665D01*
X110809523Y-78449499D01*
X110605248Y-78449499D01*
X110546771Y-78461130D01*
X110546770Y-78461131D01*
X110480448Y-78505446D01*
X110436133Y-78571768D01*
X110436132Y-78571769D01*
X110424501Y-78630246D01*
X110424501Y-79269751D01*
X110436132Y-79328228D01*
X110436133Y-79328229D01*
X110480448Y-79394551D01*
X110546770Y-79438866D01*
X110546771Y-79438867D01*
X110605248Y-79450498D01*
X110605251Y-79450499D01*
X110605253Y-79450499D01*
X110708797Y-79450499D01*
X110775836Y-79470184D01*
X110821591Y-79522988D01*
X110823357Y-79527045D01*
X110855222Y-79603971D01*
X110855223Y-79603972D01*
X110866443Y-79631060D01*
X111113180Y-79877796D01*
X111146665Y-79939119D01*
X111149499Y-79965477D01*
X111149499Y-79994752D01*
X111163514Y-80065210D01*
X111162237Y-80065463D01*
X111168316Y-80122019D01*
X111161303Y-80145900D01*
X111149499Y-80205246D01*
X111149499Y-80494751D01*
X111161130Y-80553228D01*
X111161131Y-80553229D01*
X111205446Y-80619551D01*
X111271768Y-80663866D01*
X111271769Y-80663867D01*
X111330246Y-80675498D01*
X111330249Y-80675499D01*
X111330251Y-80675499D01*
X111969749Y-80675499D01*
X111969750Y-80675498D01*
X111994341Y-80670607D01*
X112028227Y-80663867D01*
X112028227Y-80663866D01*
X112028230Y-80663866D01*
X112054374Y-80646396D01*
X112121051Y-80625519D01*
X112123265Y-80625499D01*
X112501490Y-80625499D01*
X112568529Y-80645184D01*
X112614284Y-80697988D01*
X112623963Y-80730101D01*
X112640279Y-80833121D01*
X112640280Y-80833124D01*
X112640281Y-80833126D01*
X112679322Y-80909748D01*
X112701473Y-80953221D01*
X112701476Y-80953225D01*
X112796774Y-81048523D01*
X112796778Y-81048526D01*
X112796780Y-81048528D01*
X112913934Y-81108221D01*
X112964728Y-81156193D01*
X112981523Y-81224014D01*
X112958986Y-81290149D01*
X112904271Y-81333601D01*
X112873821Y-81341643D01*
X112840516Y-81346027D01*
X112840509Y-81346029D01*
X112731683Y-81396776D01*
X112646777Y-81481682D01*
X112646776Y-81481683D01*
X112646776Y-81481684D01*
X112640481Y-81495185D01*
X112636880Y-81502907D01*
X112590707Y-81555345D01*
X112524498Y-81574501D01*
X112123265Y-81574501D01*
X112056226Y-81554816D01*
X112054403Y-81553623D01*
X112028230Y-81536134D01*
X112028228Y-81536133D01*
X112028226Y-81536132D01*
X112028228Y-81536132D01*
X111969751Y-81524501D01*
X111969747Y-81524501D01*
X111330251Y-81524501D01*
X111330246Y-81524501D01*
X111271769Y-81536132D01*
X111271768Y-81536133D01*
X111205446Y-81580448D01*
X111161131Y-81646770D01*
X111161131Y-81646771D01*
X111149230Y-81706601D01*
X111116845Y-81768512D01*
X111115295Y-81770090D01*
X111018942Y-81866443D01*
X110941444Y-81943940D01*
X110899500Y-82045199D01*
X110899500Y-82300500D01*
X110879815Y-82367539D01*
X110827011Y-82413294D01*
X110775500Y-82424500D01*
X110579804Y-82424500D01*
X110470204Y-82424500D01*
X110470202Y-82424500D01*
X110470200Y-82424501D01*
X110368948Y-82466439D01*
X110368946Y-82466441D01*
X109787180Y-83048208D01*
X109725857Y-83081693D01*
X109656165Y-83076709D01*
X109600232Y-83034837D01*
X109575815Y-82969373D01*
X109575499Y-82960527D01*
X109575499Y-82930250D01*
X109575498Y-82930248D01*
X109563867Y-82871771D01*
X109563866Y-82871770D01*
X109519551Y-82805448D01*
X109453229Y-82761133D01*
X109453228Y-82761132D01*
X109394751Y-82749501D01*
X109394747Y-82749501D01*
X109105251Y-82749501D01*
X109105246Y-82749501D01*
X109046769Y-82761132D01*
X109046768Y-82761133D01*
X108980446Y-82805448D01*
X108936131Y-82871770D01*
X108930467Y-82900244D01*
X108898080Y-82962154D01*
X108856306Y-82990610D01*
X108830249Y-83001403D01*
X108823598Y-83004159D01*
X108793938Y-83016444D01*
X108443942Y-83366443D01*
X108366444Y-83443940D01*
X108324500Y-83545199D01*
X108324500Y-83863681D01*
X108304815Y-83930720D01*
X108252011Y-83976475D01*
X108219897Y-83986154D01*
X108199700Y-83989352D01*
X108199699Y-83989352D01*
X108144297Y-84017580D01*
X108086658Y-84046950D01*
X108086657Y-84046951D01*
X108086652Y-84046954D01*
X107996954Y-84136652D01*
X107996951Y-84136657D01*
X107939352Y-84249698D01*
X107924500Y-84343475D01*
X107924500Y-84806517D01*
X107930367Y-84843558D01*
X107939354Y-84900304D01*
X107996950Y-85013342D01*
X107996952Y-85013344D01*
X107996954Y-85013347D01*
X108086652Y-85103045D01*
X108086654Y-85103046D01*
X108086658Y-85103050D01*
X108199694Y-85160645D01*
X108199698Y-85160647D01*
X108293475Y-85175499D01*
X108293481Y-85175500D01*
X108906518Y-85175499D01*
X108906522Y-85175499D01*
X108949450Y-85168700D01*
X109018744Y-85177655D01*
X109072196Y-85222651D01*
X109092835Y-85289403D01*
X109074110Y-85356716D01*
X109056529Y-85378854D01*
X108847202Y-85588181D01*
X108785879Y-85621666D01*
X108759521Y-85624500D01*
X108293482Y-85624500D01*
X108212519Y-85637323D01*
X108199696Y-85639354D01*
X108086658Y-85696950D01*
X108086657Y-85696951D01*
X108086652Y-85696954D01*
X107996954Y-85786652D01*
X107996949Y-85786659D01*
X107948474Y-85881796D01*
X107900500Y-85932591D01*
X107837990Y-85949500D01*
X107762010Y-85949500D01*
X107694971Y-85929815D01*
X107651526Y-85881796D01*
X107626426Y-85832537D01*
X107603050Y-85786658D01*
X107603047Y-85786655D01*
X107603045Y-85786652D01*
X107513347Y-85696954D01*
X107513344Y-85696952D01*
X107513342Y-85696950D01*
X107436517Y-85657805D01*
X107400301Y-85639352D01*
X107306524Y-85624500D01*
X106693482Y-85624500D01*
X106612519Y-85637323D01*
X106599696Y-85639354D01*
X106486658Y-85696950D01*
X106486657Y-85696951D01*
X106486652Y-85696954D01*
X106396954Y-85786652D01*
X106396951Y-85786657D01*
X106396950Y-85786658D01*
X106377751Y-85824337D01*
X106339352Y-85899698D01*
X106324500Y-85993475D01*
X106324500Y-86456517D01*
X106331466Y-86500500D01*
X106339354Y-86550304D01*
X106396950Y-86663342D01*
X106396952Y-86663344D01*
X106396954Y-86663347D01*
X106486652Y-86753045D01*
X106486654Y-86753046D01*
X106486658Y-86753050D01*
X106599694Y-86810645D01*
X106599698Y-86810647D01*
X106693475Y-86825499D01*
X106693481Y-86825500D01*
X107306518Y-86825499D01*
X107400304Y-86810646D01*
X107513342Y-86753050D01*
X107603050Y-86663342D01*
X107634592Y-86601436D01*
X107651526Y-86568204D01*
X107699500Y-86517409D01*
X107762010Y-86500500D01*
X107837990Y-86500500D01*
X107905029Y-86520185D01*
X107948474Y-86568204D01*
X107996949Y-86663340D01*
X107996954Y-86663347D01*
X108086652Y-86753045D01*
X108086654Y-86753046D01*
X108086658Y-86753050D01*
X108199694Y-86810645D01*
X108199698Y-86810647D01*
X108293475Y-86825499D01*
X108293481Y-86825500D01*
X108906518Y-86825499D01*
X109000304Y-86810646D01*
X109113342Y-86753050D01*
X109203050Y-86663342D01*
X109260646Y-86550304D01*
X109260646Y-86550302D01*
X109260647Y-86550301D01*
X109275499Y-86456524D01*
X109275500Y-86456519D01*
X109275499Y-85993482D01*
X109275499Y-85993481D01*
X109275499Y-85990478D01*
X109295183Y-85923439D01*
X109311818Y-85902797D01*
X109517662Y-85696954D01*
X109733557Y-85481059D01*
X109745841Y-85451400D01*
X109763134Y-85409651D01*
X109806973Y-85355253D01*
X109873268Y-85333189D01*
X109918650Y-85340070D01*
X109940300Y-85347646D01*
X109970730Y-85350500D01*
X109970734Y-85350500D01*
X110759523Y-85350500D01*
X110826562Y-85370185D01*
X110847204Y-85386819D01*
X111663181Y-86202796D01*
X111696666Y-86264119D01*
X111699500Y-86290477D01*
X111699500Y-86829269D01*
X111702353Y-86859699D01*
X111702353Y-86859701D01*
X111747206Y-86987880D01*
X111747207Y-86987882D01*
X111827850Y-87097150D01*
X111937118Y-87177793D01*
X111979845Y-87192744D01*
X112065299Y-87222646D01*
X112095730Y-87225500D01*
X112095734Y-87225500D01*
X113104270Y-87225500D01*
X113134699Y-87222646D01*
X113134701Y-87222646D01*
X113198790Y-87200219D01*
X113262882Y-87177793D01*
X113372150Y-87097150D01*
X113452793Y-86987882D01*
X113475219Y-86923790D01*
X113497646Y-86859701D01*
X113497646Y-86859699D01*
X113500500Y-86829269D01*
X113500500Y-86195730D01*
X113497646Y-86165300D01*
X113497646Y-86165298D01*
X113452793Y-86037119D01*
X113452792Y-86037117D01*
X113420588Y-85993482D01*
X113372150Y-85927850D01*
X113262882Y-85847207D01*
X113262880Y-85847206D01*
X113134700Y-85802353D01*
X113104270Y-85799500D01*
X113104266Y-85799500D01*
X112095734Y-85799500D01*
X112092835Y-85799500D01*
X112092835Y-85798611D01*
X112028475Y-85782930D01*
X112002902Y-85763286D01*
X111936566Y-85696950D01*
X111787727Y-85548111D01*
X111754243Y-85486790D01*
X111759227Y-85417099D01*
X111801098Y-85361165D01*
X111866563Y-85336748D01*
X111928340Y-85349746D01*
X111928348Y-85349724D01*
X111928517Y-85349783D01*
X111933345Y-85350799D01*
X111937115Y-85352791D01*
X111937118Y-85352793D01*
X111986822Y-85370185D01*
X112065299Y-85397646D01*
X112095730Y-85400500D01*
X112095734Y-85400500D01*
X113104270Y-85400500D01*
X113134699Y-85397646D01*
X113134701Y-85397646D01*
X113213178Y-85370185D01*
X113262882Y-85352793D01*
X113372150Y-85272150D01*
X113452793Y-85162882D01*
X113475864Y-85096946D01*
X113493677Y-85046044D01*
X113534399Y-84989269D01*
X113599352Y-84963522D01*
X113610718Y-84963000D01*
X125467299Y-84963000D01*
X125467300Y-84963000D01*
X125568558Y-84921057D01*
X125646057Y-84843558D01*
X125646056Y-84843558D01*
X125704625Y-84784989D01*
X128638786Y-81850827D01*
X128683687Y-81822122D01*
X130653677Y-81098111D01*
X130696452Y-81090500D01*
X137419750Y-81090500D01*
X137419751Y-81090499D01*
X137434568Y-81087552D01*
X137478229Y-81078868D01*
X137478229Y-81078867D01*
X137478231Y-81078867D01*
X137544552Y-81034552D01*
X137588867Y-80968231D01*
X137588867Y-80968229D01*
X137588868Y-80968229D01*
X137600499Y-80909752D01*
X137600500Y-80909750D01*
X137600500Y-80500000D01*
X143394592Y-80500000D01*
X143414201Y-80786680D01*
X143414201Y-80786684D01*
X143414202Y-80786686D01*
X143429974Y-80862584D01*
X143472666Y-81068034D01*
X143472667Y-81068037D01*
X143568894Y-81338793D01*
X143568893Y-81338793D01*
X143701098Y-81593935D01*
X143866812Y-81828700D01*
X143902062Y-81866443D01*
X144062947Y-82038708D01*
X144285853Y-82220055D01*
X144489575Y-82343942D01*
X144531382Y-82369365D01*
X144658320Y-82424501D01*
X144794942Y-82483844D01*
X145071642Y-82561371D01*
X145321920Y-82595771D01*
X145356321Y-82600500D01*
X145356322Y-82600500D01*
X145643679Y-82600500D01*
X145674370Y-82596281D01*
X145928358Y-82561371D01*
X146205058Y-82483844D01*
X146367481Y-82413294D01*
X146468617Y-82369365D01*
X146468620Y-82369363D01*
X146468625Y-82369361D01*
X146714147Y-82220055D01*
X146937053Y-82038708D01*
X147133189Y-81828698D01*
X147298901Y-81593936D01*
X147431104Y-81338797D01*
X147527334Y-81068032D01*
X147585798Y-80786686D01*
X147605408Y-80500000D01*
X147585798Y-80213314D01*
X147527334Y-79931968D01*
X147431105Y-79661206D01*
X147431106Y-79661206D01*
X147298901Y-79406064D01*
X147133187Y-79171299D01*
X146996086Y-79024501D01*
X146937053Y-78961292D01*
X146764178Y-78820648D01*
X146714146Y-78779944D01*
X146468617Y-78630634D01*
X146205063Y-78516158D01*
X146205061Y-78516157D01*
X146205058Y-78516156D01*
X146064354Y-78476733D01*
X145928364Y-78438630D01*
X145928359Y-78438629D01*
X145928358Y-78438629D01*
X145766938Y-78416442D01*
X145643679Y-78399500D01*
X145643678Y-78399500D01*
X145356322Y-78399500D01*
X145356321Y-78399500D01*
X145071642Y-78438629D01*
X145071635Y-78438630D01*
X144863861Y-78496845D01*
X144794942Y-78516156D01*
X144794939Y-78516156D01*
X144794936Y-78516158D01*
X144794935Y-78516158D01*
X144531382Y-78630634D01*
X144285853Y-78779944D01*
X144062950Y-78961289D01*
X143866812Y-79171299D01*
X143701098Y-79406064D01*
X143568894Y-79661206D01*
X143472667Y-79931962D01*
X143472666Y-79931965D01*
X143414201Y-80213319D01*
X143394592Y-80500000D01*
X137600500Y-80500000D01*
X137600500Y-77690249D01*
X137600499Y-77690247D01*
X137588868Y-77631770D01*
X137588867Y-77631769D01*
X137544552Y-77565447D01*
X137478230Y-77521132D01*
X137478229Y-77521131D01*
X137419752Y-77509500D01*
X137419748Y-77509500D01*
X125547099Y-77509500D01*
X125512163Y-77504477D01*
X125506543Y-77502826D01*
X125505894Y-77502732D01*
X125448638Y-77494500D01*
X122136903Y-77494500D01*
X122069864Y-77474815D01*
X122024109Y-77422011D01*
X122014165Y-77352853D01*
X122043190Y-77289297D01*
X122049222Y-77282819D01*
X122090222Y-77241819D01*
X122151545Y-77208334D01*
X122177903Y-77205500D01*
X140029167Y-77205500D01*
X140096206Y-77225185D01*
X140116848Y-77241819D01*
X140127235Y-77252206D01*
X140230009Y-77297585D01*
X140255135Y-77300500D01*
X147744864Y-77300499D01*
X147744879Y-77300497D01*
X147744882Y-77300497D01*
X147769987Y-77297586D01*
X147769988Y-77297585D01*
X147769991Y-77297585D01*
X147872765Y-77252206D01*
X147952206Y-77172765D01*
X147997585Y-77069991D01*
X148000500Y-77044865D01*
X148000499Y-72955136D01*
X148000497Y-72955117D01*
X147997586Y-72930012D01*
X147997585Y-72930010D01*
X147997585Y-72930009D01*
X147952206Y-72827235D01*
X147872765Y-72747794D01*
X147769992Y-72702415D01*
X147744868Y-72699500D01*
X147744865Y-72699500D01*
X142300430Y-72699500D01*
X142238749Y-72681388D01*
X142238433Y-72682006D01*
X142235200Y-72680346D01*
X142233391Y-72679815D01*
X142230938Y-72678158D01*
X142130665Y-72626676D01*
X142086792Y-72613606D01*
X142063707Y-72606730D01*
X141977686Y-72594017D01*
X141977684Y-72594016D01*
X141977682Y-72594016D01*
X116646350Y-72494678D01*
X116626912Y-72495222D01*
X116611139Y-72496167D01*
X116507864Y-72520837D01*
X116443765Y-72548631D01*
X116443762Y-72548633D01*
X116369723Y-72594224D01*
X116369714Y-72594230D01*
X116136207Y-72788822D01*
X114649053Y-74028115D01*
X114649032Y-74028135D01*
X114615670Y-74060548D01*
X114590749Y-74088754D01*
X114577448Y-74104889D01*
X114526559Y-74204970D01*
X114506877Y-74271999D01*
X114494500Y-74358080D01*
X114494500Y-76248638D01*
X114496250Y-76281281D01*
X114496254Y-76281334D01*
X114499081Y-76307625D01*
X114499920Y-76314660D01*
X114501231Y-76320611D01*
X114499340Y-76321027D01*
X114501138Y-76381909D01*
X114465115Y-76441776D01*
X114402443Y-76472664D01*
X114381182Y-76474500D01*
X112504800Y-76474500D01*
X112395200Y-76474500D01*
X112395198Y-76474500D01*
X112395196Y-76474501D01*
X112293944Y-76516439D01*
X112022202Y-76788181D01*
X111960879Y-76821666D01*
X111934522Y-76824500D01*
X111793482Y-76824500D01*
X111712519Y-76837323D01*
X111699696Y-76839354D01*
X111586658Y-76896950D01*
X111586657Y-76896951D01*
X111586652Y-76896954D01*
X111496954Y-76986652D01*
X111496949Y-76986659D01*
X111448474Y-77081796D01*
X111400500Y-77132591D01*
X111337990Y-77149500D01*
X111260008Y-77149500D01*
X111192969Y-77129815D01*
X111147214Y-77077011D01*
X111137270Y-77007853D01*
X111147626Y-76973095D01*
X111153972Y-76959487D01*
X111160500Y-76909901D01*
X111160499Y-76490100D01*
X111153972Y-76440513D01*
X111103224Y-76331684D01*
X111092341Y-76320801D01*
X111058856Y-76259478D01*
X111063840Y-76189786D01*
X111105712Y-76133853D01*
X111106250Y-76133452D01*
X111156423Y-76096423D01*
X111234381Y-75990794D01*
X111262722Y-75909800D01*
X111277741Y-75866881D01*
X111277741Y-75866879D01*
X111280500Y-75837457D01*
X111280499Y-75362544D01*
X111277741Y-75333121D01*
X111275539Y-75326827D01*
X111267458Y-75303732D01*
X111260500Y-75262779D01*
X111260500Y-75084272D01*
X111272348Y-75034841D01*
X111271325Y-75034435D01*
X111273438Y-75029112D01*
X111273439Y-75029111D01*
X111293124Y-74962072D01*
X111305500Y-74876000D01*
X111305500Y-71929500D01*
X111325185Y-71862461D01*
X111377989Y-71816706D01*
X111429500Y-71805500D01*
X111547900Y-71805500D01*
X111614939Y-71825185D01*
X111622817Y-71830690D01*
X111627658Y-71834361D01*
X111768436Y-71889877D01*
X111856898Y-71900500D01*
X111856903Y-71900500D01*
X114143097Y-71900500D01*
X114143102Y-71900500D01*
X114231564Y-71889877D01*
X114372342Y-71834361D01*
X114377237Y-71830648D01*
X114442544Y-71805823D01*
X114446979Y-71805592D01*
X114446979Y-71805589D01*
X114448638Y-71805500D01*
X114481297Y-71803749D01*
X114507655Y-71800915D01*
X114514660Y-71800080D01*
X114621407Y-71765297D01*
X114682730Y-71731812D01*
X114752340Y-71679702D01*
X114879702Y-71552340D01*
X114901558Y-71528008D01*
X114918192Y-71507366D01*
X114922553Y-71501825D01*
X114973439Y-71401749D01*
X114993124Y-71334710D01*
X115005500Y-71248638D01*
X115005500Y-70229500D01*
X115025185Y-70162461D01*
X115077989Y-70116706D01*
X115129500Y-70105500D01*
X121493571Y-70105500D01*
X121560610Y-70125185D01*
X121590399Y-70152038D01*
X121713985Y-70306521D01*
X121718861Y-70312616D01*
X121767211Y-70360834D01*
X121777026Y-70368642D01*
X121810320Y-70395131D01*
X121868183Y-70431411D01*
X122142199Y-70563110D01*
X122206673Y-70585629D01*
X122260387Y-70597867D01*
X122260392Y-70597867D01*
X122260394Y-70597868D01*
X122304780Y-70602860D01*
X122328252Y-70605500D01*
X122328253Y-70605500D01*
X124348639Y-70605500D01*
X124350559Y-70605397D01*
X124381297Y-70603749D01*
X124407655Y-70600915D01*
X124414660Y-70600080D01*
X124425336Y-70596601D01*
X124463755Y-70590499D01*
X137444856Y-70590499D01*
X137444864Y-70590499D01*
X137444879Y-70590497D01*
X137444882Y-70590497D01*
X137469987Y-70587586D01*
X137469988Y-70587585D01*
X137469991Y-70587585D01*
X137572765Y-70542206D01*
X137652206Y-70462765D01*
X137697585Y-70359991D01*
X137700500Y-70334865D01*
X137700499Y-67065136D01*
X137697914Y-67042842D01*
X137697586Y-67040012D01*
X137697585Y-67040010D01*
X137697585Y-67040009D01*
X137652206Y-66937235D01*
X137572765Y-66857794D01*
X137564338Y-66854073D01*
X137469992Y-66812415D01*
X137444868Y-66809500D01*
X137444865Y-66809500D01*
X124460103Y-66809500D01*
X124439128Y-66807244D01*
X124439091Y-66807506D01*
X124434710Y-66806876D01*
X124348638Y-66794500D01*
X105324665Y-66794500D01*
X105310047Y-66795939D01*
X105265068Y-66800369D01*
X105217617Y-66809808D01*
X105217614Y-66809808D01*
X105160300Y-66827194D01*
X105113507Y-66846576D01*
X105095410Y-66854073D01*
X104864460Y-66949734D01*
X104864457Y-66949735D01*
X104811639Y-66977967D01*
X104811619Y-66977979D01*
X104771429Y-67004833D01*
X104771406Y-67004850D01*
X104725113Y-67042842D01*
X103442842Y-68325113D01*
X103404844Y-68371414D01*
X103377969Y-68411636D01*
X103377966Y-68411642D01*
X103349739Y-68464452D01*
X103227193Y-68760305D01*
X103209811Y-68817601D01*
X103209808Y-68817616D01*
X103200369Y-68865068D01*
X103194500Y-68924666D01*
X103194500Y-69575500D01*
X103174815Y-69642539D01*
X103122011Y-69688294D01*
X103070500Y-69699500D01*
X98255143Y-69699500D01*
X98255117Y-69699502D01*
X98230012Y-69702413D01*
X98230008Y-69702415D01*
X98127235Y-69747793D01*
X98047794Y-69827234D01*
X98037434Y-69850698D01*
X97992347Y-69904074D01*
X97925561Y-69924601D01*
X97858279Y-69905762D01*
X97811863Y-69853538D01*
X97800000Y-69800611D01*
X97800000Y-65424000D01*
X97819685Y-65356961D01*
X97872489Y-65311206D01*
X97924000Y-65300000D01*
X148176000Y-65300000D01*
X148243039Y-65319685D01*
G37*
%TD.AperFunction*%
%TA.AperFunction,Conductor*%
G36*
X127721345Y-81110185D02*
G01*
X127741987Y-81126819D01*
X128075095Y-81459927D01*
X128108580Y-81521250D01*
X128103596Y-81590942D01*
X128075095Y-81635289D01*
X125334704Y-84375681D01*
X125273381Y-84409166D01*
X125247023Y-84412000D01*
X113610718Y-84412000D01*
X113543679Y-84392315D01*
X113497924Y-84339511D01*
X113493677Y-84328956D01*
X113452793Y-84212119D01*
X113452793Y-84212118D01*
X113372150Y-84102850D01*
X113262882Y-84022207D01*
X113262880Y-84022206D01*
X113134700Y-83977353D01*
X113104270Y-83974500D01*
X113104266Y-83974500D01*
X112095734Y-83974500D01*
X112095730Y-83974500D01*
X112065300Y-83977353D01*
X112065298Y-83977353D01*
X111937119Y-84022206D01*
X111937117Y-84022207D01*
X111827850Y-84102850D01*
X111747207Y-84212117D01*
X111747206Y-84212119D01*
X111702353Y-84340298D01*
X111702353Y-84340300D01*
X111699500Y-84370730D01*
X111699500Y-85004269D01*
X111702353Y-85034699D01*
X111702353Y-85034701D01*
X111747207Y-85162882D01*
X111749201Y-85166655D01*
X111750134Y-85171248D01*
X111750276Y-85171652D01*
X111750220Y-85171671D01*
X111763120Y-85235124D01*
X111737812Y-85300249D01*
X111681312Y-85341353D01*
X111611559Y-85345386D01*
X111551887Y-85312272D01*
X111426329Y-85186714D01*
X111392844Y-85125391D01*
X111396968Y-85058080D01*
X111422646Y-84984699D01*
X111425500Y-84954266D01*
X111425500Y-84345734D01*
X111425288Y-84343475D01*
X111422646Y-84315300D01*
X111422646Y-84315298D01*
X111377793Y-84187119D01*
X111377792Y-84187117D01*
X111371621Y-84178755D01*
X111297150Y-84077850D01*
X111187882Y-83997207D01*
X111108545Y-83969445D01*
X111051769Y-83928723D01*
X111026023Y-83863769D01*
X111025501Y-83852404D01*
X111025501Y-83723267D01*
X111045186Y-83656228D01*
X111046399Y-83654375D01*
X111063868Y-83628232D01*
X111075501Y-83569749D01*
X111075501Y-83049778D01*
X111095186Y-82982739D01*
X111147990Y-82936984D01*
X111151988Y-82935242D01*
X111156058Y-82933557D01*
X111233557Y-82856058D01*
X111233556Y-82856058D01*
X111377798Y-82711818D01*
X111439121Y-82678333D01*
X111465478Y-82675500D01*
X111969749Y-82675500D01*
X111969750Y-82675499D01*
X111984567Y-82672552D01*
X112028228Y-82663868D01*
X112028228Y-82663867D01*
X112028230Y-82663867D01*
X112094551Y-82619552D01*
X112094552Y-82619551D01*
X112102285Y-82611819D01*
X112163608Y-82578334D01*
X112189966Y-82575500D01*
X113434157Y-82575500D01*
X113434158Y-82575500D01*
X113535416Y-82533557D01*
X113612915Y-82456058D01*
X114557154Y-81511819D01*
X114618477Y-81478334D01*
X114644835Y-81475500D01*
X116505500Y-81475500D01*
X116572539Y-81495185D01*
X116618294Y-81547989D01*
X116629500Y-81599500D01*
X116629500Y-81928132D01*
X116629501Y-81928138D01*
X116635741Y-81975545D01*
X116635742Y-81975547D01*
X116635742Y-81975548D01*
X116684253Y-82079579D01*
X116765421Y-82160747D01*
X116869455Y-82209259D01*
X116916861Y-82215500D01*
X117243138Y-82215499D01*
X117290545Y-82209259D01*
X117394579Y-82160747D01*
X117475747Y-82079579D01*
X117524259Y-81975545D01*
X117530500Y-81928139D01*
X117530499Y-81471862D01*
X117524259Y-81424455D01*
X117475747Y-81320421D01*
X117472507Y-81317181D01*
X117439022Y-81255858D01*
X117444006Y-81186166D01*
X117485878Y-81130233D01*
X117551342Y-81105816D01*
X117560188Y-81105500D01*
X125448639Y-81105500D01*
X125451180Y-81105363D01*
X125470607Y-81104322D01*
X125470614Y-81104321D01*
X125470618Y-81104321D01*
X125487203Y-81102537D01*
X125496965Y-81101488D01*
X125507750Y-81098111D01*
X125513966Y-81096165D01*
X125551018Y-81090500D01*
X127654306Y-81090500D01*
X127721345Y-81110185D01*
G37*
%TD.AperFunction*%
%TD*%
%TA.AperFunction,NonConductor*%
G36*
X109633071Y-74427985D02*
G01*
X109684550Y-74475225D01*
X109697985Y-74508884D01*
X109698033Y-74508869D01*
X109698269Y-74509594D01*
X109699462Y-74512583D01*
X109699919Y-74514657D01*
X109734700Y-74621401D01*
X109734704Y-74621411D01*
X109768189Y-74682733D01*
X109820289Y-74752329D01*
X109820307Y-74752350D01*
X109935776Y-74867819D01*
X109969261Y-74929142D01*
X109964277Y-74998834D01*
X109922405Y-75054767D01*
X109856941Y-75079184D01*
X109848095Y-75079500D01*
X109515683Y-75079500D01*
X109466828Y-75085931D01*
X109359594Y-75135936D01*
X109350710Y-75142157D01*
X109349421Y-75140317D01*
X109300858Y-75166835D01*
X109231166Y-75161851D01*
X109175233Y-75119979D01*
X109150816Y-75054515D01*
X109150500Y-75045669D01*
X109150500Y-74862009D01*
X109170185Y-74794970D01*
X109218202Y-74751526D01*
X109313342Y-74703050D01*
X109403050Y-74613342D01*
X109460646Y-74500304D01*
X109460646Y-74500302D01*
X109465076Y-74491609D01*
X109466371Y-74492269D01*
X109499867Y-74443278D01*
X109564224Y-74416075D01*
X109633071Y-74427985D01*
G37*
%TD.AperFunction*%
%TA.AperFunction,NonConductor*%
G36*
X112967539Y-77045185D02*
G01*
X113013294Y-77097989D01*
X113024500Y-77149500D01*
X113024500Y-77600500D01*
X113004815Y-77667539D01*
X112952011Y-77713294D01*
X112900500Y-77724500D01*
X112899500Y-77724500D01*
X112832461Y-77704815D01*
X112786706Y-77652011D01*
X112775500Y-77600500D01*
X112775499Y-77193477D01*
X112771606Y-77168898D01*
X112780561Y-77099604D01*
X112825557Y-77046152D01*
X112892308Y-77025513D01*
X112894079Y-77025500D01*
X112900500Y-77025500D01*
X112967539Y-77045185D01*
G37*
%TD.AperFunction*%
%TA.AperFunction,NonConductor*%
G36*
X116253944Y-76825185D02*
G01*
X116299699Y-76877989D01*
X116309643Y-76947147D01*
X116297390Y-76985795D01*
X116296950Y-76986657D01*
X116296950Y-76986658D01*
X116286151Y-77007853D01*
X116239352Y-77099698D01*
X116224500Y-77193475D01*
X116224500Y-77193480D01*
X116224500Y-77193481D01*
X116224500Y-77422011D01*
X116224501Y-77650500D01*
X116204817Y-77717539D01*
X116152013Y-77763294D01*
X116100501Y-77774500D01*
X116099500Y-77774500D01*
X116032461Y-77754815D01*
X115986706Y-77702011D01*
X115975500Y-77650500D01*
X115975499Y-77193482D01*
X115971986Y-77171299D01*
X115960646Y-77099696D01*
X115903050Y-76986658D01*
X115903049Y-76986657D01*
X115902610Y-76985795D01*
X115889714Y-76917125D01*
X115915991Y-76852385D01*
X115973097Y-76812128D01*
X116013095Y-76805500D01*
X116186905Y-76805500D01*
X116253944Y-76825185D01*
G37*
%TD.AperFunction*%
%TA.AperFunction,NonConductor*%
G36*
X117837539Y-76825185D02*
G01*
X117883294Y-76877989D01*
X117894500Y-76929500D01*
X117894500Y-77676000D01*
X117894501Y-77676009D01*
X117901481Y-77740935D01*
X117901484Y-77740952D01*
X117905441Y-77759142D01*
X117900457Y-77828834D01*
X117858585Y-77884767D01*
X117793121Y-77909184D01*
X117784275Y-77909500D01*
X117679592Y-77909500D01*
X117612553Y-77889815D01*
X117566798Y-77837011D01*
X117556854Y-77767853D01*
X117560031Y-77754188D01*
X117572413Y-77676009D01*
X117575500Y-77656519D01*
X117575499Y-77193482D01*
X117560646Y-77099696D01*
X117503050Y-76986658D01*
X117503049Y-76986657D01*
X117502610Y-76985795D01*
X117489714Y-76917125D01*
X117515991Y-76852385D01*
X117573097Y-76812128D01*
X117613095Y-76805500D01*
X117770500Y-76805500D01*
X117837539Y-76825185D01*
G37*
%TD.AperFunction*%
%TA.AperFunction,NonConductor*%
G36*
X107004212Y-79395185D02*
G01*
X107049967Y-79447989D01*
X107059911Y-79517147D01*
X107030886Y-79580703D01*
X106972108Y-79618477D01*
X106953358Y-79622439D01*
X106926828Y-79625931D01*
X106819595Y-79675935D01*
X106787681Y-79707850D01*
X106726358Y-79741335D01*
X106656666Y-79736351D01*
X106612319Y-79707850D01*
X106575685Y-79671216D01*
X106542200Y-79609893D01*
X106547184Y-79540201D01*
X106575684Y-79495855D01*
X106603224Y-79468316D01*
X106613120Y-79447093D01*
X106659291Y-79394656D01*
X106725501Y-79375500D01*
X106937173Y-79375500D01*
X107004212Y-79395185D01*
G37*
%TD.AperFunction*%
%TA.AperFunction,NonConductor*%
G36*
X112590382Y-79220185D02*
G01*
X112636137Y-79272989D01*
X112639445Y-79281486D01*
X112640281Y-79283126D01*
X112701472Y-79403220D01*
X112701474Y-79403222D01*
X112701476Y-79403225D01*
X112796774Y-79498523D01*
X112796776Y-79498524D01*
X112796780Y-79498528D01*
X112916874Y-79559719D01*
X112916877Y-79559719D01*
X112923526Y-79561880D01*
X112932667Y-79565252D01*
X112962393Y-79577564D01*
X112969281Y-79580418D01*
X112997560Y-79588996D01*
X113055997Y-79627290D01*
X113084455Y-79691102D01*
X113073897Y-79760169D01*
X113027674Y-79812564D01*
X112980964Y-79830129D01*
X112916878Y-79840279D01*
X112796778Y-79901473D01*
X112796774Y-79901476D01*
X112701476Y-79996774D01*
X112701471Y-79996781D01*
X112696369Y-80006795D01*
X112648394Y-80057591D01*
X112585885Y-80074499D01*
X112274499Y-80074499D01*
X112207460Y-80054814D01*
X112161705Y-80002010D01*
X112150499Y-79950499D01*
X112150499Y-79705249D01*
X112150498Y-79705247D01*
X112136484Y-79634790D01*
X112137761Y-79634535D01*
X112131679Y-79577991D01*
X112138694Y-79554099D01*
X112150498Y-79494753D01*
X112150499Y-79494751D01*
X112150499Y-79324500D01*
X112170184Y-79257461D01*
X112222988Y-79211706D01*
X112274499Y-79200500D01*
X112523343Y-79200500D01*
X112590382Y-79220185D01*
G37*
%TD.AperFunction*%
%TA.AperFunction,NonConductor*%
G36*
X114137539Y-79625185D02*
G01*
X114183294Y-79677989D01*
X114194500Y-79729500D01*
X114194500Y-80061161D01*
X114174815Y-80128200D01*
X114122011Y-80173955D01*
X114052853Y-80183899D01*
X113989297Y-80154874D01*
X113960015Y-80117456D01*
X113959719Y-80116875D01*
X113959719Y-80116874D01*
X113898528Y-79996780D01*
X113898524Y-79996776D01*
X113898523Y-79996774D01*
X113803225Y-79901476D01*
X113803221Y-79901473D01*
X113803220Y-79901472D01*
X113683126Y-79840281D01*
X113683123Y-79840280D01*
X113682543Y-79839985D01*
X113631747Y-79792011D01*
X113614952Y-79724190D01*
X113637489Y-79658055D01*
X113692204Y-79614603D01*
X113738838Y-79605500D01*
X114070500Y-79605500D01*
X114137539Y-79625185D01*
G37*
%TD.AperFunction*%
%TA.AperFunction,NonConductor*%
G36*
X114130610Y-80659633D02*
G01*
X114188843Y-80698242D01*
X114212314Y-80741045D01*
X114222470Y-80773478D01*
X114222471Y-80773483D01*
X114229681Y-80786686D01*
X114255039Y-80833126D01*
X114255957Y-80834806D01*
X114276752Y-80862584D01*
X114301169Y-80928049D01*
X114286317Y-80996322D01*
X114265166Y-81024576D01*
X113759486Y-81530255D01*
X113698163Y-81563740D01*
X113628471Y-81558756D01*
X113572538Y-81516884D01*
X113559424Y-81494981D01*
X113553224Y-81481684D01*
X113468316Y-81396776D01*
X113393484Y-81361881D01*
X113341046Y-81315710D01*
X113321894Y-81248516D01*
X113342110Y-81181635D01*
X113395275Y-81136301D01*
X113445890Y-81125500D01*
X113583493Y-81125500D01*
X113683121Y-81109720D01*
X113683121Y-81109719D01*
X113683126Y-81109719D01*
X113803220Y-81048528D01*
X113898528Y-80953220D01*
X113959719Y-80833126D01*
X113961085Y-80824500D01*
X113971507Y-80758702D01*
X114001436Y-80695567D01*
X114060747Y-80658635D01*
X114130610Y-80659633D01*
G37*
%TD.AperFunction*%
%TA.AperFunction,NonConductor*%
G36*
X110343835Y-83373298D02*
G01*
X110399768Y-83415170D01*
X110424185Y-83480634D01*
X110424501Y-83489480D01*
X110424501Y-83569753D01*
X110436132Y-83628229D01*
X110436133Y-83628231D01*
X110436134Y-83628232D01*
X110446248Y-83643369D01*
X110453603Y-83654375D01*
X110474481Y-83721053D01*
X110474501Y-83723267D01*
X110474501Y-83825500D01*
X110454816Y-83892539D01*
X110402012Y-83938294D01*
X110350501Y-83949500D01*
X109970733Y-83949500D01*
X109970089Y-83949530D01*
X109969966Y-83949500D01*
X109967835Y-83949500D01*
X109967835Y-83948980D01*
X109902205Y-83932987D01*
X109854042Y-83882371D01*
X109840890Y-83813750D01*
X109866924Y-83748912D01*
X109876627Y-83737991D01*
X110212820Y-83401799D01*
X110274143Y-83368314D01*
X110343835Y-83373298D01*
G37*
%TD.AperFunction*%
%TA.AperFunction,Conductor*%
%TO.N,Net-(M1-D)*%
G36*
X125515677Y-77719685D02*
G01*
X125536319Y-77736319D01*
X125663681Y-77863681D01*
X125697166Y-77925004D01*
X125700000Y-77951362D01*
X125700000Y-80648638D01*
X125680315Y-80715677D01*
X125663681Y-80736319D01*
X125536319Y-80863681D01*
X125474996Y-80897166D01*
X125448638Y-80900000D01*
X114651362Y-80900000D01*
X114584323Y-80880315D01*
X114563681Y-80863681D01*
X114436319Y-80736319D01*
X114402834Y-80674996D01*
X114400000Y-80648638D01*
X114400000Y-79570712D01*
X114400000Y-79570711D01*
X114400000Y-79500000D01*
X114300000Y-79400000D01*
X114229290Y-79400000D01*
X113095376Y-79400000D01*
X113047923Y-79390561D01*
X112997452Y-79369655D01*
X112943049Y-79325814D01*
X112930345Y-79302549D01*
X112909438Y-79252074D01*
X112900000Y-79204623D01*
X112900000Y-78699500D01*
X112919685Y-78632461D01*
X112972489Y-78586706D01*
X113024000Y-78575500D01*
X116433353Y-78575500D01*
X116433354Y-78575500D01*
X116534612Y-78533557D01*
X116534616Y-78533552D01*
X116544766Y-78526772D01*
X116545987Y-78528599D01*
X116593173Y-78502834D01*
X116619531Y-78500000D01*
X118772500Y-78500000D01*
X118800000Y-78500000D01*
X118800000Y-78483539D01*
X118837004Y-78463334D01*
X118863362Y-78460500D01*
X120461244Y-78460500D01*
X120528283Y-78480185D01*
X120574038Y-78532989D01*
X120575805Y-78537047D01*
X120590561Y-78572671D01*
X120600000Y-78620124D01*
X120600000Y-79300000D01*
X121429287Y-79300000D01*
X121429289Y-79300000D01*
X121500000Y-79300000D01*
X121600000Y-79200000D01*
X121600000Y-77964015D01*
X121608376Y-77919215D01*
X121614024Y-77904638D01*
X121616912Y-77905757D01*
X121640274Y-77859800D01*
X121642723Y-77857276D01*
X121763683Y-77736316D01*
X121825005Y-77702834D01*
X121851362Y-77700000D01*
X125448638Y-77700000D01*
X125515677Y-77719685D01*
G37*
%TD.AperFunction*%
%TD*%
%TA.AperFunction,Conductor*%
%TO.N,+7.4V*%
G36*
X111000000Y-74876000D02*
G01*
X110980315Y-74943039D01*
X110927511Y-74988794D01*
X110876000Y-75000000D01*
X110551362Y-75000000D01*
X110484323Y-74980315D01*
X110463681Y-74963681D01*
X110036319Y-74536319D01*
X110002834Y-74474996D01*
X110000000Y-74448638D01*
X110000000Y-73500000D01*
X109500000Y-73000000D01*
X107400000Y-73000000D01*
X107400000Y-71500000D01*
X111000000Y-71500000D01*
X111000000Y-74876000D01*
G37*
%TD.AperFunction*%
%TD*%
%TA.AperFunction,Conductor*%
%TO.N,Net-(M1-D)*%
G36*
X130796980Y-79314504D02*
G01*
X130798268Y-79321268D01*
X130625012Y-80882805D01*
X130620693Y-80890650D01*
X130617419Y-80892497D01*
X128562947Y-81647559D01*
X128554000Y-81647196D01*
X128550638Y-81644850D01*
X127806989Y-80901201D01*
X127803562Y-80892928D01*
X127806989Y-80884655D01*
X127809786Y-80882588D01*
X130781167Y-79309636D01*
X130790080Y-79308796D01*
X130796980Y-79314504D01*
G37*
%TD.AperFunction*%
%TD*%
M02*
