%TF.GenerationSoftware,KiCad,Pcbnew,8.0.6*%
%TF.CreationDate,2024-10-21T22:45:32+01:00*%
%TF.ProjectId,buck,6275636b-2e6b-4696-9361-645f70636258,rev?*%
%TF.SameCoordinates,Original*%
%TF.FileFunction,Paste,Top*%
%TF.FilePolarity,Positive*%
%FSLAX46Y46*%
G04 Gerber Fmt 4.6, Leading zero omitted, Abs format (unit mm)*
G04 Created by KiCad (PCBNEW 8.0.6) date 2024-10-21 22:45:32*
%MOMM*%
%LPD*%
G01*
G04 APERTURE LIST*
G04 Aperture macros list*
%AMRoundRect*
0 Rectangle with rounded corners*
0 $1 Rounding radius*
0 $2 $3 $4 $5 $6 $7 $8 $9 X,Y pos of 4 corners*
0 Add a 4 corners polygon primitive as box body*
4,1,4,$2,$3,$4,$5,$6,$7,$8,$9,$2,$3,0*
0 Add four circle primitives for the rounded corners*
1,1,$1+$1,$2,$3*
1,1,$1+$1,$4,$5*
1,1,$1+$1,$6,$7*
1,1,$1+$1,$8,$9*
0 Add four rect primitives between the rounded corners*
20,1,$1+$1,$2,$3,$4,$5,0*
20,1,$1+$1,$4,$5,$6,$7,0*
20,1,$1+$1,$6,$7,$8,$9,0*
20,1,$1+$1,$8,$9,$2,$3,0*%
G04 Aperture macros list end*
%ADD10C,0.000000*%
%ADD11RoundRect,0.135000X-0.135000X-0.185000X0.135000X-0.185000X0.135000X0.185000X-0.135000X0.185000X0*%
%ADD12RoundRect,0.200000X0.275000X-0.200000X0.275000X0.200000X-0.275000X0.200000X-0.275000X-0.200000X0*%
%ADD13RoundRect,0.140000X-0.170000X0.140000X-0.170000X-0.140000X0.170000X-0.140000X0.170000X0.140000X0*%
%ADD14RoundRect,0.200000X-0.275000X0.200000X-0.275000X-0.200000X0.275000X-0.200000X0.275000X0.200000X0*%
%ADD15RoundRect,0.250000X0.450000X-0.262500X0.450000X0.262500X-0.450000X0.262500X-0.450000X-0.262500X0*%
%ADD16RoundRect,0.250000X-1.100000X0.325000X-1.100000X-0.325000X1.100000X-0.325000X1.100000X0.325000X0*%
%ADD17RoundRect,0.125000X0.125000X-0.190000X0.125000X0.190000X-0.125000X0.190000X-0.125000X-0.190000X0*%
%ADD18R,0.738000X0.570000*%
%ADD19R,13.200000X3.180000*%
%ADD20RoundRect,0.225000X0.250000X-0.225000X0.250000X0.225000X-0.250000X0.225000X-0.250000X-0.225000X0*%
%ADD21RoundRect,0.200000X0.200000X0.275000X-0.200000X0.275000X-0.200000X-0.275000X0.200000X-0.275000X0*%
%ADD22RoundRect,0.140000X0.140000X0.170000X-0.140000X0.170000X-0.140000X-0.170000X0.140000X-0.170000X0*%
%ADD23RoundRect,0.135000X0.135000X0.185000X-0.135000X0.185000X-0.135000X-0.185000X0.135000X-0.185000X0*%
%ADD24RoundRect,0.250000X-0.475000X0.250000X-0.475000X-0.250000X0.475000X-0.250000X0.475000X0.250000X0*%
%ADD25R,0.249999X0.599999*%
%ADD26R,0.599999X0.249999*%
%ADD27RoundRect,0.135000X-0.185000X0.135000X-0.185000X-0.135000X0.185000X-0.135000X0.185000X0.135000X0*%
%ADD28RoundRect,0.250000X1.100000X-0.325000X1.100000X0.325000X-1.100000X0.325000X-1.100000X-0.325000X0*%
G04 APERTURE END LIST*
D10*
%TO.C,U1*%
G36*
X109900000Y-79835001D02*
G01*
X109900000Y-80944999D01*
X109850000Y-80994999D01*
X109199999Y-80994999D01*
X109149999Y-80944999D01*
X109149999Y-79835001D01*
X109199999Y-79784999D01*
X109850000Y-79784999D01*
X109900000Y-79835001D01*
G37*
G36*
X109900000Y-81255001D02*
G01*
X109900000Y-82364999D01*
X109850000Y-82415001D01*
X109199999Y-82415001D01*
X109149999Y-82364999D01*
X109149999Y-81255001D01*
X109199999Y-81205001D01*
X109850000Y-81205001D01*
X109900000Y-81255001D01*
G37*
G36*
X110850001Y-81255001D02*
G01*
X110850001Y-82364999D01*
X110800001Y-82415001D01*
X110150000Y-82415001D01*
X110100000Y-82364999D01*
X110100000Y-81255001D01*
X110150000Y-81205001D01*
X110800001Y-81205001D01*
X110850001Y-81255001D01*
G37*
G36*
X110850001Y-79835001D02*
G01*
X110850001Y-80944999D01*
X110800001Y-80994999D01*
X110150000Y-80994999D01*
X110100000Y-80944999D01*
X110100000Y-79835001D01*
X110150000Y-79784999D01*
X110800001Y-79784999D01*
X110850001Y-79835001D01*
G37*
%TD*%
D11*
%TO.C,R8*%
X105190000Y-82100000D03*
X106210000Y-82100000D03*
%TD*%
D12*
%TO.C,R5*%
X107000000Y-86225000D03*
X107000000Y-84575000D03*
%TD*%
D13*
%TO.C,C3*%
X113100000Y-81820000D03*
X113100000Y-82780000D03*
%TD*%
D14*
%TO.C,R1*%
X115300000Y-75775000D03*
X115300000Y-77425000D03*
%TD*%
D15*
%TO.C,R7*%
X112600000Y-86512500D03*
X112600000Y-84687500D03*
%TD*%
D14*
%TO.C,R4*%
X116900000Y-75775000D03*
X116900000Y-77425000D03*
%TD*%
D12*
%TO.C,R2*%
X112100000Y-77425000D03*
X112100000Y-75775000D03*
%TD*%
D16*
%TO.C,C10*%
X113000000Y-71025000D03*
X113000000Y-73975000D03*
%TD*%
D17*
%TO.C,M1*%
X117080000Y-81700000D03*
X116440000Y-81700000D03*
X115780000Y-81700000D03*
X115140000Y-81700000D03*
X117082500Y-78820000D03*
X116440000Y-78820000D03*
X115780000Y-78820000D03*
X115137500Y-78820000D03*
D18*
X116720000Y-79400000D03*
X115500000Y-79400000D03*
X116720000Y-80350000D03*
X115500000Y-80350000D03*
%TD*%
D19*
%TO.C,L1*%
X130800000Y-68700000D03*
X130800000Y-79300000D03*
%TD*%
D20*
%TO.C,C4*%
X113700000Y-77375000D03*
X113700000Y-75825000D03*
%TD*%
D21*
%TO.C,R9*%
X110525000Y-74100000D03*
X108875000Y-74100000D03*
%TD*%
D22*
%TO.C,C9*%
X110680000Y-76700000D03*
X109720000Y-76700000D03*
%TD*%
D23*
%TO.C,R10*%
X106210000Y-81100000D03*
X105190000Y-81100000D03*
%TD*%
D24*
%TO.C,C5*%
X110500000Y-84650000D03*
X110500000Y-86550000D03*
%TD*%
D25*
%TO.C,U1*%
X109249999Y-78949999D03*
D26*
X108350001Y-79350001D03*
X108350001Y-79850000D03*
X108350001Y-80349999D03*
X108350001Y-80850000D03*
X108350001Y-81350000D03*
X108350001Y-81850001D03*
X108350001Y-82350000D03*
X108350001Y-82849999D03*
D25*
X109249999Y-83250001D03*
X110750001Y-83250001D03*
D26*
X111649999Y-82849999D03*
X111649999Y-82350000D03*
X111649999Y-81850001D03*
X111649999Y-81350000D03*
X111649999Y-80850000D03*
X111649999Y-80349999D03*
X111649999Y-79850000D03*
X111649999Y-79350001D03*
D25*
X110750001Y-78949999D03*
%TD*%
D27*
%TO.C,C8*%
X107200000Y-80090000D03*
X107200000Y-81110000D03*
%TD*%
D20*
%TO.C,C6*%
X113300000Y-80475000D03*
X113300000Y-78925000D03*
%TD*%
D22*
%TO.C,C2*%
X106180000Y-79100000D03*
X105220000Y-79100000D03*
%TD*%
D23*
%TO.C,C7*%
X106210000Y-80100000D03*
X105190000Y-80100000D03*
%TD*%
%TO.C,R11*%
X110710000Y-75600000D03*
X109690000Y-75600000D03*
%TD*%
D21*
%TO.C,R3*%
X107125000Y-77800000D03*
X105475000Y-77800000D03*
%TD*%
D12*
%TO.C,R6*%
X108600000Y-86225000D03*
X108600000Y-84575000D03*
%TD*%
D17*
%TO.C,M2*%
X121070000Y-78680000D03*
X120430000Y-78680000D03*
X119770000Y-78680000D03*
X119130000Y-78680000D03*
X121072500Y-75800000D03*
X120430000Y-75800000D03*
X119770000Y-75800000D03*
X119127500Y-75800000D03*
D18*
X120710000Y-76380000D03*
X119490000Y-76380000D03*
X120710000Y-77330000D03*
X119490000Y-77330000D03*
%TD*%
D28*
%TO.C,C1*%
X119800000Y-73975000D03*
X119800000Y-71025000D03*
%TD*%
M02*
